<?xml version="1.0" encoding="utf-8"?>
<!-- Generator: Adobe Illustrator 21.0.0, SVG Export Plug-In . SVG Version: 6.00 Build 0)  -->
<svg version="1.1" id="Layer_1" xmlns="http://www.w3.org/2000/svg" xmlns:xlink="http://www.w3.org/1999/xlink" x="0px" y="0px"
	 viewBox="0 0 620.3 620" enable-background="new 0 0 620.3 620" xml:space="preserve">
<linearGradient id="SVGID_1_" gradientUnits="userSpaceOnUse" x1="297.4215" y1="28.8874" x2="315.4206" y2="411.3683">
	<stop  offset="7.131410e-03" style="stop-color:#AF87D8"/>
	<stop  offset="1" style="stop-color:#7A64CF"/>
</linearGradient>
<circle fill="url(#SVGID_1_)" cx="310.7" cy="310.6" r="310"/>
<linearGradient id="SVGID_2_" gradientUnits="userSpaceOnUse" x1="44.4298" y1="366.5526" x2="46.4298" y2="241.5526">
	<stop  offset="0" style="stop-color:#5C58CA"/>
	<stop  offset="0.8962" style="stop-color:#2265C8;stop-opacity:0"/>
</linearGradient>
<polyline fill="url(#SVGID_2_)" points="28.9,400.7 18.5,235 72.7,183.5 72.7,350.9 28.9,400.7 "/>
<linearGradient id="SVGID_3_" gradientUnits="userSpaceOnUse" x1="303.6658" y1="342.3297" x2="329.6658" y2="598.3297">
	<stop  offset="0" style="stop-color:#FC9CA6"/>
	<stop  offset="1" style="stop-color:#FFFFF1"/>
</linearGradient>
<path fill="url(#SVGID_3_)" d="M603.3,413.1l-47.8-74l-492,15.3l-45.1,60.1c42.3,118.9,155.1,204.6,288.7,206.1
	C443.7,622.1,560.6,535.2,603.3,413.1z"/>
<linearGradient id="SVGID_4_" gradientUnits="userSpaceOnUse" x1="311.4006" y1="350.3099" x2="309.9006" y2="551.2999">
	<stop  offset="0" style="stop-color:#CF97F8"/>
	<stop  offset="1" style="stop-color:#E6A5B3"/>
</linearGradient>
<path fill="url(#SVGID_4_)" d="M555.6,339.1l-492,15.3l-45.1,60.1c5.9,16.6,13.2,32.6,21.7,47.7l46.6-66.7l448-12.7l47.9,79.5
	c5.2-10.7,16.5-37.8,20.5-49.1L555.6,339.1z"/>
<linearGradient id="SVGID_5_" gradientUnits="userSpaceOnUse" x1="74.3068" y1="438.0967" x2="72.5302" y2="389.2397">
	<stop  offset="0" style="stop-color:#AC99E0"/>
	<stop  offset="1" style="stop-color:#3A6CFA"/>
</linearGradient>
<polygon fill="url(#SVGID_5_)" points="71.9,430.8 28.9,400.7 63.6,354.4 115.6,363 "/>
<linearGradient id="SVGID_6_" gradientUnits="userSpaceOnUse" x1="313.7451" y1="412.5432" x2="313.7451" y2="337.9957">
	<stop  offset="0" style="stop-color:#AC99E0"/>
	<stop  offset="1" style="stop-color:#3A6CFA"/>
</linearGradient>
<polygon fill="url(#SVGID_6_)" points="218.6,445.8 177.6,370.6 176.9,350.9 450.6,342.4 415,426.6 "/>
<linearGradient id="SVGID_7_" gradientUnits="userSpaceOnUse" x1="345.8113" y1="100.5089" x2="342.8104" y2="264.5589">
	<stop  offset="0" style="stop-color:#5C58CA"/>
	<stop  offset="0.8962" style="stop-color:#2265C8;stop-opacity:0"/>
</linearGradient>
<path fill="url(#SVGID_7_)" d="M154.6,279.9l386.2-3.9V102.9C495.7,53,434.6,17.8,365.4,5.5c-18.8-2.8-38.2-4.4-57.9-4.6
	c-6.5,0-12.9,0.2-19.3,0.6C237.3,5.1,189.8,21,148.6,46.3L154.6,279.9z"/>
<linearGradient id="SVGID_8_" gradientUnits="userSpaceOnUse" x1="345.0659" y1="27.7253" x2="347.0659" y2="223.7253">
	<stop  offset="9.030449e-02" style="stop-color:#E780B4"/>
	<stop  offset="1" style="stop-color:#DDA09F"/>
</linearGradient>
<path fill="url(#SVGID_8_)" d="M520.7,82.6C478,43.3,424.2,15.7,364.4,5.3c-17.7-2.8-35.8-4.4-54.3-4.6
	c-51.6,0.1-100.2,12.8-143,35.2v243.8l361.2-3.9L520.7,82.6z"/>
<linearGradient id="SVGID_9_" gradientUnits="userSpaceOnUse" x1="356.1533" y1="82.7248" x2="336.6543" y2="211.7183">
	<stop  offset="0" style="stop-color:#DEC0F8"/>
	<stop  offset="1" style="stop-color:#DDC2C7"/>
</linearGradient>
<path fill="url(#SVGID_9_)" d="M187.7,26v230l319.9-3.6l-7.1-186.9C449,25.6,384.4,1.4,314.2,0.6C269.2,0.1,226.4,9.2,187.7,26z"/>
<linearGradient id="SVGID_10_" gradientUnits="userSpaceOnUse" x1="418.5518" y1="144.8513" x2="456.8018" y2="174.9763">
	<stop  offset="7.131410e-03" style="stop-color:#8F7ECE"/>
	<stop  offset="1" style="stop-color:#BFB2D8;stop-opacity:0.1"/>
</linearGradient>
<polyline opacity="0.48" fill="url(#SVGID_10_)" points="409.8,140.2 409.8,140.2 410,141.9 457.9,181.3 461.2,174 419.9,140.4 
	409.8,140.2 "/>
<linearGradient id="SVGID_11_" gradientUnits="userSpaceOnUse" x1="313.7451" y1="322.5305" x2="313.7451" y2="193.181">
	<stop  offset="0" style="stop-color:#5C58CA"/>
	<stop  offset="0.8962" style="stop-color:#2265C8;stop-opacity:0"/>
</linearGradient>
<polygon fill="url(#SVGID_11_)" points="176.9,350.9 176.9,154.5 241.8,130.3 389.1,134.5 444.6,165.7 450.6,342.4 "/>
<g>
	<polygon fill="none" stroke="#FFFFFF" stroke-width="3" stroke-miterlimit="10" points="426.9,397.4 417.1,182.4 367.3,164.3 
		261.6,164.3 200.5,184.9 204.9,317.5 206.7,412.4 212.6,414.2 211.4,451.5 267.1,468.7 381.3,462.2 422.6,431.4 420.1,401.2 	"/>
	<g>
		<linearGradient id="SVGID_12_" gradientUnits="userSpaceOnUse" x1="316.7559" y1="424" x2="316.7559" y2="471">
			<stop  offset="9.030449e-02" style="stop-color:#E780B4"/>
			<stop  offset="1" style="stop-color:#DDA09F"/>
		</linearGradient>
		<polygon fill="url(#SVGID_12_)" points="219.8,410.1 218.6,445.8 270.4,462.3 376.5,456 415,426.6 412.3,393.3 370.9,421.3 
			274.9,427.8 		"/>
		<polygon fill="#9172C1" points="219.1,387.4 219.3,427.4 269.8,439.5 375.9,433.3 413.4,411.7 411.6,370.6 370.2,398.6 274.2,405 
					"/>
		<polygon fill="#FFFFFF" points="208.5,190.5 212.6,317.5 214.2,408.3 274.9,427.8 370.9,421.3 418.9,394 409.8,188.1 359.7,210.5 
			261.3,209.7 		"/>
		<polygon fill="#FFFFFF" points="359.7,210.5 414.6,297.1 318.1,325.9 		"/>
		<g opacity="0.57">
			<linearGradient id="SVGID_13_" gradientUnits="userSpaceOnUse" x1="311.162" y1="316.7015" x2="310.4954" y2="208.7015">
				<stop  offset="1.802885e-03" style="stop-color:#EFEFD8"/>
				<stop  offset="1" style="stop-color:#FFC4D2"/>
			</linearGradient>
			<polygon fill="url(#SVGID_13_)" points="261.3,209.7 318.1,325.9 359.7,210.5 			"/>
			<linearGradient id="SVGID_14_" gradientUnits="userSpaceOnUse" x1="235.6215" y1="317.1678" x2="234.9548" y2="209.1678">
				<stop  offset="1.802885e-03" style="stop-color:#EFEFD8"/>
				<stop  offset="1" style="stop-color:#FFC4D2"/>
			</linearGradient>
			<polygon fill="url(#SVGID_14_)" points="261.3,209.7 212.5,314.3 208.5,190.5 			"/>
			<linearGradient id="SVGID_15_" gradientUnits="userSpaceOnUse" x1="266.4806" y1="408.0135" x2="265.1472" y2="310.0135">
				<stop  offset="1.802885e-03" style="stop-color:#EFEFD8"/>
				<stop  offset="1" style="stop-color:#FFC4D2"/>
			</linearGradient>
			<polygon fill="url(#SVGID_15_)" points="212.5,314.3 318.1,325.9 274.9,427.8 			"/>
			<linearGradient id="SVGID_16_" gradientUnits="userSpaceOnUse" x1="367.653" y1="406.6371" x2="366.3197" y2="308.6371">
				<stop  offset="1.802885e-03" style="stop-color:#EFEFD8"/>
				<stop  offset="1" style="stop-color:#FFC4D2"/>
			</linearGradient>
			<polygon fill="url(#SVGID_16_)" points="318.1,325.9 370.9,421.3 414.6,297.1 			"/>
			<linearGradient id="SVGID_17_" gradientUnits="userSpaceOnUse" x1="387.5357" y1="316.2301" x2="386.869" y2="208.2301">
				<stop  offset="1.802885e-03" style="stop-color:#EFEFD8"/>
				<stop  offset="1" style="stop-color:#FFC4D2"/>
			</linearGradient>
			<polygon fill="url(#SVGID_17_)" points="409.8,188.1 359.7,210.5 414.6,297.1 			"/>
		</g>
		<polygon fill="#FFFFFF" points="409.8,188.1 363.6,170.7 265.3,170.7 208.5,190.5 261.3,209.7 359.7,210.5 		"/>
	</g>
</g>
<g>
	<linearGradient id="SVGID_18_" gradientUnits="userSpaceOnUse" x1="90.2507" y1="147.3333" x2="90.2507" y2="217.3333">
		<stop  offset="7.131410e-03" style="stop-color:#57C4A8"/>
		<stop  offset="1" style="stop-color:#228AA7"/>
	</linearGradient>
	<path fill="url(#SVGID_18_)" d="M83.2,345.3c0,0-6.7-197.9,8.1-231.7s2.8,239.7,2.8,239.7S89.5,356.3,83.2,345.3z"/>
	<linearGradient id="SVGID_19_" gradientUnits="userSpaceOnUse" x1="99.6734" y1="160.3779" x2="97.6734" y2="219.0446">
		<stop  offset="7.131410e-03" style="stop-color:#57C4A8"/>
		<stop  offset="1" style="stop-color:#228AA7"/>
	</linearGradient>
	<path fill="url(#SVGID_19_)" d="M83.5,381.9c0,0,2.6-198,19-230.7s-8.4,239.5-8.4,239.5S89.2,393.3,83.5,381.9z"/>
	<linearGradient id="SVGID_20_" gradientUnits="userSpaceOnUse" x1="71.8744" y1="147.3333" x2="71.8744" y2="217.3333">
		<stop  offset="7.131410e-03" style="stop-color:#57C4A8"/>
		<stop  offset="1" style="stop-color:#228AA7"/>
	</linearGradient>
	<path fill="url(#SVGID_20_)" d="M75.1,400.1c0,0-26.8-195.4-15.5-231.1s27.2,237.4,27.2,237.4S82.5,410,75.1,400.1z"/>
	<linearGradient id="SVGID_21_" gradientUnits="userSpaceOnUse" x1="80.5004" y1="191.8546" x2="72.3922" y2="333.4349">
		<stop  offset="7.131410e-03" style="stop-color:#6FE1CF"/>
		<stop  offset="0.844" style="stop-color:#E1EDD0"/>
	</linearGradient>
	<path fill="url(#SVGID_21_)" d="M71.9,340.3c0,0-9.3-207.1,4.8-241.3S85,338.5,85,338.5S78.4,351.1,71.9,340.3z"/>
	<linearGradient id="SVGID_22_" gradientUnits="userSpaceOnUse" x1="102.8694" y1="191.1361" x2="94.9714" y2="329.0485">
		<stop  offset="7.131410e-03" style="stop-color:#6FE1CF"/>
		<stop  offset="0.844" style="stop-color:#E1EDD0"/>
	</linearGradient>
	<path fill="url(#SVGID_22_)" d="M83.4,333.1c0,0,6.5-122.6,23.5-154.8s-5,160.6-5,160.6S88.9,344.6,83.4,333.1z"/>
	<linearGradient id="SVGID_23_" gradientUnits="userSpaceOnUse" x1="65.2288" y1="188.2011" x2="57.3041" y2="326.5782">
		<stop  offset="7.131410e-03" style="stop-color:#6FE1CF"/>
		<stop  offset="0.844" style="stop-color:#E1EDD0"/>
	</linearGradient>
	<path fill="url(#SVGID_23_)" d="M61.1,329.2c0,0-23.1-88.8-11.2-103.7s22.8,107.5,22.8,107.5S68.3,334.2,61.1,329.2z"/>
	<linearGradient id="SVGID_24_" gradientUnits="userSpaceOnUse" x1="78.0059" y1="460.4893" x2="88.0059" y2="332.4893">
		<stop  offset="9.030449e-02" style="stop-color:#E780B4"/>
		<stop  offset="1" style="stop-color:#DDA09F"/>
	</linearGradient>
	<path fill="url(#SVGID_24_)" d="M105.8,309.5c0,0,27.4,100.3-4,120C69.2,449.9,37.2,411,58.8,323.2
		C58.8,323.2,88.6,343.2,105.8,309.5z"/>
	<path fill="#9172C1" d="M58.8,323.2c-0.7,2.9-1.4,5.7-1.9,8.4c10.8,6.2,30.1,11.8,52.7-6.2c-2.1-9.7-3.8-16-3.8-16
		C88.6,343.2,58.8,323.2,58.8,323.2z"/>
</g>
<linearGradient id="SVGID_25_" gradientUnits="userSpaceOnUse" x1="187.6836" y1="72.7548" x2="503.4914" y2="72.7548">
	<stop  offset="1.802885e-03" style="stop-color:#EFD8D8"/>
	<stop  offset="1" style="stop-color:#EEC7D2"/>
</linearGradient>
<path fill="url(#SVGID_25_)" d="M500.5,65.5C449,25.6,384.4,1.4,314.2,0.6C269.2,0.1,226.4,9.2,187.7,26v114.4
	c183.1-48.6,315.8,4.5,315.8,4.5L500.5,65.5z"/>
<linearGradient id="SVGID_26_" gradientUnits="userSpaceOnUse" x1="345.5875" y1="134" x2="345.5875" y2="-20">
	<stop  offset="1.802885e-03" style="stop-color:#EFDAD8"/>
	<stop  offset="1" style="stop-color:#FFD6C5"/>
</linearGradient>
<path fill="url(#SVGID_26_)" d="M500.5,65.5C449,25.6,384.4,1.4,314.2,0.6C269.2,0.1,226.4,9.2,187.7,26v114.4
	c183.1-48.6,315.8,4.5,315.8,4.5L500.5,65.5z"/>
<path fill="#8F7ECE" d="M409.8,140.2c0,0-3.2-81.2,3.4-80.5c6.7,0.7,8,85.2,8,85.2S410.3,146.1,409.8,140.2z"/>
<polyline fill="#8F7ECE" points="412.2,62 423.3,46.7 427.6,45.1 426.4,49.5 412.8,67.3 412.2,62 "/>
<circle fill="#FFFFFF" cx="232.3" cy="52" r="29"/>
<path fill="#8F7ECE" d="M413.5,59.7c0,0-21.7-19.7-26.3-19.7L412,64.5L413.5,59.7z"/>
<ellipse transform="matrix(0.8175 -0.576 0.576 0.8175 40.0927 235.0595)" fill="#FFFFFF" cx="390.9" cy="54.3" rx="3.8" ry="3.8"/>
<ellipse transform="matrix(0.8175 -0.576 0.576 0.8175 37.0143 242.0128)" fill="#FFFFFF" cx="400.3" cy="62.6" rx="3.8" ry="3.8"/>
<ellipse transform="matrix(0.8175 -0.576 0.576 0.8175 43.8532 228.558)" fill="#FFFFFF" cx="382.5" cy="45.1" rx="3.8" ry="3.8"/>
<ellipse transform="matrix(0.8175 -0.576 0.576 0.8175 51.3522 227.7723)" fill="#FFFFFF" cx="385" cy="32.9" rx="3.8" ry="3.8"/>
<ellipse transform="matrix(0.8175 -0.576 0.576 0.8175 56.1819 223.178)" fill="#FFFFFF" cx="380.2" cy="23" rx="3.8" ry="3.8"/>
<ellipse transform="matrix(0.8175 -0.576 0.576 0.8175 59.6773 228.7224)" fill="#FFFFFF" cx="390.7" cy="20.2" rx="3.8" ry="3.8"/>
<ellipse transform="matrix(0.8175 -0.576 0.576 0.8175 51.1416 236.9589)" fill="#FFFFFF" cx="399.4" cy="37.8" rx="3.8" ry="3.8"/>
<ellipse transform="matrix(0.8175 -0.576 0.576 0.8175 48.5455 243.3638)" fill="#FFFFFF" cx="408.2" cy="45.1" rx="3.8" ry="3.8"/>
<ellipse transform="matrix(0.6399 -0.7684 0.7684 0.6399 101.5208 349.4191)" fill="#FFFFFF" cx="423.6" cy="66.4" rx="3.8" ry="3.8"/>
<ellipse transform="matrix(0.6399 -0.7684 0.7684 0.6399 119.2419 352.205)" fill="#FFFFFF" cx="435.5" cy="48.9" rx="3.8" ry="3.8"/>
<ellipse transform="matrix(0.6399 -0.7684 0.7684 0.6399 126.1325 343.744)" fill="#FFFFFF" cx="429.9" cy="37.3" rx="3.8" ry="3.8"/>
<ellipse transform="matrix(0.6399 -0.7684 0.7684 0.6399 126.9191 361.0546)" fill="#FFFFFF" cx="448.7" cy="45.1" rx="5.7" ry="5.7"/>
<path fill="#FFFFFF" d="M452.8,35.1c-3.2-1.6-6.4-3.2-9.6-4.8c-0.3,1.9,0.4,3.9,2,5.2C447.4,37.4,450.7,37.1,452.8,35.1z"/>
<ellipse transform="matrix(0.6399 -0.7684 0.7684 0.6399 120.5531 335.5031)" fill="#FFFFFF" cx="418.3" cy="39.1" rx="3.8" ry="3.8"/>
<path fill="#FFFFFF" d="M438.8,29.7c0.3-0.3,0.5-0.7,0.6-1.1c-2.3-1-4.6-2.1-6.9-3c-0.8,1.5-0.5,3.5,0.9,4.7
	C435.1,31.6,437.5,31.3,438.8,29.7z"/>
<path fill="#FFFFFF" d="M410.7,29.3c2.8,2.3,6.9,1.9,9.2-0.8c1.9-2.3,2-5.6,0.3-7.9c-2.3-0.9-4.6-1.7-6.9-2.5
	c-1.3,0.3-2.4,1-3.3,2.1C407.5,22.9,407.9,27,410.7,29.3z"/>
<ellipse transform="matrix(0.6399 -0.7684 0.7684 0.6399 119.0856 328.7046)" fill="#FFFFFF" cx="410.3" cy="37.3" rx="1.8" ry="1.8"/>
<ellipse transform="matrix(0.6399 -0.7684 0.7684 0.6399 96.658 313.1736)" fill="#FFFFFF" cx="382.5" cy="53.4" rx="1.8" ry="1.8"/>
<ellipse transform="matrix(0.6399 -0.7684 0.7684 0.6399 92.5264 323.8561)" fill="#FFFFFF" cx="391.8" cy="63.2" rx="1.8" ry="1.8"/>
<ellipse transform="matrix(0.6399 -0.7684 0.7684 0.6399 132.2173 316.6428)" fill="#FFFFFF" cx="404" cy="17.2" rx="1.8" ry="1.8"/>
<ellipse transform="matrix(0.6399 -0.7684 0.7684 0.6399 91.8779 337.4232)" fill="#FFFFFF" cx="406" cy="70.7" rx="1.8" ry="1.8"/>
<ellipse transform="matrix(0.6399 -0.7684 0.7684 0.6399 119.9649 314.0323)" fill="#FFFFFF" cx="395.1" cy="29" rx="1.8" ry="1.8"/>
<ellipse transform="matrix(0.6399 -0.7684 0.7684 0.6399 128.6376 300.5412)" fill="#FFFFFF" cx="385" cy="13" rx="1.8" ry="1.8"/>
<ellipse transform="matrix(0.9834 -0.1813 0.1813 0.9834 1.4585 73.9639)" fill="#FFFFFF" cx="405.3" cy="29" rx="1.8" ry="1.8"/>
<ellipse transform="matrix(0.9834 -0.1813 0.1813 0.9834 2.3502 72.8344)" fill="#FFFFFF" cx="399.6" cy="23.6" rx="1.8" ry="1.8"/>
<path fill="#FFFFFF" d="M397.2,15.7c1-0.2,1.6-1.1,1.4-2.1c0-0.2-0.1-0.3-0.1-0.4c-0.8-0.2-1.7-0.5-2.5-0.7
	c-0.6,0.4-0.9,1.1-0.8,1.8C395.3,15.3,396.2,15.9,397.2,15.7z"/>
<ellipse transform="matrix(0.9834 -0.1813 0.1813 0.9834 1.7519 77.1742)" fill="#FFFFFF" cx="423.1" cy="29" rx="1.8" ry="1.8"/>
<ellipse transform="matrix(0.9834 -0.1813 0.1813 0.9834 0.4383 80.3865)" fill="#FFFFFF" cx="440" cy="37.8" rx="1.8" ry="1.8"/>
<ellipse transform="matrix(0.6399 -0.7684 0.7684 0.6399 114.9456 361.4028)" fill="#FFFFFF" cx="443.1" cy="58" rx="3.8" ry="3.8"/>
<ellipse transform="matrix(0.6399 -0.7684 0.7684 0.6399 106.666 358.5662)" fill="#FFFFFF" cx="436" cy="65.5" rx="3.8" ry="3.8"/>
<polygon fill="#8F7ECE" points="421.3,54.3 433.2,56.2 434.7,58.8 419.9,56.2 "/>
<line fill="none" stroke="#FFFFFF" stroke-width="3" stroke-miterlimit="10" x1="223.6" y1="315.5" x2="269.6" y2="390.9"/>
<linearGradient id="SVGID_27_" gradientUnits="userSpaceOnUse" x1="272.7654" y1="299.6771" x2="371.5356" y2="299.6771">
	<stop  offset="7.131410e-03" style="stop-color:#FFFFFF"/>
	<stop  offset="1" style="stop-color:#FFFFFF;stop-opacity:0"/>
</linearGradient>
<line fill="none" stroke="url(#SVGID_27_)" stroke-width="3" stroke-miterlimit="10" x1="274.1" y1="211" x2="370.2" y2="388.3"/>
<line fill="none" stroke="#FFFFFF" stroke-width="3" stroke-miterlimit="10" x1="378.8" y1="268.9" x2="401.4" y2="310.6"/>
<line fill="none" stroke="#FFC4D2" stroke-width="3" stroke-miterlimit="10" x1="378.8" y1="268.9" x2="397" y2="302.3"/>
<line fill="none" stroke="#FFC4D2" stroke-width="3" stroke-miterlimit="10" x1="245" y1="267.5" x2="223.6" y2="315.5"/>
<line fill="none" stroke="#FFC4D2" stroke-width="3" stroke-miterlimit="10" x1="414.6" y1="316.6" x2="400.3" y2="367.7"/>
</svg>
