<?xml version="1.0" encoding="utf-8"?>
<!-- Generator: Adobe Illustrator 21.0.0, SVG Export Plug-In . SVG Version: 6.00 Build 0)  -->
<svg version="1.1" id="Layer_1" xmlns="http://www.w3.org/2000/svg" xmlns:xlink="http://www.w3.org/1999/xlink" x="0px" y="0px"
	 viewBox="0 0 284.8 357.5" enable-background="new 0 0 284.8 357.5" xml:space="preserve">
<g>
	<g>
		<g opacity="7.000000e-02">
			<g>
				<path fill="#BA4E24" d="M277.3,326.5L209.9,283l-52.8-19l-33.1,0.2c0-0.1,0-0.1,0-0.2l-0.7,0.2l-70,0.4c0,0,4.1,6.3,11.8,14.2
					l-37,9.3l0.3-5L0,309v48.5c0-19,26.7-43.6,26.7-43.6l0,0c1.3,6,3,12.3,4.9,18.9c0,0,46.5,4.8,74.1-26.7
					c13.5,5.1,29.4,7.6,47.4,4.3c14.8-2.7,45.6-10.2,55.6-1.6c37.1,31.9,54.7,26.3,54.7,26.3C280.2,334.4,277.3,326.5,277.3,326.5z"
					/>
			</g>
		</g>
		<linearGradient id="SVGID_1_" gradientUnits="userSpaceOnUse" x1="142.3885" y1="349.1094" x2="142.3885" y2="0.1094">
			<stop  offset="7.131410e-03" style="stop-color:#A684D8"/>
			<stop  offset="1" style="stop-color:#2D4EB4"/>
		</linearGradient>
		<path fill="url(#SVGID_1_)" d="M275.8,311.5c-39.4-20.3-7.3-20.9-42.4-36.8c0,0-52.2-5-109.8-55.7c-1.1-0.9,4-14.8,2.7-15.3
			c-31.2-24.6-17.4-28.3-20.7-66.7C100.9,83,120.1,0,120.1,0H0v270v19.4V341c4.7-22.1,20.7-40.9,31.7-51.7L74,264.1
			c58.4,61.7,99.6,25.2,125.1,31.3s46.4,32.5,78.2,31.1C295,325.8,275.8,311.5,275.8,311.5z"/>
		<linearGradient id="SVGID_2_" gradientUnits="userSpaceOnUse" x1="14.4393" y1="132.1897" x2="87.1209" y2="132.1897">
			<stop  offset="7.131410e-03" style="stop-color:#401072"/>
			<stop  offset="1" style="stop-color:#1C147A"/>
		</linearGradient>
		<path opacity="0.67" fill="none" stroke="url(#SVGID_2_)" stroke-width="2" stroke-miterlimit="10" d="M20.7,81.7
			c0,0,5.5-25.6,22.3-28.7c21.6-4,43.8,10.6,43.2,52c-0.6,41.4-3,55-3,70.6S65.5,219.7,34,210C2.5,200.3,20.7,81.7,20.7,81.7z"/>
		<linearGradient id="SVGID_3_" gradientUnits="userSpaceOnUse" x1="25.7402" y1="129.0252" x2="75" y2="129.0252">
			<stop  offset="7.131410e-03" style="stop-color:#401072"/>
			<stop  offset="1" style="stop-color:#1C147A"/>
		</linearGradient>
		<path opacity="0.67" fill="none" stroke="url(#SVGID_3_)" stroke-width="2" stroke-miterlimit="10" d="M30.7,88.3
			c0,0,1.6-12.1,12.2-16.9s31.5,2.1,31.1,35.9c-0.4,33.8-2,44.9-2,57.6c0,12.7-12.6,29-33.4,21.1S30.7,88.3,30.7,88.3z"/>
		<linearGradient id="SVGID_4_" gradientUnits="userSpaceOnUse" x1="33.7402" y1="127.5463" x2="67" y2="127.5463">
			<stop  offset="7.131410e-03" style="stop-color:#401072"/>
			<stop  offset="1" style="stop-color:#1C147A"/>
		</linearGradient>
		<path opacity="0.67" fill="url(#SVGID_4_)" d="M36.5,92.6c0,0,1.1-10.4,8.6-14.5S67.3,80,67,108.9s-1.4,38.4-1.4,49.3
			c0,10.9-8.9,24.9-23.5,18.1C27.4,169.5,36.5,92.6,36.5,92.6z"/>
	</g>
</g>
<g>
	<g>
		<circle fill="#FFFEFD" cx="164.8" cy="177.7" r="6.7"/>
		<linearGradient id="SVGID_5_" gradientUnits="userSpaceOnUse" x1="28.208" y1="336.2973" x2="126.208" y2="158.2973">
			<stop  offset="0" style="stop-color:#F68989"/>
			<stop  offset="1" style="stop-color:#9A457B"/>
		</linearGradient>
		<path fill="url(#SVGID_5_)" d="M39.2,316.4c0,0,76,5.3,86-70s28-70,28-70S-10.8,149,39.2,316.4z"/>
		<linearGradient id="SVGID_6_" gradientUnits="userSpaceOnUse" x1="53.5968" y1="311.0095" x2="61.5968" y2="276.3428">
			<stop  offset="0" style="stop-color:#FFFFFF"/>
			<stop  offset="1" style="stop-color:#FFADBB"/>
		</linearGradient>
		<path opacity="0.82" fill="url(#SVGID_6_)" d="M46.5,305.7c0,0,11.5-12.2,10.5-46.7c-0.7-25.8,20.5-59.3,44.5-66
			C101.5,193,29.7,206.5,46.5,305.7z"/>
	</g>
</g>
</svg>
