<?xml version="1.0" encoding="utf-8"?>
<!-- Generator: Adobe Illustrator 21.0.0, SVG Export Plug-In . SVG Version: 6.00 Build 0)  -->
<svg version="1.1" id="Layer_1" xmlns="http://www.w3.org/2000/svg" xmlns:xlink="http://www.w3.org/1999/xlink" x="0px" y="0px"
	 viewBox="0 0 615.9 762.3" enable-background="new 0 0 615.9 762.3" xml:space="preserve">
<g>
	<linearGradient id="SVGID_1_" gradientUnits="userSpaceOnUse" x1="289.933" y1="42.6383" x2="313.9355" y2="396.6737">
		<stop  offset="7.131410e-03" style="stop-color:#AF87D8"/>
		<stop  offset="1" style="stop-color:#7A64CF"/>
	</linearGradient>
	<circle fill="url(#SVGID_1_)" cx="307.9" cy="307.9" r="307.9"/>
	<linearGradient id="SVGID_2_" gradientUnits="userSpaceOnUse" x1="481.464" y1="303.1097" x2="471.3241" y2="187.7683">
		<stop  offset="0" style="stop-color:#5C58CA"/>
		<stop  offset="0.8962" style="stop-color:#2265C8;stop-opacity:0"/>
	</linearGradient>
	<polygon fill="url(#SVGID_2_)" points="357.9,319.1 345.3,169.2 587.1,178 597.7,204.5 594.3,294.7 	"/>
	<linearGradient id="SVGID_3_" gradientUnits="userSpaceOnUse" x1="384.0418" y1="268.7235" x2="384.0418" y2="556.7523">
		<stop  offset="0" style="stop-color:#FC9CA6"/>
		<stop  offset="1" style="stop-color:#FFFFF1"/>
	</linearGradient>
	<path fill="url(#SVGID_3_)" d="M615.8,307.9c0-13.3,0-3.3,0-13.3l-170.6,0.5l-293,80.2L256,611.5c16.9,2.9,34.2,4.4,51.9,4.4
		C478,615.8,615.8,478,615.8,307.9z"/>
	<linearGradient id="SVGID_4_" gradientUnits="userSpaceOnUse" x1="380.0824" y1="263.4475" x2="392.3453" y2="485.7122">
		<stop  offset="0" style="stop-color:#CF97F8"/>
		<stop  offset="1" style="stop-color:#E6A5B3"/>
	</linearGradient>
	<path fill="url(#SVGID_4_)" d="M445.3,324.9l170.1-0.5c0.3-5.5,0.4-11,0.4-16.5c0-13.3,0.1-4.5,0-13.3l-170.6,0.5l-293,80.2
		l16.1,36.5L445.3,324.9z"/>
	<linearGradient id="SVGID_5_" gradientUnits="userSpaceOnUse" x1="475.4668" y1="287.0087" x2="478.2545" y2="372.8685">
		<stop  offset="0" style="stop-color:#AC99E0"/>
		<stop  offset="1" style="stop-color:#3A6CFA"/>
	</linearGradient>
	<polygon fill="url(#SVGID_5_)" points="393.9,419.7 359.7,351.8 357.9,319.1 472.8,289.1 594.3,294.7 595.1,325 594.5,370 
		579.8,401.4 	"/>
	<g>
		<linearGradient id="SVGID_6_" gradientUnits="userSpaceOnUse" x1="486.8917" y1="398.062" x2="486.8917" y2="430.9277">
			<stop  offset="9.030449e-02" style="stop-color:#E780B4"/>
			<stop  offset="1" style="stop-color:#DDA09F"/>
		</linearGradient>
		<polygon fill="url(#SVGID_6_)" points="395.1,385.9 393.9,419.7 443,435.2 543.5,429.3 579.8,401.4 577.3,370 538.1,396.5 
			447.3,402.6 		"/>
		<polygon fill="#9172C1" points="394.5,367.7 394.5,404.3 442.4,417 542.9,411.1 579,389 576.7,351.8 537.5,378.3 446.6,384.4 		
			"/>
		<polygon fill="#FFFFFF" points="384.4,178 388.3,298.2 389.8,384.2 447.3,402.6 538.1,396.5 583.6,370.6 575,175.7 527.5,197 
			434.4,196.2 		"/>
		<polygon fill="#FFFFFF" points="527.5,197 579.5,278.9 488.1,306.1 		"/>
		<g opacity="0.57">
			<linearGradient id="SVGID_7_" gradientUnits="userSpaceOnUse" x1="481.8024" y1="227.9407" x2="485.8964" y2="383.1042">
				<stop  offset="1.802885e-03" style="stop-color:#EFD8D8"/>
				<stop  offset="1" style="stop-color:#EEC7D2"/>
			</linearGradient>
			<polygon fill="url(#SVGID_7_)" points="434.4,196.2 488.1,306.1 527.5,197 			"/>
			<linearGradient id="SVGID_9_" gradientUnits="userSpaceOnUse" x1="410.5425" y1="229.8209" x2="414.6365" y2="384.9844">
				<stop  offset="1.802885e-03" style="stop-color:#EFD8D8"/>
				<stop  offset="1" style="stop-color:#EEC7D2"/>
			</linearGradient>
			<polygon fill="url(#SVGID_9_)" points="434.4,196.2 388.2,295.2 384.4,178 			"/>
			<linearGradient id="SVGID_10_" gradientUnits="userSpaceOnUse" x1="436.2871" y1="229.1417" x2="440.3811" y2="384.3051">
				<stop  offset="1.802885e-03" style="stop-color:#EFD8D8"/>
				<stop  offset="1" style="stop-color:#EEC7D2"/>
			</linearGradient>
			<polygon fill="url(#SVGID_10_)" points="388.2,295.2 488.1,306.1 447.3,402.6 			"/>
			<linearGradient id="SVGID_11_" gradientUnits="userSpaceOnUse" x1="532.1017" y1="226.6136" x2="536.1958" y2="381.777">
				<stop  offset="1.802885e-03" style="stop-color:#EFD8D8"/>
				<stop  offset="1" style="stop-color:#EEC7D2"/>
			</linearGradient>
			<polygon fill="url(#SVGID_11_)" points="488.1,306.1 538.1,396.5 579.5,278.9 			"/>
			<linearGradient id="SVGID_12_" gradientUnits="userSpaceOnUse" x1="553.207" y1="226.0567" x2="557.301" y2="381.2202">
				<stop  offset="1.802885e-03" style="stop-color:#EFD8D8"/>
				<stop  offset="1" style="stop-color:#EEC7D2"/>
			</linearGradient>
			<polygon fill="url(#SVGID_12_)" points="575,175.7 527.5,197 579.5,278.9 			"/>
		</g>
		<polygon fill="#FFFFFF" points="575,175.7 531.2,159.3 438.2,159.3 384.4,178 434.4,196.2 527.5,197 		"/>
	</g>
	<g>
		<defs>
			<circle id="SVGID_8_" cx="307.9" cy="307.9" r="307.9"/>
		</defs>
		<clipPath id="SVGID_13_">
			<use xlink:href="#SVGID_8_"  overflow="visible"/>
		</clipPath>
		<g clip-path="url(#SVGID_13_)">
			<linearGradient id="SVGID_14_" gradientUnits="userSpaceOnUse" x1="120.0051" y1="288.5053" x2="167.0051" y2="490.5053">
				<stop  offset="7.131410e-03" style="stop-color:#4E61D4"/>
				<stop  offset="1" style="stop-color:#182A88"/>
			</linearGradient>
			<path fill="url(#SVGID_14_)" d="M1.2,308.4l143-66.3l183.1,376.6l-176.8,90.4C150.5,709.2,0,442,1.2,308.4z"/>
			<path fill="none" stroke="#FFFFFF" stroke-width="3" stroke-miterlimit="10" d="M-18.8,305.5l167.9-78.2l193.2,390.6L136.8,721.2
				C136.8,721.2-20.1,444.1-18.8,305.5z"/>
			<linearGradient id="SVGID_15_" gradientUnits="userSpaceOnUse" x1="1.2175" y1="478.2634" x2="300.664" y2="478.2634">
				<stop  offset="0" style="stop-color:#AC99E0"/>
				<stop  offset="1" style="stop-color:#3A6CFA"/>
			</linearGradient>
			<path fill="url(#SVGID_15_)" d="M1.2,330.6l135.3-61.9l164.1,333.2l-160.5,85.8C140.2,687.7,0,455.5,1.2,330.6z"/>
			<linearGradient id="SVGID_16_" gradientUnits="userSpaceOnUse" x1="87.1919" y1="506.1715" x2="184.5933" y2="506.1715">
				<stop  offset="0.2357" style="stop-color:#CCC6F8"/>
				<stop  offset="1" style="stop-color:#D5EEF8"/>
			</linearGradient>
			<polygon opacity="0.67" fill="url(#SVGID_16_)" points="176.7,382.6 87.2,613.8 96.7,629.7 184.6,398 			"/>
			<linearGradient id="SVGID_17_" gradientUnits="userSpaceOnUse" x1="49.8906" y1="448.3032" x2="165.8667" y2="448.3032">
				<stop  offset="0.2099" style="stop-color:#CCC6F8"/>
				<stop  offset="1" style="stop-color:#D5EEF8"/>
			</linearGradient>
			<polygon opacity="0.67" fill="url(#SVGID_17_)" points="138.5,294.7 49.9,519.5 78.1,601.9 165.9,351.5 			"/>
			<linearGradient id="SVGID_18_" gradientUnits="userSpaceOnUse" x1="1.2167" y1="443.6329" x2="309.8036" y2="443.6329">
				<stop  offset="0" style="stop-color:#5C58CA"/>
				<stop  offset="0.8962" style="stop-color:#2265C8;stop-opacity:0"/>
			</linearGradient>
			<path fill="url(#SVGID_18_)" d="M132.5,280l166.2,341.9l11-1.4L193.2,382.6l-55.6-117.3L1.2,330.6c0,3.3,0,6.7,0.2,10.1
				L132.5,280z"/>
		</g>
	</g>
	<linearGradient id="SVGID_19_" gradientUnits="userSpaceOnUse" x1="131.7337" y1="539.9003" x2="285.6107" y2="539.9003">
		<stop  offset="0" style="stop-color:#5C58CA"/>
		<stop  offset="0.8962" style="stop-color:#2265C8;stop-opacity:0"/>
	</linearGradient>
	<path fill="url(#SVGID_19_)" d="M285.6,572.3L255,510.1c-7.8,4.2-23.4,8.5-50.5-0.3c-42.6-13.8-53.5-38.3-67.3-23.3
		c-13,14.2-5.3,44,52.6,59.8c19,4.5,31.4,19,31.4,19s1,1.2,2.5,3.2l-38,22.1l18.7,7.4l27.9-17.7v0c3.3,4.9,6.7,10.4,9.1,15.6
		L285.6,572.3z"/>
	<linearGradient id="SVGID_20_" gradientUnits="userSpaceOnUse" x1="220.2311" y1="551.326" x2="233.5644" y2="579.9927">
		<stop  offset="7.131410e-03" style="stop-color:#4E61D4"/>
		<stop  offset="1" style="stop-color:#182A88"/>
	</linearGradient>
	<path fill="url(#SVGID_20_)" d="M269.3,581L226.6,605l-22.3-7l57.3-36.3C261.7,561.7,269,571.3,269.3,581z"/>
	<path fill="#FFFFFF" d="M262.8,601.3l-29.7,16.6c0,0,15.1,1,37.9,15.9c0.9,0.6,10.8,10.8,11.7,11.4c4.1,2.8,8.8,2.2,12.5,5.5
		l34.1-3.6l15.9-32.2L262.8,601.3z"/>
	<path fill="#FFFFFF" d="M324.9,515.9c-12.5-43.9-14-66.4-114.1-135.5l48.6,99.9c0,0-16.9,12.9-59.5-0.9
		c-42.6-13.8-51.4-26.3-65.2-11.3c-13,14.2-10.4,41.9,48.3,52.3c0,0,22.3,8.8,31,15.3c0.4,0.3,0.8,0.6,1.2,0.9c0,0,0,0,0,0l0,0
		c14.7,11.8,31.8,29.9,32.9,50.9c0,0,2,18.5,15.8,27.3c0,0,52.7,25.1,81.5,0C345.3,614.8,337.4,559.8,324.9,515.9z"/>
	<linearGradient id="SVGID_21_" gradientUnits="userSpaceOnUse" x1="179.1787" y1="487.5589" x2="143.1787" y2="476.0589">
		<stop  offset="1.802885e-03" style="stop-color:#EFEFD8"/>
		<stop  offset="1" style="stop-color:#FFC4D2"/>
	</linearGradient>
	<path fill="url(#SVGID_21_)" d="M140.7,459.9c0,0-19.7,6.4-8.8,23.2c10.9,16.7,30.1,14.2,30.1,14.2s17.2-10.6,15.3-26.2
		C177.3,471,158.3,460.1,140.7,459.9z"/>
	<linearGradient id="SVGID_22_" gradientUnits="userSpaceOnUse" x1="226.6195" y1="624.6705" x2="295.3261" y2="624.6705">
		<stop  offset="1.802885e-03" style="stop-color:#EFEFD8"/>
		<stop  offset="1" style="stop-color:#FFC4D2"/>
	</linearGradient>
	<path fill="url(#SVGID_22_)" d="M255.3,606.5l-6.3-14.3L226.6,605c0,0,6.5,19.7,16.4,28.8c2.9,2.7,24.9,20.6,32.7,22.8
		c12.8,3.5,13.4-9.2,19.6-5.9C264.2,632.2,255.3,606.5,255.3,606.5z"/>
	<linearGradient id="SVGID_23_" gradientUnits="userSpaceOnUse" x1="234.9786" y1="455.2038" x2="261.6766" y2="455.2038">
		<stop  offset="1.802885e-03" style="stop-color:#EFEFD8"/>
		<stop  offset="1" style="stop-color:#FFC4D2"/>
	</linearGradient>
	<path fill="url(#SVGID_23_)" d="M259.4,480.3c0,0,13.4-20.3-24.4-50.2L259.4,480.3z"/>
	<linearGradient id="SVGID_24_" gradientUnits="userSpaceOnUse" x1="15.3457" y1="312.8568" x2="62.3457" y2="514.8568">
		<stop  offset="7.131410e-03" style="stop-color:#6B80D4"/>
		<stop  offset="1" style="stop-color:#454DCF"/>
	</linearGradient>
	<path fill="url(#SVGID_24_)" d="M86.4,521.8L1.2,330.6l8.3,53.5C24.5,442.9,43.2,482,86.4,521.8z"/>
	
		<linearGradient id="SVGID_25_" gradientUnits="userSpaceOnUse" x1="357.4742" y1="-320.5713" x2="400.8087" y2="-221.8648" gradientTransform="matrix(0.9064 -0.4223 0.4223 0.9064 81.4725 1083.2407)">
		<stop  offset="0" style="stop-color:#FF82B4"/>
		<stop  offset="0.9201" style="stop-color:#DD9F9F;stop-opacity:0"/>
	</linearGradient>
	<path fill="url(#SVGID_25_)" d="M275.1,664.3c0,0,33.2,84.3,39,96.8c5.8,12.5,98-70.8,98-70.8l-46.9-46l-34,25L275.1,664.3z"/>
	<linearGradient id="SVGID_26_" gradientUnits="userSpaceOnUse" x1="261.6766" y1="644.2215" x2="366.503" y2="644.2215">
		<stop  offset="9.030449e-02" style="stop-color:#E780B4"/>
		<stop  offset="1" style="stop-color:#DDA09F"/>
	</linearGradient>
	<path fill="url(#SVGID_26_)" d="M345.4,607.7c0,0-8.1,35.7-50.1,43l-33.6-2.6c0,0,3.1,9,10.4,26.6c0,0,67.4,27.2,94.4-33.4
		C366.5,641.3,360.7,618.3,345.4,607.7z"/>
	<linearGradient id="SVGID_27_" gradientUnits="userSpaceOnUse" x1="103.8186" y1="252.6202" x2="255.8186" y2="160.6202">
		<stop  offset="0" style="stop-color:#FC9CA6"/>
		<stop  offset="1" style="stop-color:#FFFFF1"/>
	</linearGradient>
	<path fill="url(#SVGID_27_)" d="M165.9,195.3c0,0,25,5.5,28.1,33l13.9-8.4c0,0,2.7-31.1-33.5-40.3L165.9,195.3z"/>
	<linearGradient id="SVGID_28_" gradientUnits="userSpaceOnUse" x1="97.4995" y1="242.18" x2="249.4995" y2="150.18">
		<stop  offset="0" style="stop-color:#FC9CA6"/>
		<stop  offset="1" style="stop-color:#FFFFF1"/>
	</linearGradient>
	<path fill="url(#SVGID_28_)" d="M183.3,157.4c0,0,45,2.9,44.5,51.6l20.2-6.5c0,0,9.3-59.8-60.1-66.5L183.3,157.4z"/>
	<linearGradient id="SVGID_29_" gradientUnits="userSpaceOnUse" x1="92.6107" y1="234.1028" x2="244.6107" y2="142.1028">
		<stop  offset="0" style="stop-color:#FC9CA6"/>
		<stop  offset="1" style="stop-color:#FFFFF1"/>
	</linearGradient>
	<path fill="url(#SVGID_29_)" d="M194,108.8c0,0,84.6,3.5,75.6,91.9l23.3-1.6c0,0,22.4-108.3-96.5-114.1L194,108.8z"/>
</g>
</svg>
