<?xml version="1.0" encoding="utf-8"?>
<!-- Generator: Adobe Illustrator 21.0.0, SVG Export Plug-In . SVG Version: 6.00 Build 0)  -->
<svg version="1.1" id="Layer_1" xmlns="http://www.w3.org/2000/svg" xmlns:xlink="http://www.w3.org/1999/xlink" x="0px" y="0px"
	 viewBox="0 0 620.3 620" enable-background="new 0 0 620.3 620" xml:space="preserve">
<g>
	<linearGradient id="SVGID_1_" gradientUnits="userSpaceOnUse" x1="350.571" y1="300.8781" x2="604.0583" y2="243.8809">
		<stop  offset="7.131410e-03" style="stop-color:#AF87D8"/>
		<stop  offset="1" style="stop-color:#7A64CF"/>
	</linearGradient>
	<circle fill="url(#SVGID_1_)" cx="310" cy="310" r="310"/>
	<linearGradient id="SVGID_2_" gradientUnits="userSpaceOnUse" x1="318.2476" y1="458.5769" x2="600.4978" y2="466.1035">
		<stop  offset="1.802885e-03" style="stop-color:#EFD8D8"/>
		<stop  offset="1" style="stop-color:#EEC7D2"/>
	</linearGradient>
	<path opacity="0.25" fill="url(#SVGID_2_)" d="M620,313.5c0.1-8.6,0.7-0.2,0.1-8.6c-9.4,2.4-108.6,24.1-209.1,40.7
		c-72.2,12-115.3,4.8-115.3,4.8l-68.4,258.4l25.7,5.9c17.4,3.2,35.2,5,53.5,5.2C477.7,621.9,618,484.7,620,313.5z"/>
	<linearGradient id="SVGID_3_" gradientUnits="userSpaceOnUse" x1="638.8038" y1="444.2897" x2="274.8038" y2="484.2897">
		<stop  offset="0" style="stop-color:#CF97F8"/>
		<stop  offset="1" style="stop-color:#E6A5B3"/>
	</linearGradient>
	<path fill="url(#SVGID_3_)" d="M620,313.5c0.1-8.6,0.7-0.2,0.1-8.6c-9.4,2.4-108.6,24.1-209.1,40.7c-72.2,12-115.3,4.8-115.3,4.8
		l-68.4,258.4l25.7,5.9c17.4,3.2,35.2,5,53.5,5.2C477.7,621.9,618,484.7,620,313.5z"/>
	<linearGradient id="SVGID_4_" gradientUnits="userSpaceOnUse" x1="56.6754" y1="279.8963" x2="254.6754" y2="301.8963">
		<stop  offset="7.131410e-03" style="stop-color:#7C87D8;stop-opacity:0"/>
		<stop  offset="1" style="stop-color:#6269CF"/>
	</linearGradient>
	<path fill="url(#SVGID_4_)" d="M0,306.6c0,2.5,0,4.9,0,7.4c0,0.8,0,1.6,0,2.4c0,1.7,0.1,3.3,0.1,5c0,0.9,0.1,1.8,0.1,2.8
		c0.1,1.6,0.2,3.1,0.2,4.7c0.1,0.9,0.1,1.9,0.2,2.8c0.1,1.6,0.2,3.2,0.4,4.8c0.1,0.8,0.1,1.7,0.2,2.5c0.2,2,0.4,4,0.6,6
		c0,0.4,0.1,0.8,0.1,1.3c0.3,2.4,0.6,4.8,0.9,7.1c0.1,0.7,0.2,1.5,0.3,2.2c0.2,1.7,0.5,3.3,0.8,4.9c0.1,0.9,0.3,1.8,0.5,2.7
		c0.3,1.5,0.5,3,0.8,4.4c0.2,0.9,0.4,1.9,0.5,2.8c0.3,1.5,0.6,3,0.9,4.4c0.2,0.9,0.4,1.8,0.6,2.6c0.4,1.7,0.8,3.3,1.2,5
		c0.2,0.7,0.3,1.3,0.5,2c0.6,2.3,1.1,4.5,1.7,6.8c0.2,0.7,0.4,1.4,0.6,2.1c0.4,1.6,0.9,3.2,1.3,4.7c0.3,0.9,0.5,1.8,0.8,2.7
		c0.4,1.4,0.8,2.7,1.3,4.1c0.3,0.9,0.6,1.9,0.9,2.8c0.4,1.3,0.9,2.6,1.3,3.9c0.3,0.9,0.6,1.9,1,2.8c0.5,1.4,1,2.7,1.5,4.1
		c0.3,0.8,0.6,1.7,0.9,2.5c0.8,2.1,1.6,4.2,2.5,6.3c0.3,0.7,0.6,1.4,0.9,2.1c0.6,1.4,1.2,2.8,1.8,4.3c0.4,0.9,0.8,1.9,1.2,2.8
		c0.5,1.2,1.1,2.4,1.6,3.5c0.5,1,0.9,2,1.4,2.9c0.5,1.1,1.1,2.2,1.6,3.3c0.5,1,1,2,1.5,3c0.6,1.1,1.1,2.2,1.7,3.3
		c0.5,1,1,1.9,1.5,2.9c0.7,1.3,1.4,2.5,2,3.8c0.8,1.5,1.7,3,2.5,4.5c0.6,1.1,1.3,2.3,2,3.4c0.6,1,1.2,2,1.8,3c0.6,1,1.2,1.9,1.7,2.9
		c0.6,1,1.3,2.1,1.9,3.1c0.6,0.9,1.2,1.8,1.7,2.7c0.7,1,1.3,2.1,2,3.1c0.6,0.9,1.2,1.7,1.7,2.6c0.7,1,1.4,2.1,2.1,3.1
		c0.5,0.8,1.1,1.5,1.6,2.3c1.6,2.2,3.2,4.5,4.9,6.7c0.4,0.5,0.8,1,1.1,1.5c0.8,1.1,1.7,2.2,2.6,3.3c0.5,0.7,1.1,1.4,1.6,2.1
		c0.9,1.1,1.7,2.1,2.6,3.2c0.6,0.7,1.1,1.4,1.7,2c0.9,1.1,1.8,2.1,2.7,3.2c0.5,0.6,1.1,1.3,1.6,1.9c0.9,1.1,1.9,2.2,2.9,3.2
		c0.4,0.5,0.9,1,1.3,1.4c3.5,3.9,7.2,7.7,10.9,11.4c0.4,0.4,0.8,0.8,1.2,1.2c1.1,1.1,2.2,2.2,3.4,3.2c0.5,0.5,1,0.9,1.5,1.4
		c1.1,1.1,2.3,2.1,3.4,3.2c0.5,0.4,1,0.9,1.4,1.3c1.2,1.1,2.4,2.1,3.6,3.2c0.3,0.3,0.7,0.6,1,0.9c4.4,3.8,8.9,7.5,13.5,11.1
		c0.1,0.1,0.2,0.1,0.3,0.2c1.4,1.1,2.8,2.1,4.2,3.2c0.4,0.3,0.8,0.6,1.1,0.9c1.4,1,2.7,2,4.1,3c0.4,0.3,0.8,0.6,1.2,0.9
		c1.4,1,2.8,2,4.3,3c0.3,0.2,0.5,0.4,0.8,0.6c6.6,4.4,13.3,8.6,20.2,12.6c0.2,0.1,0.5,0.3,0.7,0.4c1.6,0.9,3.2,1.8,4.8,2.6
		c0.3,0.2,0.7,0.4,1,0.6c1.6,0.9,3.2,1.7,4.8,2.6c0.2,0.1,0.5,0.2,0.7,0.4c7.2,3.7,14.7,7.2,22.2,10.3c0.1,0,0.2,0.1,0.3,0.1
		c1.8,0.7,3.5,1.4,5.3,2.1c0.3,0.1,0.6,0.2,0.9,0.4c1.7,0.7,3.5,1.3,5.2,2c0.3,0.1,0.5,0.2,0.8,0.3c7.8,2.9,15.8,5.4,23.9,7.7
		L385.9,9.4c-23.2-5.8-47.5-9.1-72.4-9.4c0,0,0,0,0,0c-18.4-0.2-36.4,1.2-53.9,4.1c-0.8,0.1-1.6,0.3-2.4,0.4
		c-22.5,3.9-44.1,10.1-64.6,18.5c-18.6,7.6-36.4,17-53,28C56.5,105.8,1.2,199.5,0,306.6C0,306.5,0,306.5,0,306.6z"/>
	<linearGradient id="SVGID_5_" gradientUnits="userSpaceOnUse" x1="-37.5186" y1="388.5756" x2="218.4814" y2="466.5756">
		<stop  offset="0" style="stop-color:#E6A5B3"/>
		<stop  offset="1" style="stop-color:#AA97F8"/>
	</linearGradient>
	<path opacity="0.42" fill="url(#SVGID_5_)" d="M227.3,608.8l45.1-170.2l23.3-88.2c0,0-36.9,0.7-99.4-23.7
		C134.5,302.7,40.4,279.3,1,284.9c-0.6,7.1-0.9,14.3-1,21.6C-1.6,450.3,94.9,572.3,227.3,608.8z"/>
	
		<linearGradient id="SVGID_6_" gradientUnits="userSpaceOnUse" x1="111.2504" y1="643.0657" x2="7.7084" y2="634.6613" gradientTransform="matrix(0.9862 0.1654 -0.1654 0.9862 176.7367 -223.8113)">
		<stop  offset="7.131410e-03" style="stop-color:#363FD4"/>
		<stop  offset="1" style="stop-color:#244DCF"/>
	</linearGradient>
	<path fill="url(#SVGID_6_)" d="M192,428.1c-0.8,4.9-21.1,5.5-45.3,1.4c-24.2-4.1-43.2-11.3-42.4-16.1c0.8-4.9,21.1-5.5,45.3-1.4
		C173.8,416,192.8,423.2,192,428.1z"/>
	
		<linearGradient id="SVGID_7_" gradientUnits="userSpaceOnUse" x1="98.7209" y1="307.9861" x2="98.1591" y2="464.7138" gradientTransform="matrix(0.9969 7.805426e-02 -7.805426e-02 0.9969 94.7439 -108.4201)">
		<stop  offset="7.131410e-03" style="stop-color:#363FD4"/>
		<stop  offset="1" style="stop-color:#244DCF"/>
	</linearGradient>
	<path opacity="0.64" fill="url(#SVGID_7_)" d="M244.5,292.5c-3.7,46.7-43.3,81.7-88.5,78.2c-45.2-3.5-78.9-44.3-75.3-91
		c3.7-46.7,43.3-81.7,88.5-78.2C214.4,205,248.1,245.8,244.5,292.5z"/>
	<linearGradient id="SVGID_8_" gradientUnits="userSpaceOnUse" x1="49.0521" y1="221.6779" x2="88.2116" y2="221.6779">
		<stop  offset="7.131410e-03" style="stop-color:#363FD4"/>
		<stop  offset="1" style="stop-color:#244DCF"/>
	</linearGradient>
	
		<ellipse transform="matrix(0.9961 -8.793449e-02 8.793449e-02 0.9961 -19.2273 6.8938)" opacity="0.64" fill="none" stroke="url(#SVGID_8_)" stroke-width="2" stroke-miterlimit="10" cx="68.6" cy="221.7" rx="18.6" ry="21.3"/>
	
		<linearGradient id="SVGID_9_" gradientUnits="userSpaceOnUse" x1="121.7253" y1="90.7727" x2="121.6142" y2="121.7636" gradientTransform="matrix(0.9961 -8.793449e-02 8.793449e-02 0.9961 -61.7755 127.3646)">
		<stop  offset="7.131410e-03" style="stop-color:#363FD4"/>
		<stop  offset="1" style="stop-color:#244DCF"/>
	</linearGradient>
	<path opacity="0.64" fill="url(#SVGID_9_)" d="M84.1,221.5c0.8,9.2-5.4,17.3-13.8,18.1s-15.9-6.1-16.7-15.4
		c-0.8-9.2,5.4-17.3,13.8-18.1C75.8,205.4,83.2,212.3,84.1,221.5z"/>
	
		<linearGradient id="SVGID_10_" gradientUnits="userSpaceOnUse" x1="156.201" y1="61.0493" x2="156.133" y2="80.0219" gradientTransform="matrix(0.9961 -8.793449e-02 8.793449e-02 0.9961 -61.7755 127.3646)">
		<stop  offset="7.131410e-03" style="stop-color:#363FD4"/>
		<stop  offset="1" style="stop-color:#244DCF"/>
	</linearGradient>
	<path opacity="0.64" fill="url(#SVGID_10_)" d="M108.3,183.4c0.5,5.6-2.8,10.6-7.4,11s-8.7-3.8-9.2-9.5c-0.5-5.6,2.8-10.6,7.4-11
		C103.7,173.5,107.8,177.7,108.3,183.4z"/>
	
		<linearGradient id="SVGID_11_" gradientUnits="userSpaceOnUse" x1="145.0808" y1="70.7342" x2="168.0962" y2="70.7342" gradientTransform="matrix(0.9961 -8.793449e-02 8.793449e-02 0.9961 -61.7755 127.3646)">
		<stop  offset="7.131410e-03" style="stop-color:#363FD4"/>
		<stop  offset="1" style="stop-color:#244DCF"/>
	</linearGradient>
	
		<ellipse transform="matrix(0.9961 -8.793449e-02 8.793449e-02 0.9961 -15.7958 9.5439)" opacity="0.64" fill="none" stroke="url(#SVGID_11_)" stroke-miterlimit="10" cx="100.4" cy="184.1" rx="11" ry="13.8"/>
	<linearGradient id="SVGID_12_" gradientUnits="userSpaceOnUse" x1="173.1672" y1="360.8471" x2="168.5005" y2="232.8471">
		<stop  offset="9.030449e-02" style="stop-color:#E780B4"/>
		<stop  offset="1" style="stop-color:#DDA09F"/>
	</linearGradient>
	<path fill="url(#SVGID_12_)" d="M239.9,309c-3.3,41.6-36.7,72.9-74.8,70c-38-3-66.2-39.1-63-80.7s36.7-72.9,74.8-70
		C215,231.3,243.2,267.4,239.9,309z"/>
	
		<linearGradient id="SVGID_13_" gradientUnits="userSpaceOnUse" x1="108.268" y1="431.9186" x2="108.268" y2="468.0945" gradientTransform="matrix(0.9969 7.805426e-02 -7.805426e-02 0.9969 94.7439 -108.4201)">
		<stop  offset="7.131410e-03" style="stop-color:#7C87D8;stop-opacity:0"/>
		<stop  offset="1" style="stop-color:#6269CF"/>
	</linearGradient>
	<path opacity="0.57" fill="url(#SVGID_13_)" d="M236.7,278.9c0.7,5,0.9,10.2,0.5,15.5c-1.5,19-17.1,30.2-28.1,43.8
		c-12.1,14.9-25.8,21.3-44.3,19.9c-15.2-1.2-27-10.9-35.9-24.8c-10-15.4-25.4-22.7-25.8-42.4c-0.4,2.4-0.7,4.9-0.9,7.4
		c-3.3,41.6,24.9,77.8,63,80.7c38,3,71.5-28.3,74.8-70C240.8,298.5,239.6,288.3,236.7,278.9z"/>
	
		<linearGradient id="SVGID_14_" gradientUnits="userSpaceOnUse" x1="145.1091" y1="346.9559" x2="155.9801" y2="363.8621" gradientTransform="matrix(0.9969 7.805426e-02 -7.805426e-02 0.9969 94.7439 -108.4201)">
		<stop  offset="0" style="stop-color:#6269CF"/>
		<stop  offset="0.9982" style="stop-color:#7C87D8;stop-opacity:0"/>
	</linearGradient>
	<path fill="url(#SVGID_14_)" d="M230.5,272.2c0.6-0.5,1.4-2.2,2.1-3.9c-2.6-5.5-5.8-10.6-9.6-15.3c-3.4-2.6-7-4.9-10.7-7.6
		c-1.3,0.1-2.5,0.6-3.5,1.4c-4.1,3.5-2.5,12,3.5,19C218.3,272.8,226.4,275.7,230.5,272.2z"/>
	
		<ellipse transform="matrix(7.805426e-02 -0.9969 0.9969 7.805426e-02 -144.3484 449.9965)" fill="#FFFFFF" cx="171.1" cy="303" rx="55.3" ry="49.9"/>
	<path fill="#EFD8D8" d="M177.7,248.1c23.7,3.6,40.5,26,38.5,52.2c-2.1,27-23.8,47.4-48.4,45.5s-42.9-25.4-40.8-52.5
		c2.1-26.2,21.9-46.6,46.1-45.6c-26.5-1.1-49.4,21.8-51.7,51.4c-2.4,30.5,17.9,56.9,45.4,59c27.4,2.1,51.6-20.8,54-51.3
		C223.1,277.3,206.5,252.5,177.7,248.1z"/>
	<linearGradient id="SVGID_15_" gradientUnits="userSpaceOnUse" x1="230.507" y1="257.6632" x2="211.257" y2="245.6632">
		<stop  offset="9.030449e-02" style="stop-color:#E780B4"/>
		<stop  offset="1" style="stop-color:#DDA09F"/>
	</linearGradient>
	<path fill="url(#SVGID_15_)" d="M207,249l9.5-11.6c0,0,12.3,4.3,17.3,13.7l-10.5,14.5C223.2,265.6,210.2,258.7,207,249z"/>
	
		<linearGradient id="SVGID_16_" gradientUnits="userSpaceOnUse" x1="103.0284" y1="391.9645" x2="127.2124" y2="391.9645" gradientTransform="matrix(0.9969 7.805426e-02 -7.805426e-02 0.9969 94.7439 -108.4201)">
		<stop  offset="9.030449e-02" style="stop-color:#CD8CB4"/>
		<stop  offset="0.9201" style="stop-color:#DD9F9F"/>
	</linearGradient>
	<polyline fill="none" stroke="url(#SVGID_16_)" stroke-width="4" stroke-linecap="round" stroke-miterlimit="10" points="
		170.3,272.2 167.5,307.4 188.6,297 	"/>
	
		<linearGradient id="SVGID_17_" gradientUnits="userSpaceOnUse" x1="99.9915" y1="408.8973" x2="110.0653" y2="408.8973" gradientTransform="matrix(0.9969 7.805426e-02 -7.805426e-02 0.9969 94.7439 -108.4201)">
		<stop  offset="9.030449e-02" style="stop-color:#CD8CB4"/>
		<stop  offset="0.9201" style="stop-color:#DD9F9F"/>
	</linearGradient>
	
		<ellipse transform="matrix(7.805426e-02 -0.9969 0.9969 7.805426e-02 -152.0309 450.4561)" fill="#FFFFFF" stroke="url(#SVGID_17_)" stroke-width="2" stroke-linecap="round" stroke-miterlimit="10" cx="167.5" cy="307.4" rx="4" ry="4"/>
	
		<linearGradient id="SVGID_18_" gradientUnits="userSpaceOnUse" x1="106.8018" y1="346.8349" x2="106.8018" y2="333.7776" gradientTransform="matrix(0.9969 7.805426e-02 -7.805426e-02 0.9969 94.7439 -108.4201)">
		<stop  offset="7.131410e-03" style="stop-color:#7C87D8;stop-opacity:0"/>
		<stop  offset="1" style="stop-color:#6269CF"/>
	</linearGradient>
	<path fill="url(#SVGID_18_)" d="M190.9,239.4c-0.4,4.9-8,9-16.9,8.4c-8.9-0.7-15.8-6-15.4-10.9c0.4-4.9,7.9-8.3,16.8-7.6
		C184.3,230,191.3,234.5,190.9,239.4z"/>
	
		<linearGradient id="SVGID_19_" gradientUnits="userSpaceOnUse" x1="109.9067" y1="333.9716" x2="101.7692" y2="320.0556" gradientTransform="matrix(0.9969 7.805426e-02 -7.805426e-02 0.9969 94.7439 -108.4201)">
		<stop  offset="9.030449e-02" style="stop-color:#E780B4"/>
		<stop  offset="1" style="stop-color:#DDA09F"/>
	</linearGradient>
	<path fill="url(#SVGID_19_)" d="M159.7,234.3l6.2-20.6c0,0,14.5-2.1,22.9,1.8l1.3,21.2C190.1,236.7,177.9,243.6,159.7,234.3z"/>
	<path fill="none" stroke="#FFFFFF" stroke-width="3" stroke-miterlimit="10" d="M157.1,221.7L157.1,221.7
		c-33.3,8.4-57.5,37.8-60.5,76.8c-3.6,45.4,26.9,84.8,68,88c41.1,3.2,77.3-31,80.9-76.4c1.6-20.1-1.6-35.9-11.3-51l6.9-10.5
		c-7.4-12.2-23.4-18.8-23.4-18.8l-4.5,6.2c-7.2-5.8-9.9-7.9-18.8-11.9l0,0"/>
	<path fill="none" stroke="#EFD8D8" stroke-width="3" stroke-linecap="round" stroke-miterlimit="10" d="M168,220.2
		c-7.3-3.8-12-11.6-11.3-20.3c0.9-11.6,11-20.2,22.6-19.3s20.2,11,19.3,22.6c-0.6,8.1-5.8,14.8-12.8,17.8"/>
	
		<linearGradient id="SVGID_20_" gradientUnits="userSpaceOnUse" x1="463.374" y1="294.5471" x2="620.3631" y2="294.5471" gradientTransform="matrix(1.0563 -3.853086e-02 3.813826e-02 1.0456 -111.4549 44.0379)">
		<stop  offset="7.131410e-03" style="stop-color:#515ED4"/>
		<stop  offset="1" style="stop-color:#454DCF"/>
	</linearGradient>
	<path opacity="0.64" fill="url(#SVGID_20_)" d="M551.1,396.9l-152.9,5.6c-3.6,0.1-6.6-2.7-6.7-6.2L387,272.1
		c-0.1-3.6,2.7-6.6,6.2-6.7l152.9-5.6c3.6-0.1,6.6,2.7,6.7,6.2l4.5,124.2C557.5,393.7,554.7,396.7,551.1,396.9z"/>
	<g>
		<linearGradient id="SVGID_21_" gradientUnits="userSpaceOnUse" x1="472.7044" y1="229.2207" x2="521.6732" y2="229.2207">
			<stop  offset="7.131410e-03" style="stop-color:#515ED4"/>
			<stop  offset="1" style="stop-color:#454DCF"/>
		</linearGradient>
		<path opacity="0.64" fill="none" stroke="url(#SVGID_21_)" stroke-width="2" stroke-miterlimit="10" d="M514.2,253.8h-34.1
			c-3.6,0-6.5-2.9-6.5-6.5v-36.2c0-3.6,2.9-6.5,6.5-6.5h34.1c3.6,0,6.5,2.9,6.5,6.5v36.2C520.7,250.9,517.8,253.8,514.2,253.8z"/>
		<linearGradient id="SVGID_22_" gradientUnits="userSpaceOnUse" x1="475.9858" y1="230.3161" x2="518.3917" y2="230.3161">
			<stop  offset="7.131410e-03" style="stop-color:#515ED4"/>
			<stop  offset="1" style="stop-color:#454DCF"/>
		</linearGradient>
		<path opacity="0.64" fill="url(#SVGID_22_)" d="M511.9,251.5h-29.5c-3.6,0-6.5-2.9-6.5-6.5v-29.5c0-3.6,2.9-6.5,6.5-6.5h29.5
			c3.6,0,6.5,2.9,6.5,6.5v29.5C518.4,248.6,515.5,251.5,511.9,251.5z"/>
	</g>
	<linearGradient id="SVGID_23_" gradientUnits="userSpaceOnUse" x1="439.6528" y1="194.011" x2="460.8558" y2="194.011">
		<stop  offset="7.131410e-03" style="stop-color:#515ED4"/>
		<stop  offset="1" style="stop-color:#454DCF"/>
	</linearGradient>
	<path opacity="0.46" fill="url(#SVGID_23_)" d="M457.9,204.6h-15.3c-1.6,0-2.9-1.3-2.9-2.9v-15.3c0-1.6,1.3-2.9,2.9-2.9h15.3
		c1.6,0,2.9,1.3,2.9,2.9v15.3C460.9,203.3,459.5,204.6,457.9,204.6z"/>
	<linearGradient id="SVGID_24_" gradientUnits="userSpaceOnUse" x1="436.0376" y1="192.7247" x2="465.668" y2="192.7247">
		<stop  offset="7.131410e-03" style="stop-color:#515ED4"/>
		<stop  offset="1" style="stop-color:#454DCF"/>
	</linearGradient>
	<path opacity="0.46" fill="none" stroke="url(#SVGID_24_)" stroke-miterlimit="10" d="M462.2,207h-22.8c-1.6,0-2.9-1.3-2.9-2.9
		v-22.8c0-1.6,1.3-2.9,2.9-2.9h22.8c1.6,0,2.9,1.3,2.9,2.9v22.8C465.2,205.7,463.9,207,462.2,207z"/>
	<g>
		<g>
			
				<linearGradient id="SVGID_25_" gradientUnits="userSpaceOnUse" x1="991.8131" y1="388.9986" x2="889.793" y2="380.7178" gradientTransform="matrix(1.7002 -8.701206e-02 5.110927e-02 0.9987 -1199.637 142.3053)">
				<stop  offset="7.131410e-03" style="stop-color:#515ED4"/>
				<stop  offset="1" style="stop-color:#454DCF"/>
			</linearGradient>
			<path opacity="0.55" fill="url(#SVGID_25_)" d="M525.9,440.9c0.2,4.8-32.9,10.5-74,12.6c-41.1,2.1-74.7-0.1-74.9-5
				c-0.2-4.8,32.9-10.5,74-12.6C492.1,433.8,525.6,436,525.9,440.9z"/>
			<path fill="#EFD8D8" d="M378.9,318.2l-11,90.6c-0.1,0.6,0.3,1.2,0.9,1.3l19.6,5.7L378.9,318.2z"/>
			<path fill="#FFFFFF" d="M378.2,289.5l2.8,130.7c0,2,1.8,3.6,3.8,3.5l152.4-8.9c2-0.1,3.5-1.8,3.4-3.8l-8.3-130.5
				c-0.1-2-1.8-3.5-3.8-3.4l-146.9,8.7C379.7,286,378.2,287.6,378.2,289.5z"/>
			<path fill="#EFD8D8" d="M379.4,325.3l155.3-6.6l-2.4-38.2c-0.1-2-1.8-3.5-3.8-3.4l-146.9,8.7c-1.9,0.1-3.4,1.7-3.4,3.7l0.8,35.8
				C379.1,325.3,379.3,325.3,379.4,325.3z"/>
			
				<linearGradient id="SVGID_26_" gradientUnits="userSpaceOnUse" x1="394.8605" y1="433.0183" x2="417.4381" y2="470.6476" gradientTransform="matrix(0.9931 0.1174 -0.1174 0.9931 106.1978 -195.3112)">
				<stop  offset="9.030449e-02" style="stop-color:#E780B4"/>
				<stop  offset="1" style="stop-color:#DDA09F"/>
			</linearGradient>
			<path fill="url(#SVGID_26_)" d="M532.3,280.5c-0.1-2-1.8-3.5-3.8-3.4l-146.9,8.7c-1.9,0.1-3.4,1.7-3.4,3.7l0.6,28.7l155.3-7.9
				L532.3,280.5z"/>
			
				<linearGradient id="SVGID_27_" gradientUnits="userSpaceOnUse" x1="571.3478" y1="83.2775" x2="528.0783" y2="130.803" gradientTransform="matrix(0.9838 -0.1792 0.1792 0.9838 -120.916 319.9409)">
				<stop  offset="7.131410e-03" style="stop-color:#7C87D8;stop-opacity:0"/>
				<stop  offset="1" style="stop-color:#6269CF"/>
			</linearGradient>
			<path fill="url(#SVGID_27_)" d="M383.4,310.3l-0.5-24.5l-1.2,0.1c-1.9,0.1-3.4,1.7-3.4,3.7l0.6,28.7l155.3-7.9l-0.5-7.6
				L383.4,310.3z"/>
			<path fill="#EFD8D8" d="M378.9,318.2l-21.6,72.3c-0.2,0.7,0.1,1.5,0.8,1.8l14.2,6.7L378.9,318.2z"/>
		</g>
		
			<linearGradient id="SVGID_28_" gradientUnits="userSpaceOnUse" x1="431.4268" y1="332.7347" x2="463.835" y2="340.5411" gradientTransform="matrix(0.9997 -2.420625e-02 2.420625e-02 0.9997 -19.4678 41.6363)">
			<stop  offset="9.030449e-02" style="stop-color:#CD8CB4"/>
			<stop  offset="0.9201" style="stop-color:#DD9F9F"/>
		</linearGradient>
		<polygon fill="url(#SVGID_28_)" points="421.4,368.5 435.2,342.6 445,342.3 446,385.1 453.7,384.9 452.7,392.8 432,393.4 
			431,385.9 437.8,385.5 437,353.9 429.6,368.1 		"/>
		
			<linearGradient id="SVGID_29_" gradientUnits="userSpaceOnUse" x1="477.1111" y1="336.0583" x2="498.6696" y2="336.6331" gradientTransform="matrix(0.9997 -2.420625e-02 2.420625e-02 0.9997 -19.4678 41.6363)">
			<stop  offset="9.030449e-02" style="stop-color:#CD8CB4"/>
			<stop  offset="0.9201" style="stop-color:#DD9F9F"/>
		</linearGradient>
		<path fill="url(#SVGID_29_)" d="M485.8,348.6c-19.3-7.9-19.6,17.3-19.6,17.3c11.4-6,19.2,1.1,20.6,4.2c2.5,5.4,4.4,23.3-14.3,22.2
			c-19.6-1.2-15.1-42.4-4-49.9c7.8-5.4,16.5-1.1,16.5-1.1L485.8,348.6z M475,369.4c-4.4,0.1-7.9,4.1-7.8,8.8
			c0.1,4.8,3.8,8.6,8.2,8.4c4.4-0.1,7.9-4.1,7.8-8.8S479.4,369.3,475,369.4z"/>
	</g>
	<path fill="none" stroke="#FFFFFF" stroke-width="3" stroke-miterlimit="10" d="M537,273.7l-158.1,5.5c-2.1,0.1-3.7,1.8-3.7,3.8
		l-0.1,30.8l0,0l-25.1,77.2c-0.2,0.8,0.1,1.6,0.8,1.9l11.9,6l-1.8,12c-0.1,0.6,0.3,1.2,0.9,1.4l13,4.1l0,7.1c0,2.2,1.8,3.9,4,3.9
		l164-5.6c2.1-0.1,3.8-1.9,3.7-4L541,277.4C540.9,275.3,539.1,273.6,537,273.7z"/>
</g>
</svg>
