<?xml version="1.0" encoding="utf-8"?>
<!-- Generator: Adobe Illustrator 21.0.0, SVG Export Plug-In . SVG Version: 6.00 Build 0)  -->
<svg version="1.1" id="Layer_1" xmlns="http://www.w3.org/2000/svg" xmlns:xlink="http://www.w3.org/1999/xlink" x="0px" y="0px"
	 viewBox="0 0 752.5 387" style="enable-background:new 0 0 752.5 387;" xml:space="preserve">
<style type="text/css">
	.st0{fill:url(#SVGID_1_);}
	.st1{fill:url(#SVGID_2_);}
	.st2{opacity:0.78;fill:url(#SVGID_3_);}
	.st3{fill:url(#SVGID_4_);}
	.st4{fill:url(#SVGID_5_);}
	.st5{fill:url(#SVGID_6_);}
	.st6{fill:url(#SVGID_7_);}
	.st7{fill:url(#SVGID_8_);}
	.st8{fill:url(#SVGID_9_);}
	.st9{fill:url(#SVGID_10_);}
	.st10{fill:url(#SVGID_11_);}
	.st11{fill:url(#SVGID_12_);}
	.st12{fill:url(#SVGID_13_);}
	.st13{fill:url(#SVGID_14_);}
	.st14{fill:url(#SVGID_15_);}
	.st15{fill:url(#SVGID_16_);}
	.st16{fill:url(#SVGID_17_);}
	.st17{fill:url(#SVGID_18_);}
	.st18{fill:url(#SVGID_19_);}
	.st19{fill:url(#SVGID_20_);}
	.st20{fill:url(#SVGID_21_);}
	.st21{fill:url(#SVGID_22_);}
	.st22{opacity:0.43;fill:url(#SVGID_23_);}
	.st23{opacity:0.53;fill:none;stroke:url(#SVGID_24_);stroke-miterlimit:10;}
	.st24{opacity:0.72;fill:url(#SVGID_25_);}
	.st25{opacity:0.72;fill:url(#SVGID_26_);}
	.st26{opacity:0.72;fill:url(#SVGID_27_);}
</style>
<g>
	<linearGradient id="SVGID_1_" gradientUnits="userSpaceOnUse" x1="376.3728" y1="89.6998" x2="376.3728" y2="517.6954">
		<stop  offset="0" style="stop-color:#7ED1D6"/>
		<stop  offset="1" style="stop-color:#F8F3F0"/>
	</linearGradient>
	<rect x="0.2" y="0" class="st0" width="752.3" height="387"/>
	<linearGradient id="SVGID_2_" gradientUnits="userSpaceOnUse" x1="495.0219" y1="386.6313" x2="495.0219" y2="33.6598">
		<stop  offset="0" style="stop-color:#AC99E0"/>
		<stop  offset="3.114984e-02" style="stop-color:#9B7FD5"/>
		<stop  offset="1" style="stop-color:#3351B6"/>
	</linearGradient>
	<path class="st1" d="M505.8,173.6l-53.2,79.8l-46.5,57.8l-20.6-15.5h-43l-8.6,17.2c0,0-13.8,3.4-29.3,7.2
		c-15.5,3.8-67.1,51.3-67.1,51.3l515-31.1V0H520.9L505.8,173.6z"/>
	<linearGradient id="SVGID_3_" gradientUnits="userSpaceOnUse" x1="611.5823" y1="21.392" x2="622.115" y2="317.8127">
		<stop  offset="0" style="stop-color:#FC9CA6"/>
		<stop  offset="0.6546" style="stop-color:#FFFFF1"/>
		<stop  offset="1" style="stop-color:#FFFFF1;stop-opacity:0"/>
	</linearGradient>
	<path class="st2" d="M750.8,0h-9.5c0,0-6,52.3-6,115.1s-19.8,59.3-19.8,59.3c-9.5,3.5-15.5-8.7-11.2-62.9s-6.9-75.7-16.1-74.9
		c-9.2,0.9-2,21.5-0.3,44.7c1.7,23.2-5.2,39.6-12,49.5c-6.9,9.9-8.6,74.4-23.6,75.3c-15,0.9-17.8-16-17.8-16v3.5
		c-5.1-48.6-16.5-100.6-17.7-130.3c-1.2-28.7,4.6-41.9-8-46.5c-12.6-4.6-7.2,29.3-7.2,29.3L593.3,251l-10.1,16.6
		c0,0-43.7,39.6-34.3-136.5c1.5-28.7,10.2-47.3-8.9-49.6c-18.2-2.2-8.3,32.4-10.2,49.6s-46.9,206-46.9,206L647.5,309
		c0,0-0.4-3.4-1.1-9.5l104.4-35.5V0z"/>
	<linearGradient id="SVGID_4_" gradientUnits="userSpaceOnUse" x1="310.4502" y1="316.9608" x2="727.1149" y2="329.8307">
		<stop  offset="0" style="stop-color:#E8667C"/>
		<stop  offset="1" style="stop-color:#FE967D"/>
	</linearGradient>
	<path class="st3" d="M0.2,387h752.3V251c0,0-222,68.8-296,68c-62.4-0.7-211.7,45.6-368.3,62.3C58.9,384.4,29.5,386.4,0.2,387z"/>
	<linearGradient id="SVGID_5_" gradientUnits="userSpaceOnUse" x1="732.8061" y1="208.9593" x2="-94.4037" y2="294.3714">
		<stop  offset="0" style="stop-color:#E8667C"/>
		<stop  offset="1" style="stop-color:#FE967D"/>
	</linearGradient>
	<path class="st4" d="M752.5,26.9L475.7,168.3c0,0-145.6,108.5-332.4,138.3c-42.2,6.7-100.1,11.2-143.1,20.2V387h752.3V139.5"/>
	<linearGradient id="SVGID_6_" gradientUnits="userSpaceOnUse" x1="421.6623" y1="232.1005" x2="421.6623" y2="411.916">
		<stop  offset="0" style="stop-color:#FC9CA6"/>
		<stop  offset="1" style="stop-color:#FFFFF1"/>
	</linearGradient>
	<path class="st5" d="M398.9,387c0,0,6.9-12.9,0-33.6c-6.9-20.6-18.1-67.1-6-60.2c12,6.9,13.8,49,23.2,65.4
		c9.5,16.3,11.2,18.1,17.2,17.2c6-0.9-5.2-45.6-5.2-59.4c0-13.8,12-71.4,18.1-61.9c6,9.5,10.3,22.4,9.5,36.1
		c-0.9,13.8-11.2,23.2-9.5,43c1.7,19.8,9.6,53.3,9.6,53.3H398.9z"/>
	<linearGradient id="SVGID_7_" gradientUnits="userSpaceOnUse" x1="658.4807" y1="232.1005" x2="658.4807" y2="411.916">
		<stop  offset="0" style="stop-color:#FC9CA6"/>
		<stop  offset="1" style="stop-color:#FFFFF1"/>
	</linearGradient>
	<path class="st6" d="M635.7,387c0,0,6.9-12.9,0-33.6c-6.9-20.6-18.1-67.1-6-60.2c12,6.9,13.8,49,23.2,65.4
		c9.5,16.3,11.2,18.1,17.2,17.2s-5.2-45.6-5.2-59.4c0-13.8,12-71.4,18.1-61.9c6,9.5,10.3,22.4,9.5,36.1c-0.9,13.8-11.2,23.2-9.5,43
		c1.7,19.8,9.6,53.3,9.6,53.3H635.7z"/>
	<linearGradient id="SVGID_8_" gradientUnits="userSpaceOnUse" x1="549.5846" y1="83.9238" x2="560.8915" y2="402.1313">
		<stop  offset="0" style="stop-color:#FC9CA6"/>
		<stop  offset="1" style="stop-color:#FFFFF1"/>
	</linearGradient>
	<path class="st7" d="M501.3,387c0,0,11.5-32.8,6.9-52.5c-4.6-19.7-1.3-63.8,1.1-73.2c2.4-9.4,16.1-32.8,18.4-23.5
		c2.3,9.4,2.3,30,0,43.2c-2.3,13.1,1.4,41.8,8.9,38.1c7.5-3.8,5.8,3,17.5-19.3c0,0-3.8-25.7,8.6-41.3c9.2-11.5,2.2-67,1-88.6
		s9.2-68.6,9.8-87.3c0.6-18.8,11.5-20.6,11.5-8.4s-7.8,99.6-3.3,118.3c4.6,18.8,14.9,123.9,13.6,146.5c-2.9,50.9,24.1,48,24.1,48
		H501.3z"/>
	<g>
		<linearGradient id="SVGID_9_" gradientUnits="userSpaceOnUse" x1="713.5934" y1="145.6228" x2="722.576" y2="398.4171">
			<stop  offset="0" style="stop-color:#FC9CA6"/>
			<stop  offset="1" style="stop-color:#FFFFF1"/>
		</linearGradient>
		<path class="st8" d="M752.5,131.2c0,0-12.6,152.6-21.8,162.9c-9.2,10.3-1.1-110.1-10.3-130.8c-9.2-20.6-13.4,82.7-11.5,112.4
			c3.5,55-0.5,82.9-5.7,97c-0.4,0.9-5.6,13.4-16.9,10.9c-2-0.4-3.9,1.2-3.5,3.3l0,0.2h22.9l0,0h46.8V131.2z"/>
		<linearGradient id="SVGID_10_" gradientUnits="userSpaceOnUse" x1="675.2976" y1="378.5462" x2="675.298" y2="378.5573">
			<stop  offset="0" style="stop-color:#FC9CA6"/>
			<stop  offset="1" style="stop-color:#FFFFF1"/>
		</linearGradient>
		<path class="st9" d="M675.3,378.6C675.3,378.5,675.3,378.5,675.3,378.6L675.3,378.6z"/>
		<linearGradient id="SVGID_11_" gradientUnits="userSpaceOnUse" x1="679.2894" y1="380.49" x2="679.2968" y2="380.6978">
			<stop  offset="0" style="stop-color:#FC9CA6"/>
			<stop  offset="1" style="stop-color:#FFFFF1"/>
		</linearGradient>
		<path class="st10" d="M679.5,380.7c-0.1-0.1-0.3-0.1-0.4-0.2C679.2,380.6,679.3,380.6,679.5,380.7z"/>
		<linearGradient id="SVGID_12_" gradientUnits="userSpaceOnUse" x1="681.803" y1="381.8272" x2="681.8058" y2="381.9058">
			<stop  offset="0" style="stop-color:#FC9CA6"/>
			<stop  offset="1" style="stop-color:#FFFFF1"/>
		</linearGradient>
		<path class="st11" d="M681.9,381.9c-0.1,0-0.1,0-0.1-0.1C681.8,381.9,681.9,381.9,681.9,381.9z"/>
		<linearGradient id="SVGID_13_" gradientUnits="userSpaceOnUse" x1="678.9183" y1="380.3086" x2="678.9251" y2="380.5">
			<stop  offset="0" style="stop-color:#FC9CA6"/>
			<stop  offset="1" style="stop-color:#FFFFF1"/>
		</linearGradient>
		<path class="st12" d="M679.1,380.5c-0.1-0.1-0.2-0.1-0.4-0.2C678.9,380.4,679,380.4,679.1,380.5z"/>
		<linearGradient id="SVGID_14_" gradientUnits="userSpaceOnUse" x1="681.7186" y1="381.8133" x2="681.7191" y2="381.8266">
			<stop  offset="0" style="stop-color:#FC9CA6"/>
			<stop  offset="1" style="stop-color:#FFFFF1"/>
		</linearGradient>
		<path class="st13" d="M681.7,381.8C681.7,381.8,681.7,381.8,681.7,381.8C681.7,381.8,681.7,381.8,681.7,381.8z"/>
		<linearGradient id="SVGID_15_" gradientUnits="userSpaceOnUse" x1="680.577" y1="380.7057" x2="680.6194" y2="381.9008">
			<stop  offset="0" style="stop-color:#FC9CA6"/>
			<stop  offset="1" style="stop-color:#FFFFF1"/>
		</linearGradient>
		<path class="st14" d="M681.7,381.8c-0.8-0.4-1.6-0.8-2.2-1.1C680.5,381.2,681.4,381.6,681.7,381.8z"/>
		<linearGradient id="SVGID_16_" gradientUnits="userSpaceOnUse" x1="675.6797" y1="378.6585" x2="675.6867" y2="378.8539">
			<stop  offset="0" style="stop-color:#FC9CA6"/>
			<stop  offset="1" style="stop-color:#FFFFF1"/>
		</linearGradient>
		<path class="st15" d="M675.9,378.8c-0.2-0.1-0.3-0.1-0.4-0.2C675.6,378.7,675.7,378.8,675.9,378.8z"/>
		<linearGradient id="SVGID_17_" gradientUnits="userSpaceOnUse" x1="678.0256" y1="379.6012" x2="678.0526" y2="380.3607">
			<stop  offset="0" style="stop-color:#FC9CA6"/>
			<stop  offset="1" style="stop-color:#FFFFF1"/>
		</linearGradient>
		<path class="st16" d="M678.7,380.3c-0.5-0.2-1-0.5-1.4-0.7C677.7,379.8,678.2,380,678.7,380.3z"/>
		<linearGradient id="SVGID_18_" gradientUnits="userSpaceOnUse" x1="675.403" y1="378.5584" x2="675.4067" y2="378.6624">
			<stop  offset="0" style="stop-color:#FC9CA6"/>
			<stop  offset="1" style="stop-color:#FFFFF1"/>
		</linearGradient>
		<path class="st17" d="M675.5,378.7c-0.1-0.1-0.2-0.1-0.2-0.1C675.3,378.6,675.4,378.6,675.5,378.7z"/>
		<linearGradient id="SVGID_19_" gradientUnits="userSpaceOnUse" x1="676.6667" y1="378.9343" x2="676.6917" y2="379.6382">
			<stop  offset="0" style="stop-color:#FC9CA6"/>
			<stop  offset="1" style="stop-color:#FFFFF1"/>
		</linearGradient>
		<path class="st18" d="M677.3,379.6c-0.6-0.3-1-0.5-1.3-0.7C676.4,379.1,676.8,379.3,677.3,379.6z"/>
		<linearGradient id="SVGID_20_" gradientUnits="userSpaceOnUse" x1="675.9427" y1="378.8412" x2="675.9457" y2="378.927">
			<stop  offset="0" style="stop-color:#FC9CA6"/>
			<stop  offset="1" style="stop-color:#FFFFF1"/>
		</linearGradient>
		<path class="st19" d="M676,378.9c-0.1,0-0.1-0.1-0.2-0.1C675.9,378.9,676,378.9,676,378.9z"/>
	</g>
	<g>
		<g>
			<linearGradient id="SVGID_21_" gradientUnits="userSpaceOnUse" x1="380.1665" y1="129.878" x2="669.3886" y2="111.726">
				<stop  offset="7.131410e-03" style="stop-color:#4E61D4"/>
				<stop  offset="1" style="stop-color:#18135D"/>
			</linearGradient>
			<path class="st20" d="M426.9,108.6c0,0,17-14.8,32.9-11.3c9.4,2,6.2,11.3,14.8,11.3c8.5,0,5.7-26.7,11.3-29.5s19.9-13.6,37.4-7.9
				c17.6,5.7,27.8-5.7,36.3-5.7s11.3,2.3,20.4-4c9.1-6.2,4.6,21.4-12.4,30.5c-17,9.1-21.6,17.8-17.1,24.6
				c4.5,6.8,9.8,37.6-18.7,52.8c-34,18.2-44.9,4.4-77.2,9.5c-32.3,5.1,1.7-36.2,1.7-36.2L426.9,108.6z"/>
			<linearGradient id="SVGID_22_" gradientUnits="userSpaceOnUse" x1="278.3776" y1="145.6552" x2="685.186" y2="120.1233">
				<stop  offset="7.131410e-03" style="stop-color:#C38DE6"/>
				<stop  offset="1" style="stop-color:#2C3DCF"/>
			</linearGradient>
			<path class="st21" d="M354.7,159.3c0,0-9.8,14.4-6.1,15.1c3.8,0.8,10.6,4.5,10.6,4.5l-4,8.1l9.3,1.7c0,0,56.7,12.1,111.2-20.4
				c0,0,59-13.3,59-30.1s-25.5-30.4-8.2-38c17.3-7.6,47.5-16.6,40-23.5c-7.6-6.8-10.6,9.1-20.4,9.1c-9.8,0-46.9,5.3-40.9,24.2
				c6.1,18.9-17.4,23.2-34,22.9c0,0-32.4-61.4-91.5-27.5C379.6,105.5,344.1,126.6,354.7,159.3z"/>
			<linearGradient id="SVGID_23_" gradientUnits="userSpaceOnUse" x1="379.6086" y1="117.5442" x2="423.174" y2="93.4925">
				<stop  offset="0" style="stop-color:#FC9CA6"/>
				<stop  offset="0.6546" style="stop-color:#FFFFF1"/>
				<stop  offset="1" style="stop-color:#FFFFF1;stop-opacity:0"/>
			</linearGradient>
			<path class="st22" d="M388,109.1c0,0-11.3,3-10,9c1,4.5,12.7-0.5,13.9-5C392.8,109.8,391.4,109.1,388,109.1z"/>
			<linearGradient id="SVGID_24_" gradientUnits="userSpaceOnUse" x1="377.4512" y1="163.6373" x2="392.0591" y2="163.6373">
				<stop  offset="0" style="stop-color:#FFFEFD"/>
				<stop  offset="1" style="stop-color:#F1D2D5"/>
			</linearGradient>
			<path class="st23" d="M378,159.2c0,0-0.4,9.1,7.9,8.3c0,0,4.2-0.5,5.7-5.8"/>
		</g>
		<linearGradient id="SVGID_25_" gradientUnits="userSpaceOnUse" x1="296.3039" y1="99.2107" x2="369.655" y2="94.6071">
			<stop  offset="0" style="stop-color:#B8F4D6"/>
			<stop  offset="1" style="stop-color:#BEF3F0"/>
		</linearGradient>
		<path class="st24" d="M331.1,75.1c0,0-18.9-3.8-21.7,13.3c-2.8,17.1-0.2,36,24.5,30.6C358.6,113.6,350.2,78.6,331.1,75.1z"/>
		<linearGradient id="SVGID_26_" gradientUnits="userSpaceOnUse" x1="345.5808" y1="70.6196" x2="379.3254" y2="68.5018">
			<stop  offset="0" style="stop-color:#B8F4D6"/>
			<stop  offset="1" style="stop-color:#BEF3F0"/>
		</linearGradient>
		<path class="st25" d="M361.6,60.1c0,0-8.7-1.6-10,5.8c-1.3,7.4-0.1,15.6,11.3,13.3C374.3,76.8,370.4,61.7,361.6,60.1z"/>
		<linearGradient id="SVGID_27_" gradientUnits="userSpaceOnUse" x1="327.6096" y1="31.7155" x2="342.8947" y2="30.7562">
			<stop  offset="0" style="stop-color:#B8F4D6"/>
			<stop  offset="1" style="stop-color:#BEF3F0"/>
		</linearGradient>
		<path class="st26" d="M334.9,27c0,0-3.9-0.7-4.5,2.6s0,7.1,5.1,6C340.6,34.5,338.8,27.7,334.9,27z"/>
	</g>
</g>
</svg>
