<?xml version="1.0" encoding="UTF-8"?>
<svg width="46px" height="34px" viewBox="0 0 46 34" version="1.1" xmlns="http://www.w3.org/2000/svg" xmlns:xlink="http://www.w3.org/1999/xlink">
    <!-- Generator: Sketch 41.2 (35397) - http://www.bohemiancoding.com/sketch -->
    <title>Page 1</title>
    <desc>Created with Sketch.</desc>
    <defs></defs>
    <g id="Page-1" stroke="none" stroke-width="1" fill="none" fill-rule="evenodd">
        <g id="Evenement-retourAntoine-Copy" transform="translate(-43.000000, -972.000000)">
            <g id="Group-2-Copy" transform="translate(-3.000000, 726.000000)">
                <g id="Group-4" transform="translate(47.000000, 247.000000)">
                    <g id="Page-1">
                        <path d="M29.8741826,31.5151515 L1.16035652,31.5151515 C0.778704348,31.5151515 0.46113913,31.1990303 0.479313043,30.8198788 C0.84566087,22.9401212 7.4380087,17.750303 15.5177478,17.750303 C23.5965304,17.750303 30.1888783,22.9401212 30.5561826,30.8198788 C30.5734,31.1990303 30.2558348,31.5151515 29.8741826,31.5151515 Z" id="Stroke-1" stroke="#EA8087" stroke-width="2.88" stroke-linecap="round"></path>
                        <path d="M24.5826087,9.88092121 C24.5826087,14.8603152 20.524087,18.8961939 15.5176522,18.8961939 C10.5112174,18.8961939 6.45269565,14.8603152 6.45269565,9.88092121 C6.45269565,4.90152727 10.5112174,0.865648485 15.5176522,0.865648485 C20.524087,0.865648485 24.5826087,4.90152727 24.5826087,9.88092121" id="Fill-3" fill="#FFFFFF"></path>
                        <path d="M24.5826087,9.88092121 C24.5826087,14.8603152 20.524087,18.8961939 15.5176522,18.8961939 C10.5112174,18.8961939 6.45269565,14.8603152 6.45269565,9.88092121 C6.45269565,4.90152727 10.5112174,0.865648485 15.5176522,0.865648485 C20.524087,0.865648485 24.5826087,4.90152727 24.5826087,9.88092121 Z" id="Stroke-5" stroke="#EA8087" stroke-width="2.88" stroke-linecap="round"></path>
                        <g id="Group-10" transform="translate(37.304348, 0.000000)">
                            <path d="M0.0660956522,0.484848485 L0.0660956522,12.7195152" id="Fill-7" fill="#FFFFFF"></path>
                            <path d="M0.0660956522,0.484848485 L0.0660956522,12.7195152" id="Stroke-9" stroke="#EA8087" stroke-width="2.88" stroke-linecap="round"></path>
                        </g>
                        <g id="Group-14" transform="translate(30.608696, 4.818182)">
                            <path d="M12.9130435,1.78419394 L0.61026087,1.78419394" id="Fill-11" fill="#FFFFFF"></path>
                            <path d="M12.9130435,1.78419394 L0.61026087,1.78419394" id="Stroke-13" stroke="#EA8087" stroke-width="2.88" stroke-linecap="round"></path>
                        </g>
                    </g>
                </g>
            </g>
        </g>
    </g>
</svg>