<?xml version="1.0" encoding="UTF-8"?>
<svg width="35px" height="44px" viewBox="0 0 35 44" version="1.1" xmlns="http://www.w3.org/2000/svg" xmlns:xlink="http://www.w3.org/1999/xlink">
    <!-- Generator: Sketch 41.2 (35397) - http://www.bohemiancoding.com/sketch -->
    <title>icon/choisir-une-annonce-de-fin</title>
    <desc>Created with Sketch.</desc>
    <defs></defs>
    <g id="Page-1" stroke="none" stroke-width="1" fill="none" fill-rule="evenodd">
        <g id="Evenement-retourAntoine-Copy" transform="translate(-48.000000, -725.000000)">
            <g id="Group-2-Copy" transform="translate(-3.000000, 726.000000)">
                <g id="Group-7" transform="translate(52.000000, 0.000000)">
                    <g id="icon/choisir-une-annonce-de-fin">
                        <path d="M12.2585,37.1463 C12.2585,39.4893 14.1575,41.3883 16.5005,41.3883 C18.8425,41.3883 20.7415,39.4893 20.7415,37.1463 L20.7415,33.7583 L12.2585,33.7583 L12.2585,37.1463 Z" id="Fill-1" fill="#FFFFFF"></path>
                        <path d="M12.2585,37.1463 C12.2585,39.4893 14.1575,41.3883 16.5005,41.3883 C18.8425,41.3883 20.7415,39.4893 20.7415,37.1463 L20.7415,33.7583 L12.2585,33.7583 L12.2585,37.1463 Z" id="Stroke-3" stroke="#EA8087" stroke-width="3" stroke-linecap="round"></path>
                        <path d="M13.9954,3.0046 C13.9954,1.6216 15.1164,0.4996 16.5004,0.4996 C17.8834,0.4996 19.0044,1.6216 19.0044,3.0046 L19.0044,5.0046 L13.9954,5.0046 L13.9954,3.0046 Z" id="Fill-5" fill="#FFFFFF"></path>
                        <path d="M13.9954,3.0046 C13.9954,1.6216 15.1164,0.4996 16.5004,0.4996 C17.8834,0.4996 19.0044,1.6216 19.0044,3.0046 L19.0044,5.0046 L13.9954,5.0046 L13.9954,3.0046 Z" id="Stroke-7" stroke="#EA8087" stroke-width="3" stroke-linecap="round"></path>
                        <path d="M29.6701,16.4501 C29.6701,9.0571 24.8211,3.5611 17.3861,3.2131 C9.4481,2.8421 3.7651,8.2601 3.7651,16.0621 C3.7651,16.0621 2.3811,29.6171 1.0121,31.7841 C0.5981,32.4401 0.4061,33.2481 0.5451,34.1111 C0.8101,35.7671 2.3391,36.9351 4.0281,36.9351 L28.9521,36.9351 C30.7241,36.9351 32.3071,35.6531 32.4831,33.9011 C32.5501,33.2311 32.4181,32.5971 32.1401,32.0501 C31.1961,30.1921 29.6701,16.4501 29.6701,16.4501" id="Fill-9" fill="#FFF4EB"></path>
                        <path d="M29.6701,16.4501 C29.6701,9.0571 24.8211,3.5611 17.3861,3.2131 C9.4481,2.8421 3.7651,8.2601 3.7651,16.0621 C3.7651,16.0621 2.3811,29.6171 1.0121,31.7841 C0.5981,32.4401 0.4061,33.2481 0.5451,34.1111 C0.8101,35.7671 2.3391,36.9351 4.0281,36.9351 L28.9521,36.9351 C30.7241,36.9351 32.3071,35.6531 32.4831,33.9011 C32.5501,33.2311 32.4181,32.5971 32.1401,32.0501 C31.1961,30.1921 29.6701,16.4501 29.6701,16.4501 Z" id="Stroke-11" stroke="#EA8087" stroke-width="3" stroke-linecap="round"></path>
                    </g>
                </g>
            </g>
        </g>
    </g>
</svg>