<?xml version="1.0" encoding="UTF-8"?>
<svg width="39px" height="39px" viewBox="0 0 39 39" version="1.1" xmlns="http://www.w3.org/2000/svg" xmlns:xlink="http://www.w3.org/1999/xlink">
    <!-- Generator: Sketch 41.2 (35397) - http://www.bohemiancoding.com/sketch -->
    <title>Page 1</title>
    <desc>Created with Sketch.</desc>
    <defs></defs>
    <g id="Page-1" stroke="none" stroke-width="1" fill="none" fill-rule="evenodd">
        <g id="Tableau-de-bord-Copy-9" transform="translate(-57.000000, -318.000000)" stroke="#EA8087" stroke-width="3">
            <g id="Page-1" transform="translate(58.000000, 319.000000)">
                <path d="M33.2216348,36.0266261 L3.53572174,36.0266261 C2.08711304,36.0266261 0.9132,34.852713 0.9132,33.4041043 L0.9132,6.5801913 C0.9132,5.13158261 2.08711304,3.95766957 3.53572174,3.95766957 L33.2216348,3.95766957 C34.6702435,3.95766957 35.8441565,5.13158261 35.8441565,6.5801913 L35.8441565,33.4041043 C35.8441565,34.852713 34.6702435,36.0266261 33.2216348,36.0266261 Z" id="Stroke-1"></path>
                <path d="M11.4147913,0.565217391 L11.4147913,7.34965217" id="Stroke-3" stroke-linecap="round"></path>
                <path d="M25.2479478,0.565217391 L25.2479478,7.34965217" id="Stroke-5" stroke-linecap="round"></path>
                <path d="M24.7589739,35.9675391 L35.7256696,24.691713 C35.7796696,24.6369304 35.7374087,24.5484957 35.6575826,24.5484957 L24.690887,24.5484957 C24.6400174,24.5484957 24.5985391,24.5868435 24.5985391,24.6345826 L24.5985391,35.9096261 C24.5985391,35.9886696 24.7026261,36.0254522 24.7589739,35.9675391 Z" id="Stroke-7" stroke-linecap="round"></path>
                <path d="M0.913043478,12.2200609 L35.750087,12.2200609" id="Stroke-9" stroke-linecap="round"></path>
            </g>
        </g>
    </g>
</svg>