<?xml version="1.0" encoding="UTF-8"?>
<svg width="43px" height="45px" viewBox="0 0 43 45" version="1.1" xmlns="http://www.w3.org/2000/svg" xmlns:xlink="http://www.w3.org/1999/xlink">
    <!-- Generator: Sketch 41.2 (35397) - http://www.bohemiancoding.com/sketch -->
    <title>Page 1</title>
    <desc>Created with Sketch.</desc>
    <defs></defs>
    <g id="Page-1" stroke="none" stroke-width="1" fill="none" fill-rule="evenodd" stroke-linecap="round">
        <g id="Tableau-de-bord-Copy-9" transform="translate(-441.000000, -313.000000)" stroke="#DF7886" stroke-width="3">
            <g id="Page-1" transform="translate(443.000000, 315.000000)">
                <path d="M25.037627,23.7122822 C25.037627,25.5058832 23.5976244,26.9596751 21.8210359,26.9596751 C20.0444473,26.9596751 18.6044447,25.5058832 18.6044447,23.7122822 C18.6044447,21.9186811 20.0444473,20.4648892 21.8210359,20.4648892 C23.5976244,20.4648892 25.037627,21.9186811 25.037627,23.7122822 Z" id="Stroke-1"></path>
                <path d="M27.3457838,14.8835558 L24.1857781,20.3195163" id="Stroke-3"></path>
                <path d="M10.8467554,9.1488364 C13.8106632,6.9080663 17.4916454,5.58133341 21.4799452,5.58133341 C31.2877677,5.58133341 39.2390015,13.6087076 39.2390015,23.5104491 C39.2390015,33.4121905 31.2877677,41.4395647 21.4799452,41.4395647 C11.6721227,41.4395647 3.72088894,33.4121905 3.72088894,23.5104491 C3.72088894,22.0497625 3.89357218,20.6304439 4.22040204,19.2721925" id="Stroke-5"></path>
                <path d="M0,19.5880733 L4.65074006,16.8479316 C5.00878949,16.6361665 5.46927812,16.7583008 5.67903459,17.1207638 L8.39318581,21.816039" id="Stroke-7"></path>
                <path d="M25.854725,0 L17.6742225,0" id="Stroke-9"></path>
            </g>
        </g>
    </g>
</svg>