<?xml version="1.0" encoding="UTF-8"?>
<svg width="63px" height="62px" viewBox="0 0 63 62" version="1.1" xmlns="http://www.w3.org/2000/svg" xmlns:xlink="http://www.w3.org/1999/xlink">
    <!-- Generator: Sketch 41.2 (35397) - http://www.bohemiancoding.com/sketch -->
    <title>Page 1</title>
    <desc>Created with Sketch.</desc>
    <defs>
        <polygon id="path-1" points="61.9409537 61.9407849 61.9409537 0.000337451738 0.000337451737 0.000337451738 0.000337451737 61.9407849"></polygon>
    </defs>
    <g id="Page-1" stroke="none" stroke-width="1" fill="none" fill-rule="evenodd" opacity="0.900000036">
        <g id="Nouvel-evenement-Copy-7" transform="translate(-564.000000, -531.000000)">
            <g id="Group-9" transform="translate(42.000000, 512.000000)">
                <g id="Group-6" transform="translate(409.574563, 0.000000)">
                    <g id="Page-1" transform="translate(113.095238, 19.000000)">
                        <mask id="mask-2" fill="white">
                            <use xlink:href="#path-1"></use>
                        </mask>
                        <g id="Clip-2"></g>
                        <path d="M61.9412911,58.5223988 C61.9412911,60.4104413 60.4109475,61.9407849 58.522905,61.9407849 L42.7386,61.9407849 L42.7386,37.9547154 L50.7901985,37.9547154 L51.9949012,28.6056151 L42.7386,28.6056151 L42.7386,22.6377811 C42.7386,19.9314181 43.4894301,18.0872444 47.3718124,18.0872444 L52.3222293,18.0855571 L52.3222293,9.72350309 C51.4651019,9.61045676 48.5275846,9.35568069 45.1075112,9.35568069 C37.9704069,9.35568069 33.0841058,13.7121826 33.0841058,21.7114761 L33.0841058,28.6056151 L25.0122602,28.6056151 L25.0122602,37.9547154 L33.0841058,37.9547154 L33.0841058,61.9407849 L3.41872355,61.9407849 C1.53068108,61.9407849 0.000337451737,60.4104413 0.000337451737,58.5223988 L0.000337451737,3.41821737 C0.000337451737,1.5301749 1.53068108,-0.00016872587 3.41872355,-0.00016872587 L58.522905,-0.00016872587 C60.4109475,-0.00016872587 61.9412911,1.5301749 61.9412911,3.41821737 L61.9412911,58.5223988 Z" id="Fill-1" fill="#43619C" mask="url(#mask-2)"></path>
                    </g>
                </g>
            </g>
        </g>
    </g>
</svg>