<?xml version="1.0" encoding="UTF-8"?>
<svg width="68px" height="81px" viewBox="0 0 68 81" version="1.1" xmlns="http://www.w3.org/2000/svg" xmlns:xlink="http://www.w3.org/1999/xlink">
    <!-- Generator: Sketch 41.2 (35397) - http://www.bohemiancoding.com/sketch -->
    <title>Page 1</title>
    <desc>Created with Sketch.</desc>
    <defs></defs>
    <g id="Page-1" stroke="none" stroke-width="1" fill="none" fill-rule="evenodd" stroke-linecap="round">
        <g id="Menu-Copy-2" transform="translate(-528.000000, -597.000000)" stroke="#FFFFFF" stroke-width="3">
            <g id="Group-5" transform="translate(449.000000, 599.000000)">
                <g id="Page-1" transform="translate(81.000000, 0.000000)">
                    <path d="M35.1127864,28.7034852 L16.1405831,25.8382176 C15.6209898,25.7601331 15.2635661,25.2753585 15.3422102,24.7558796 L17.5437017,10.1811894 C17.6223458,9.66171056 18.1072271,9.30382324 18.6268203,9.38245 L37.5990237,12.2477176 C38.1186169,12.3258021 38.4760407,12.8105768 38.397939,13.3300556 L36.1959051,27.9047458 C36.117261,28.4242246 35.6323797,28.782112 35.1127864,28.7034852 Z" id="Stroke-1"></path>
                    <path d="M51.3953627,76.8330401 L1.33326102,68.6569415 C0.643362712,68.5441528 0.175294915,67.8934486 0.288108475,67.2031599 L11.0509559,1.33291338 C11.1632271,0.643166901 11.8140746,0.175202113 12.5045153,0.287990845 L62.5666169,8.46408944 C63.2565153,8.57687817 63.7245831,9.22758239 63.6117695,9.91732887 L52.848922,75.7875754 C52.7366508,76.4778641 52.0858034,76.9458289 51.3953627,76.8330401 Z" id="Stroke-3"></path>
                    <path d="M13.4381017,36.3122782 L49.3610847,42.1794613" id="Stroke-5"></path>
                    <path d="M12.1125966,44.424662 L48.0355797,50.2918451" id="Stroke-7"></path>
                    <path d="M10.7870915,52.5371 L28.7483119,55.4706915" id="Stroke-9"></path>
                </g>
            </g>
        </g>
    </g>
</svg>