<?xml version="1.0" encoding="UTF-8"?>
<svg width="68px" height="66px" viewBox="0 0 68 66" version="1.1" xmlns="http://www.w3.org/2000/svg" xmlns:xlink="http://www.w3.org/1999/xlink">
    <!-- Generator: Sketch 41.2 (35397) - http://www.bohemiancoding.com/sketch -->
    <title>Page 1</title>
    <desc>Created with Sketch.</desc>
    <defs></defs>
    <g id="Page-1" stroke="none" stroke-width="1" fill="none" fill-rule="evenodd">
        <g id="Menu-Copy-2" transform="translate(-528.000000, -209.000000)">
            <g id="Group-3" transform="translate(461.000000, 211.000000)">
                <g id="Page-1" transform="translate(69.000000, 0.000000)">
                    <path d="M62.5221732,62.3444215 L1.70351496,62.3444215 C0.894209867,62.3444215 0.222197603,61.7253136 0.259359572,60.9813566 C1.03666408,45.5416792 15.0007899,35.3749515 32.1128441,35.3749515 C49.2254144,35.3749515 63.1895402,45.5416792 63.9663286,60.9813566 C64.0034906,61.7253136 63.3314783,62.3444215 62.5221732,62.3444215 Z" id="Stroke-1" stroke="#FFFFFF" stroke-width="3" stroke-linecap="round"></path>
                    <path d="M51.3139687,21.1307729 C51.3139687,31.4860589 42.7171666,39.8807508 32.1131022,39.8807508 C21.5085215,39.8807508 12.9117195,31.4860589 12.9117195,21.1307729 C12.9117195,10.775487 21.5085215,2.38079502 32.1131022,2.38079502 C42.7171666,2.38079502 51.3139687,10.775487 51.3139687,21.1307729" id="Fill-3" fill="#FB826E"></path>
                    <path d="M51.3139687,19.0071774 C51.3139687,29.3624633 42.7171666,37.7571553 32.1131022,37.7571553 C21.5085215,37.7571553 12.9117195,29.3624633 12.9117195,19.0071774 C12.9117195,8.65189149 21.5085215,0.257199511 32.1131022,0.257199511 C42.7171666,0.257199511 51.3139687,8.65189149 51.3139687,19.0071774 Z" id="Stroke-5" stroke="#FFFFFF" stroke-width="3" stroke-linecap="round"></path>
                </g>
            </g>
        </g>
    </g>
</svg>