<?xml version="1.0" encoding="UTF-8"?>
<svg width="108px" height="108px" viewBox="0 0 108 108" version="1.1" xmlns="http://www.w3.org/2000/svg" xmlns:xlink="http://www.w3.org/1999/xlink">
    <!-- Generator: Sketch 41.2 (35397) - http://www.bohemiancoding.com/sketch -->
    <title>next</title>
    <desc>Created with Sketch.</desc>
    <defs>
        <linearGradient x1="100%" y1="63.8849437%" x2="-72.2511574%" y2="63.8849437%" id="linearGradient-1">
            <stop stop-color="#F15F6A" offset="0%"></stop>
            <stop stop-color="#FF8E70" offset="100%"></stop>
        </linearGradient>
    </defs>
    <g id="Page-1" stroke="none" stroke-width="1" fill="none" fill-rule="evenodd">
        <g id="On-boarding-1-Copy" transform="translate(-320.000000, -1171.000000)">
            <g id="icon/next" transform="translate(318.000000, 1170.000000)">
                <g id="Group-2" transform="translate(2.000000, 1.000000)">
                    <g id="Group" fill="url(#linearGradient-1)">
                        <rect id="Rectangle-11" x="0" y="0" width="108" height="108" rx="54"></rect>
                    </g>
                    <path d="M48.071658,34.6144606 C47.5645274,34.1112613 46.7114473,34.1112613 46.2043167,34.6144606 C45.9566483,34.862129 45.8190547,35.1923536 45.8190547,35.5461656 C45.8190547,35.8960464 45.9566483,36.2302022 46.2043167,36.4818019 L63.7927058,54.070191 L46.2082479,71.6546489 C45.9605795,71.9023173 45.8190547,72.2364731 45.8190547,72.5942164 C45.8190547,72.9440971 45.9566483,73.2743217 46.2003854,73.5219901 C46.4480539,73.7735898 46.7822097,73.9111834 47.1399529,73.9111834 C47.493765,73.9111834 47.8239895,73.7735898 48.071658,73.5259214 L66.5917521,55.001896 C66.8394205,54.7542276 66.9809453,54.4200718 66.9809453,54.0662597 C66.9809453,53.7124477 66.8433517,53.3782919 66.5917521,53.1345547 L48.071658,34.6144606 Z" id="icon/arrow" stroke="#FFFFFF" stroke-width="1.8" fill="#FFFFFF"></path>
                </g>
            </g>
        </g>
    </g>
</svg>