<?xml version="1.0" encoding="UTF-8"?>
<svg width="39px" height="39px" viewBox="0 0 39 39" version="1.1" xmlns="http://www.w3.org/2000/svg" xmlns:xlink="http://www.w3.org/1999/xlink">
    <!-- Generator: Sketch 41.2 (35397) - http://www.bohemiancoding.com/sketch -->
    <title>Page 1</title>
    <desc>Created with Sketch.</desc>
    <defs></defs>
    <g id="Page-1" stroke="none" stroke-width="1" fill="none" fill-rule="evenodd">
        <g id="Mon-compte-Copy" transform="translate(-39.000000, -314.000000)">
            <g id="Page-1" transform="translate(41.000000, 316.000000)">
                <path d="M34.1918135,34.6461957 L0.931609743,34.6461957 C0.489021021,34.6461957 0.121514314,34.312074 0.141837266,33.9105734 C0.566925668,25.5780491 8.20355697,20.0912436 17.5617116,20.0912436 C26.9201485,20.0912436 34.5567798,25.5780491 34.981586,33.9105734 C35.0019089,34.312074 34.6344022,34.6461957 34.1918135,34.6461957 Z" id="Stroke-1" stroke="#ED8C91" stroke-width="3" stroke-linecap="round"></path>
                <path d="M28.0623266,11.4039092 C28.0623266,16.9924762 23.3609505,21.5229449 17.5618527,21.5229449 C11.7624727,21.5229449 7.0610966,16.9924762 7.0610966,11.4039092 C7.0610966,5.81534219 11.7624727,1.2848735 17.5618527,1.2848735 C23.3609505,1.2848735 28.0623266,5.81534219 28.0623266,11.4039092" id="Fill-3"></path>
                <path d="M28.0623266,10.2578418 C28.0623266,15.8464088 23.3609505,20.3768775 17.5618527,20.3768775 C11.7624727,20.3768775 7.0610966,15.8464088 7.0610966,10.2578418 C7.0610966,4.66927477 11.7624727,0.138806085 17.5618527,0.138806085 C23.3609505,0.138806085 28.0623266,4.66927477 28.0623266,10.2578418 Z" id="Stroke-5" stroke="#ED8C91" stroke-width="3" stroke-linecap="round"></path>
            </g>
        </g>
    </g>
</svg>