<?xml version="1.0" encoding="utf-8"?>
<!-- Generator: Adobe Illustrator 21.0.0, SVG Export Plug-In . SVG Version: 6.00 Build 0)  -->
<svg version="1.1" id="Layer_1" xmlns="http://www.w3.org/2000/svg" xmlns:xlink="http://www.w3.org/1999/xlink" x="0px" y="0px"
	 viewBox="0 0 597 650.8" style="enable-background:new 0 0 597 650.8;" xml:space="preserve">
<style type="text/css">
	.st0{fill:url(#SVGID_1_);}
	.st1{fill:url(#SVGID_2_);}
	.st2{fill:url(#SVGID_3_);}
	.st3{fill:url(#SVGID_4_);}
	.st4{fill:url(#SVGID_5_);}
	.st5{fill:none;stroke:#FFFFFF;stroke-width:3;stroke-miterlimit:10;}
	.st6{fill:#AC99E0;}
	.st7{fill:url(#SVGID_6_);}
	.st8{fill:#9172C1;}
	.st9{fill:#FFFFFF;}
	.st10{opacity:0.57;}
	.st11{fill:url(#SVGID_7_);}
	.st12{fill:url(#SVGID_8_);}
	.st13{fill:url(#SVGID_9_);}
	.st14{fill:url(#SVGID_10_);}
	.st15{fill:url(#SVGID_11_);}
	.st16{fill:#D37D7D;}
	.st17{fill:#BC3131;}
	.st18{fill:url(#SVGID_12_);}
	.st19{fill:url(#SVGID_13_);}
	.st20{fill:url(#SVGID_14_);}
	.st21{fill:url(#SVGID_15_);}
</style>
<g>
	
		<linearGradient id="SVGID_1_" gradientUnits="userSpaceOnUse" x1="298.5" y1="554.5483" x2="298.5" y2="345.3338" gradientTransform="matrix(1 0 0 -1 0 652)">
		<stop  offset="7.131410e-03" style="stop-color:#AF87D8"/>
		<stop  offset="1" style="stop-color:#7A64CF"/>
	</linearGradient>
	<circle class="st0" cx="298.5" cy="298.5" r="298.5"/>
	
		<linearGradient id="SVGID_2_" gradientUnits="userSpaceOnUse" x1="299.35" y1="264.7548" x2="299.35" y2="366.7989" gradientTransform="matrix(1 0 0 -1 0 652)">
		<stop  offset="0" style="stop-color:#CF97F8"/>
		<stop  offset="1" style="stop-color:#E6A5B3"/>
	</linearGradient>
	<path class="st1" d="M58.1,320.7L9.2,372.1C42,501.4,159.1,596.9,298.5,596.9c141.9,0,260.7-99.1,291-231.8l-41.3-44.4L58.1,320.7
		L58.1,320.7z"/>
	
		<linearGradient id="SVGID_3_" gradientUnits="userSpaceOnUse" x1="300.65" y1="312.0121" x2="300.65" y2="99.2578" gradientTransform="matrix(1 0 0 -1 0 652)">
		<stop  offset="0" style="stop-color:#FC9CA6"/>
		<stop  offset="1" style="stop-color:#FFFFF1"/>
	</linearGradient>
	<path class="st2" d="M17.5,399.2c41.3,115.3,151.5,197.7,281,197.7c134.3,0,247.8-88.7,285.3-210.6l-31.6-34H62.1L17.5,399.2z"/>
	
		<linearGradient id="SVGID_4_" gradientUnits="userSpaceOnUse" x1="287.9" y1="360.1189" x2="287.9" y2="491.8295" gradientTransform="matrix(1 0 0 -1 0 652)">
		<stop  offset="0" style="stop-color:#5C58CA"/>
		<stop  offset="0.8962" style="stop-color:#2265C8;stop-opacity:0"/>
	</linearGradient>
	<polygon class="st3" points="117,320.7 117,120.4 199.9,96.1 387.9,100.4 458.8,131.6 458.8,320.7 	"/>
	
		<linearGradient id="SVGID_5_" gradientUnits="userSpaceOnUse" x1="287.9" y1="243.0592" x2="287.9" y2="336.7614" gradientTransform="matrix(1 0 0 -1 0 652)">
		<stop  offset="0" style="stop-color:#AC99E0"/>
		<stop  offset="1" style="stop-color:#3A6CFA"/>
	</linearGradient>
	<polygon class="st4" points="175.6,420.4 172.1,450.8 125.6,358.2 117,320.7 458.8,320.7 455.5,352.3 415.3,426.9 	"/>
	<polygon class="st5" points="430.1,390.9 418,124.6 356.3,102.1 225.4,102.1 149.7,127.6 155.2,291.9 157.3,409.4 164.8,411.7 
		163.2,457.8 232.2,479.1 373.6,471 424.8,432.9 421.7,395.5 	"/>
	<path class="st6" d="M447.3,435.1c-28.6-15.2-27.1,15-39.3,1.2c-2.9-3.3-24.3-3.2-29.3,0s-5,14.7-5,14.7
		c-22.1,10-59.3-2.1-59.3-2.1c-12.1-4.3-35-3.6-23.6,17.1s69.3,18.6,69.3,18.6l-3.3,6.4c0,0-2.3,5-0.3,16.5
		c2.7,14.8,35.7,22.8,47.9,27.9c16.8,7,15.6,23.9,15.6,23.9s-2.4,5.2-8.9,15.9c27.6-11.2,53.2-26.5,75.9-45.1
		c0.1-0.6,0.2-1.3,0.3-1.8C492.3,496.7,475.8,450.2,447.3,435.1z"/>
	<g>
		
			<linearGradient id="SVGID_6_" gradientUnits="userSpaceOnUse" x1="293.7" y1="229.4882" x2="293.7" y2="186.4838" gradientTransform="matrix(1 0 0 -1 0 652)">
			<stop  offset="9.030449e-02" style="stop-color:#E780B4"/>
			<stop  offset="1" style="stop-color:#DDA09F"/>
		</linearGradient>
		<polygon class="st7" points="173.6,406.6 172.1,450.8 236.3,471.1 367.7,463.4 415.3,426.9 412,385.8 360.7,420.4 241.8,428.4 		
			"/>
		<polygon class="st8" points="172.8,378.4 173,427.9 235.5,443 366.9,435.2 413.4,408.5 411.2,357.6 359.9,392.2 241,400.2 		"/>
		<polygon class="st9" points="159.6,134.5 164.7,291.8 166.7,404.4 241.8,428.4 360.7,420.4 420.2,386.6 409,131.6 346.8,159.4 
			225.1,158.3 		"/>
		<polygon class="st9" points="346.8,159.4 414.9,266.5 295.3,302.2 		"/>
		<g class="st10">
			
				<linearGradient id="SVGID_7_" gradientUnits="userSpaceOnUse" x1="286.8883" y1="363.6598" x2="285.8883" y2="501.6598" gradientTransform="matrix(1 0 0 -1 0 652)">
				<stop  offset="1.802885e-03" style="stop-color:#EFEFD8"/>
				<stop  offset="1" style="stop-color:#FFC4D2"/>
			</linearGradient>
			<polygon class="st11" points="225.1,158.3 295.3,302.2 346.8,159.4 			"/>
			
				<linearGradient id="SVGID_8_" gradientUnits="userSpaceOnUse" x1="193.3835" y1="362.9822" x2="192.3835" y2="500.9822" gradientTransform="matrix(1 0 0 -1 0 652)">
				<stop  offset="1.802885e-03" style="stop-color:#EFEFD8"/>
				<stop  offset="1" style="stop-color:#FFC4D2"/>
			</linearGradient>
			<polygon class="st12" points="225.1,158.3 164.6,287.9 159.6,134.5 			"/>
			
				<linearGradient id="SVGID_9_" gradientUnits="userSpaceOnUse" x1="229.95" y1="249.7548" x2="229.95" y2="357.7548" gradientTransform="matrix(1 0 0 -1 0 652)">
				<stop  offset="1.802885e-03" style="stop-color:#EFEFD8"/>
				<stop  offset="1" style="stop-color:#FFC4D2"/>
			</linearGradient>
			<polygon class="st13" points="164.6,287.9 295.3,302.2 241.8,428.4 			"/>
			
				<linearGradient id="SVGID_10_" gradientUnits="userSpaceOnUse" x1="355.1" y1="249.7548" x2="355.1" y2="357.7548" gradientTransform="matrix(1 0 0 -1 0 652)">
				<stop  offset="1.802885e-03" style="stop-color:#EFEFD8"/>
				<stop  offset="1" style="stop-color:#FFC4D2"/>
			</linearGradient>
			<polygon class="st14" points="295.3,302.2 360.7,420.4 414.9,266.5 			"/>
			
				<linearGradient id="SVGID_11_" gradientUnits="userSpaceOnUse" x1="381.3913" y1="364.3446" x2="380.3913" y2="502.3446" gradientTransform="matrix(1 0 0 -1 0 652)">
				<stop  offset="1.802885e-03" style="stop-color:#EFEFD8"/>
				<stop  offset="1" style="stop-color:#FFC4D2"/>
			</linearGradient>
			<polygon class="st15" points="409,131.6 346.8,159.4 414.9,266.5 			"/>
		</g>
		<polygon class="st9" points="409,131.6 351.7,110.1 229.9,110.1 159.6,134.5 225.1,158.3 346.8,159.4 		"/>
	</g>
	<path class="st16" d="M403,467.9c-7.6-0.5-18.6-19.6-22.5-17.1c-5,3.2-6.9,0.2-6.9,0.2c-22.1,10-63.7-15.9-63.7-15.9
		c-12.1-4.3-28.7,6.8-19.2,30.9c0.3,0.7,0.8,1.3,1.2,1.9l75.7-4.4L403,467.9z"/>
	<ellipse class="st17" cx="300.6" cy="445.2" rx="17.5" ry="15.8"/>
	<path class="st9" d="M462.4,429.4c-28.6-15.2-35,0.2-39.3,1.2c-4.3,1.1-24.3-3.2-29.3,0s-5,14.7-5,14.7c-22.1,10-59.3-2.1-59.3-2.1
		c-12.1-4.3-35-3.6-23.6,17.1s69.3,18.6,69.3,18.6l-3.3,6.4c0,0-2.3,5-0.3,16.5c2.7,14.8,35.7,22.8,47.9,27.9
		c16.8,7,15.6,23.9,15.6,23.9s1.2,6.4-12,30.4c30.3,19.2,52.2,5.8,75.3-15.2c0.6-2.5,3.7-44.2,4-46.2
		C507.4,490.9,490.9,444.5,462.4,429.4z"/>
	
		<linearGradient id="SVGID_12_" gradientUnits="userSpaceOnUse" x1="430.0706" y1="210.1" x2="445.0706" y2="210.1" gradientTransform="matrix(1 0 0 -1 0 652)">
		<stop  offset="1.802885e-03" style="stop-color:#EFEFD8"/>
		<stop  offset="1" style="stop-color:#FFC4D2"/>
	</linearGradient>
	<path class="st18" d="M430.1,439.7l15,10.4l-7.5-16.4C437.6,433.7,430.8,433.7,430.1,439.7z"/>
	
		<linearGradient id="SVGID_13_" gradientUnits="userSpaceOnUse" x1="329.4581" y1="204.4237" x2="301.7914" y2="207.4237" gradientTransform="matrix(1 0 0 -1 0 652)">
		<stop  offset="1.802885e-03" style="stop-color:#EFEFD8"/>
		<stop  offset="1" style="stop-color:#FFC4D2"/>
	</linearGradient>
	<path class="st19" d="M301.3,441.8c0,0-5.2,11.9,13.1,13.1s15.1-11.8,15.1-11.8S307.7,429.5,301.3,441.8z"/>
	
		<linearGradient id="SVGID_14_" gradientUnits="userSpaceOnUse" x1="453.1999" y1="87.14" x2="453.1999" y2="23.068" gradientTransform="matrix(1 0 0 -1 0 652)">
		<stop  offset="0" style="stop-color:#FF82B4"/>
		<stop  offset="0.9201" style="stop-color:#DD9F9F;stop-opacity:0"/>
	</linearGradient>
	<path class="st20" d="M425.4,585.5c0,0,57.6,11.6,77.9-16.9c0,0-0.9,57.2-15.1,73.7c0,0-66.1-11-85.1-18.9
		C403,623.3,428.3,607.1,425.4,585.5z"/>
	
		<linearGradient id="SVGID_15_" gradientUnits="userSpaceOnUse" x1="421.0595" y1="74.1581" x2="505.8255" y2="74.1581" gradientTransform="matrix(1 0 0 -1 0 652)">
		<stop  offset="9.030449e-02" style="stop-color:#E780B4"/>
		<stop  offset="1" style="stop-color:#DDA09F"/>
	</linearGradient>
	<path class="st21" d="M498.5,556.4c-20,19.7-60.8,23.5-72.5,24.2c-1.7,0.1-3,1.5-2.9,3.2c0.1,2.2-0.1,4.5-0.5,6.6
		c0,0.1-0.1,0.3-0.1,0.4l-1.3,4.3c-0.6,1.9,0.8,3.8,2.7,4c14.3,1.4,65.7,4.7,81.4-17.3c0.4-0.6,0.6-1.4,0.5-2.1
		c-0.8-6.6-1.5-15.1-2-21.2C503.6,555.8,500.4,554.6,498.5,556.4z"/>
</g>
</svg>
