<?xml version="1.0" encoding="utf-8"?>
<!-- Generator: Adobe Illustrator 21.0.0, SVG Export Plug-In . SVG Version: 6.00 Build 0)  -->
<svg version="1.1" id="Layer_1" xmlns="http://www.w3.org/2000/svg" xmlns:xlink="http://www.w3.org/1999/xlink" x="0px" y="0px"
	 viewBox="0 0 721 650.8" enable-background="new 0 0 721 650.8" xml:space="preserve">
<g>
	<linearGradient id="SVGID_1_" gradientUnits="userSpaceOnUse" x1="375.5028" y1="97.4517" x2="375.5028" y2="306.6662">
		<stop  offset="7.131410e-03" style="stop-color:#AF87D8"/>
		<stop  offset="1" style="stop-color:#7A64CF"/>
	</linearGradient>
	<circle fill="url(#SVGID_1_)" cx="375.5" cy="298.5" r="298.5"/>
	<linearGradient id="SVGID_2_" gradientUnits="userSpaceOnUse" x1="376.3497" y1="387.2452" x2="376.3497" y2="285.2011">
		<stop  offset="0" style="stop-color:#CF97F8"/>
		<stop  offset="1" style="stop-color:#E6A5B3"/>
	</linearGradient>
	<path fill="url(#SVGID_2_)" d="M135.1,320.7l-48.9,51.4C119,501.4,236.1,596.9,375.5,596.9c141.9,0,260.7-99.1,291-231.8
		l-41.3-44.4H135.1z"/>
	<linearGradient id="SVGID_3_" gradientUnits="userSpaceOnUse" x1="377.6497" y1="339.9879" x2="377.6497" y2="552.7422">
		<stop  offset="0" style="stop-color:#FC9CA6"/>
		<stop  offset="1" style="stop-color:#FFFFF1"/>
	</linearGradient>
	<path fill="url(#SVGID_3_)" d="M94.5,399.2c41.3,115.3,151.5,197.7,281,197.7c134.3,0,247.8-88.7,285.3-210.6l-31.6-34H139.1
		L94.5,399.2z"/>
	<linearGradient id="SVGID_4_" gradientUnits="userSpaceOnUse" x1="364.8918" y1="291.8811" x2="364.8918" y2="160.1705">
		<stop  offset="0" style="stop-color:#5C58CA"/>
		<stop  offset="0.8962" style="stop-color:#2265C8;stop-opacity:0"/>
	</linearGradient>
	<polygon fill="url(#SVGID_4_)" points="194,320.7 194,120.4 276.9,96.1 464.9,100.4 535.8,131.6 535.8,320.7 	"/>
	<linearGradient id="SVGID_5_" gradientUnits="userSpaceOnUse" x1="364.8918" y1="408.9408" x2="364.8918" y2="315.2386">
		<stop  offset="0" style="stop-color:#AC99E0"/>
		<stop  offset="1" style="stop-color:#3A6CFA"/>
	</linearGradient>
	<polygon fill="url(#SVGID_5_)" points="252.6,420.4 249.1,450.8 202.6,358.2 194,320.7 535.8,320.7 532.5,352.3 492.3,426.9 	"/>
	<polygon fill="none" stroke="#FFFFFF" stroke-width="3" stroke-miterlimit="10" points="507.1,390.9 495,124.6 433.3,102.1 
		302.4,102.1 226.7,127.6 232.2,291.9 234.3,409.4 241.8,411.7 240.2,457.8 309.2,479.1 450.6,471 501.8,432.9 498.7,395.5 	"/>
	<path fill="#AC99E0" d="M524.3,435.1c-28.6-15.2-27.1,15-39.3,1.2c-2.9-3.3-24.3-3.2-29.3,0c-5,3.2-5,14.7-5,14.7
		c-22.1,10-59.3-2.1-59.3-2.1c-12.1-4.3-35-3.6-23.6,17.1c11.4,20.7,69.3,18.6,69.3,18.6l-3.3,6.4c0,0-2.3,5-0.3,16.5
		c2.7,14.8,35.7,22.8,47.9,27.9c16.8,7,15.6,23.9,15.6,23.9s-2.4,5.2-8.9,15.9c27.6-11.2,53.2-26.5,75.9-45.1
		c0.1-0.6,0.2-1.3,0.3-1.8C569.3,496.7,552.8,450.2,524.3,435.1z"/>
	<g>
		<linearGradient id="SVGID_6_" gradientUnits="userSpaceOnUse" x1="370.6945" y1="422.5118" x2="370.6945" y2="465.5162">
			<stop  offset="9.030449e-02" style="stop-color:#E780B4"/>
			<stop  offset="1" style="stop-color:#DDA09F"/>
		</linearGradient>
		<polygon fill="url(#SVGID_6_)" points="250.6,406.6 249.1,450.8 313.3,471.1 444.7,463.4 492.3,426.9 489,385.8 437.7,420.4 
			318.8,428.4 		"/>
		<polygon fill="#9172C1" points="249.8,378.4 250,427.9 312.5,443 443.9,435.2 490.4,408.5 488.2,357.6 436.9,392.2 318,400.2 		
			"/>
		<polygon fill="#FFFFFF" points="236.6,134.5 241.7,291.8 243.7,404.4 318.8,428.4 437.7,420.4 497.2,386.6 486,131.6 423.8,159.4 
			302.1,158.3 		"/>
		<polygon fill="#FFFFFF" points="423.8,159.4 491.9,266.5 372.3,302.2 		"/>
		<g opacity="0.57">
			<linearGradient id="SVGID_7_" gradientUnits="userSpaceOnUse" x1="363.8902" y1="288.3402" x2="362.8902" y2="150.3402">
				<stop  offset="1.802885e-03" style="stop-color:#EFEFD8"/>
				<stop  offset="1" style="stop-color:#FFC4D2"/>
			</linearGradient>
			<polygon fill="url(#SVGID_7_)" points="302.1,158.3 372.3,302.2 423.8,159.4 			"/>
			<linearGradient id="SVGID_8_" gradientUnits="userSpaceOnUse" x1="270.3495" y1="289.018" x2="269.3495" y2="151.018">
				<stop  offset="1.802885e-03" style="stop-color:#EFEFD8"/>
				<stop  offset="1" style="stop-color:#FFC4D2"/>
			</linearGradient>
			<polygon fill="url(#SVGID_8_)" points="302.1,158.3 241.6,287.9 236.6,134.5 			"/>
			<linearGradient id="SVGID_9_" gradientUnits="userSpaceOnUse" x1="306.9484" y1="402.2452" x2="306.9484" y2="294.2452">
				<stop  offset="1.802885e-03" style="stop-color:#EFEFD8"/>
				<stop  offset="1" style="stop-color:#FFC4D2"/>
			</linearGradient>
			<polygon fill="url(#SVGID_9_)" points="241.6,287.9 372.3,302.2 318.8,428.4 			"/>
			<linearGradient id="SVGID_10_" gradientUnits="userSpaceOnUse" x1="432.1259" y1="402.2452" x2="432.1259" y2="294.2452">
				<stop  offset="1.802885e-03" style="stop-color:#EFEFD8"/>
				<stop  offset="1" style="stop-color:#FFC4D2"/>
			</linearGradient>
			<polygon fill="url(#SVGID_10_)" points="372.3,302.2 437.7,420.4 491.9,266.5 			"/>
			<linearGradient id="SVGID_11_" gradientUnits="userSpaceOnUse" x1="458.4178" y1="287.6552" x2="457.4178" y2="149.6552">
				<stop  offset="1.802885e-03" style="stop-color:#EFEFD8"/>
				<stop  offset="1" style="stop-color:#FFC4D2"/>
			</linearGradient>
			<polygon fill="url(#SVGID_11_)" points="486,131.6 423.8,159.4 491.9,266.5 			"/>
		</g>
		<polygon fill="#FFFFFF" points="486,131.6 428.7,110.1 306.9,110.1 236.6,134.5 302.1,158.3 423.8,159.4 		"/>
	</g>
	<path fill="#D37D7D" d="M480,467.9c-7.6-0.5-18.6-19.6-22.5-17.1c-5,3.2-6.9,0.2-6.9,0.2c-22.1,10-63.7-15.9-63.7-15.9
		c-12.1-4.3-28.7,6.8-19.2,30.9c0.3,0.7,0.8,1.3,1.2,1.9l75.7-4.4L480,467.9z"/>
	<ellipse fill="#BC3131" cx="377.6" cy="445.2" rx="17.5" ry="15.8"/>
	<path fill="#FFFFFF" d="M539.4,429.4c-28.6-15.2-35,0.2-39.3,1.2c-4.3,1.1-24.3-3.2-29.3,0c-5,3.2-5,14.7-5,14.7
		c-22.1,10-59.3-2.1-59.3-2.1c-12.1-4.3-35-3.6-23.6,17.1c11.4,20.7,69.3,18.6,69.3,18.6l-3.3,6.4c0,0-2.3,5-0.3,16.5
		c2.7,14.8,35.7,22.8,47.9,27.9c16.8,7,15.6,23.9,15.6,23.9s1.2,6.4-12,30.4c30.3,19.2,52.2,5.8,75.3-15.2c0.6-2.5,3.7-44.2,4-46.2
		C584.4,490.9,567.9,444.5,539.4,429.4z"/>
	<linearGradient id="SVGID_12_" gradientUnits="userSpaceOnUse" x1="507.0706" y1="441.8741" x2="522.0702" y2="441.8741">
		<stop  offset="1.802885e-03" style="stop-color:#EFEFD8"/>
		<stop  offset="1" style="stop-color:#FFC4D2"/>
	</linearGradient>
	<path fill="url(#SVGID_12_)" d="M507.1,439.7l15,10.4l-7.5-16.4C514.6,433.7,507.8,433.7,507.1,439.7z"/>
	<linearGradient id="SVGID_13_" gradientUnits="userSpaceOnUse" x1="406.4589" y1="447.569" x2="378.7922" y2="444.569">
		<stop  offset="1.802885e-03" style="stop-color:#EFEFD8"/>
		<stop  offset="1" style="stop-color:#FFC4D2"/>
	</linearGradient>
	<path fill="url(#SVGID_13_)" d="M378.3,441.8c0,0-5.2,11.9,13.1,13.1s15.1-11.8,15.1-11.8S384.7,429.5,378.3,441.8z"/>
	<linearGradient id="SVGID_14_" gradientUnits="userSpaceOnUse" x1="530.1546" y1="564.86" x2="530.1546" y2="628.932">
		<stop  offset="0" style="stop-color:#FF82B4"/>
		<stop  offset="0.9201" style="stop-color:#DD9F9F;stop-opacity:0"/>
	</linearGradient>
	<path fill="url(#SVGID_14_)" d="M502.4,585.5c0,0,57.6,11.6,77.9-16.9c0,0-0.9,57.2-15.1,73.7c0,0-66.1-11-85.1-18.9
		C480,623.3,505.3,607.1,502.4,585.5z"/>
	<linearGradient id="SVGID_15_" gradientUnits="userSpaceOnUse" x1="498.1258" y1="577.7792" x2="582.8954" y2="577.7792">
		<stop  offset="9.030449e-02" style="stop-color:#E780B4"/>
		<stop  offset="1" style="stop-color:#DDA09F"/>
	</linearGradient>
	<path fill="url(#SVGID_15_)" d="M575.5,556.4c-20,19.7-60.8,23.5-72.5,24.2c-1.7,0.1-3,1.5-2.9,3.2c0.1,2.2-0.1,4.5-0.5,6.6
		c0,0.1-0.1,0.3-0.1,0.4l-1.3,4.3c-0.6,1.9,0.8,3.8,2.7,4c14.3,1.4,65.7,4.7,81.4-17.3c0.4-0.6,0.6-1.4,0.5-2.1
		c-0.8-6.6-1.5-15.1-2-21.2C580.6,555.8,577.4,554.6,575.5,556.4z"/>
</g>
</svg>
