<?xml version="1.0" encoding="utf-8"?>
<!-- Generator: Adobe Illustrator 21.0.0, SVG Export Plug-In . SVG Version: 6.00 Build 0)  -->
<svg version="1.1" id="Layer_1" xmlns="http://www.w3.org/2000/svg" xmlns:xlink="http://www.w3.org/1999/xlink" x="0px" y="0px"
	 viewBox="0 0 752.5 387" style="enable-background:new 0 0 752.5 387;" xml:space="preserve">
<style type="text/css">
	.st0{fill:url(#SVGID_1_);}
	.st1{fill:url(#SVGID_2_);}
	.st2{fill:url(#SVGID_3_);}
	.st3{fill:url(#SVGID_4_);}
	.st4{fill:url(#SVGID_5_);}
	.st5{fill:url(#SVGID_6_);}
	.st6{fill:url(#SVGID_7_);}
	.st7{fill:url(#SVGID_8_);}
	.st8{fill:url(#SVGID_9_);}
	.st9{opacity:0.67;fill:url(#SVGID_10_);}
	.st10{opacity:0.67;fill:url(#SVGID_11_);}
	.st11{fill:url(#SVGID_12_);}
	.st12{fill:url(#SVGID_13_);}
	.st13{fill:#9172C1;}
	.st14{fill:url(#SVGID_14_);}
	.st15{fill:url(#SVGID_15_);}
	.st16{opacity:0.84;fill:url(#SVGID_16_);}
	.st17{fill:url(#SVGID_17_);}
	.st18{fill:url(#SVGID_18_);}
</style>
<linearGradient id="SVGID_1_" gradientUnits="userSpaceOnUse" x1="382.6373" y1="384.7314" x2="375.406" y2="165.3833">
	<stop  offset="7.131410e-03" style="stop-color:#CE87D8"/>
	<stop  offset="1" style="stop-color:#7A64CF"/>
</linearGradient>
<polygon class="st0" points="752.8,386.9 0,387.4 0,0 752.8,3.3 "/>
<linearGradient id="SVGID_2_" gradientUnits="userSpaceOnUse" x1="113.0999" y1="-82.4179" x2="113.0999" y2="221.7482">
	<stop  offset="7.131410e-03" style="stop-color:#AF87D8"/>
	<stop  offset="1" style="stop-color:#3F3FCF"/>
</linearGradient>
<polygon class="st1" points="0,244.6 226.2,173.8 226.2,0 0,0 "/>
<linearGradient id="SVGID_3_" gradientUnits="userSpaceOnUse" x1="813.1028" y1="66.5261" x2="128.6964" y2="91.7411">
	<stop  offset="7.131410e-03" style="stop-color:#AF87D8"/>
	<stop  offset="1" style="stop-color:#3F3FCF"/>
</linearGradient>
<polygon class="st2" points="752.8,156.9 226.2,173.8 226.2,0 752.8,0 "/>
<linearGradient id="SVGID_4_" gradientUnits="userSpaceOnUse" x1="441.7415" y1="257.2145" x2="441.7415" y2="411.3065">
	<stop  offset="0" style="stop-color:#FC9CA6"/>
	<stop  offset="1" style="stop-color:#FFFFF1"/>
</linearGradient>
<polygon class="st3" points="752.5,267.6 752.5,219.1 377.9,219.1 131,387.9 752.5,386.9 "/>
<linearGradient id="SVGID_5_" gradientUnits="userSpaceOnUse" x1="441.7415" y1="257.2145" x2="441.7415" y2="411.3065">
	<stop  offset="0" style="stop-color:#CF97F8"/>
	<stop  offset="1" style="stop-color:#E6A5B3"/>
</linearGradient>
<polygon class="st4" points="385.7,244.5 752.5,249.3 752.5,219.1 377.9,219.1 131,387.9 215.5,387.9 "/>
<linearGradient id="SVGID_6_" gradientUnits="userSpaceOnUse" x1="545.9921" y1="259.6159" x2="545.9921" y2="383.2017">
	<stop  offset="7.131410e-03" style="stop-color:#4E61D4"/>
	<stop  offset="1" style="stop-color:#182A88"/>
</linearGradient>
<polygon class="st5" points="414.4,267.6 339.5,386.9 752.5,386.9 752.5,267.6 736.2,252 "/>
<linearGradient id="SVGID_7_" gradientUnits="userSpaceOnUse" x1="762.8593" y1="156.96" x2="488.7901" y2="156.96">
	<stop  offset="7.131410e-03" style="stop-color:#4E61D4"/>
	<stop  offset="1" style="stop-color:#182A88"/>
</linearGradient>
<path class="st6" d="M414.4,267.6l-17.5-189c0,0-5.2-18.3,8-21.5l326.5-10.8c0,0,17.9,4.8,17.9,14.4S736.2,252,736.2,252
	L414.4,267.6z"/>
<linearGradient id="SVGID_8_" gradientUnits="userSpaceOnUse" x1="739.7034" y1="158.3553" x2="498.5664" y2="158.3553">
	<stop  offset="0" style="stop-color:#AC99E0"/>
	<stop  offset="1" style="stop-color:#3A6CFA"/>
</linearGradient>
<polygon class="st7" points="416.8,79.4 727.8,67.5 717,232.4 433.6,249.3 "/>
<linearGradient id="SVGID_9_" gradientUnits="userSpaceOnUse" x1="573.0731" y1="96.8783" x2="577.6978" y2="241.3982">
	<stop  offset="0" style="stop-color:#5C58CA"/>
	<stop  offset="0.8962" style="stop-color:#2265C8;stop-opacity:0"/>
</linearGradient>
<polygon class="st8" points="416.8,79.4 433.6,249.3 444.7,248.6 427,88.3 715.8,78.4 708.5,232.9 717,232.4 727.8,66.3 "/>
<linearGradient id="SVGID_10_" gradientUnits="userSpaceOnUse" x1="661.9867" y1="161.8672" x2="527.5712" y2="161.8672">
	<stop  offset="0.2099" style="stop-color:#CCC6F8"/>
	<stop  offset="1" style="stop-color:#D5EEF8"/>
</linearGradient>
<polygon class="st9" points="482,85.9 602.3,239.2 655.3,236 538,84.5 "/>
<linearGradient id="SVGID_11_" gradientUnits="userSpaceOnUse" x1="703.6816" y1="158.5127" x2="604.6352" y2="158.5127">
	<stop  offset="0.2099" style="stop-color:#CCC6F8"/>
	<stop  offset="1" style="stop-color:#D5EEF8"/>
</linearGradient>
<polygon class="st10" points="571.1,84 682.8,234.4 698.8,233.5 587.9,82.6 "/>
<linearGradient id="SVGID_12_" gradientUnits="userSpaceOnUse" x1="650.3126" y1="269.5262" x2="506.9111" y2="269.5262">
	<stop  offset="0" style="stop-color:#3C3C94"/>
	<stop  offset="0.9905" style="stop-color:#1B286C"/>
</linearGradient>
<path class="st11" d="M454.3,265.7c0,0-4.6,12.1-3,19.3l248.8-10c0,0-4.6-15.5-7-20.8L454.3,265.7z"/>
<linearGradient id="SVGID_13_" gradientUnits="userSpaceOnUse" x1="581.7268" y1="324.9968" x2="581.7268" y2="397.9523">
	<stop  offset="7.131410e-03" style="stop-color:#4E61D4"/>
	<stop  offset="1" style="stop-color:#182A88"/>
</linearGradient>
<polygon class="st12" points="411,386.9 442.3,319.1 712.8,306.9 752.5,362.5 752.5,386.9 "/>
<ellipse class="st13" cx="311.6" cy="334.8" rx="33.5" ry="18.9"/>
<g>
	<linearGradient id="SVGID_14_" gradientUnits="userSpaceOnUse" x1="301.8715" y1="248.2174" x2="301.8715" y2="360.0132">
		<stop  offset="9.030449e-02" style="stop-color:#E780B4"/>
		<stop  offset="1" style="stop-color:#DDA09F"/>
	</linearGradient>
	<path class="st14" d="M352.2,220.5c0,0,7.2,68.6-12,110.8c0,0-16.3,19.5-51,8c0,0-29.5-15.1-39.1-110.8
		C250.2,228.5,300.4,257.2,352.2,220.5z"/>
	<linearGradient id="SVGID_15_" gradientUnits="userSpaceOnUse" x1="301.2125" y1="196.627" x2="301.2125" y2="246.0614">
		<stop  offset="7.131410e-03" style="stop-color:#AF87D8"/>
		<stop  offset="1" style="stop-color:#8164CF"/>
	</linearGradient>
	<path class="st15" d="M352.2,220.5c0,8-23.8,21-51.6,21c-27.9,0-50.4-6.5-50.4-14.6s22-18.7,49.7-20.7
		C329.5,204.2,352.2,212.5,352.2,220.5z"/>
	<linearGradient id="SVGID_16_" gradientUnits="userSpaceOnUse" x1="237.8046" y1="15.4503" x2="245.0055" y2="191.8732">
		<stop  offset="0.2099" style="stop-color:#CCC6F8"/>
		<stop  offset="1" style="stop-color:#D5EEF8"/>
	</linearGradient>
	<path class="st16" d="M299.6,241.8c0,0-41.9-16.1-19.1-54.3s-9.6-38.3-46.6-33.5s-67,0-78.9-26.3s41.9-35.9,39.5-59.8
		S137.3,6,84.7,0H384c0,0,22.5,49.9-13.4,67.5c-30.4,14.9-41.4,3.4-53.6,16.8c-4.6,5-8.9,19.4,2.6,33.4
		c20.4,24.9,25.4,41.5,6.4,58.2c0,0-78.3,53.8,11,58.1C336.9,234,328,241.5,299.6,241.8z"/>
	<linearGradient id="SVGID_17_" gradientUnits="userSpaceOnUse" x1="315.1806" y1="239.1509" x2="316.9746" y2="336.0262">
		<stop  offset="9.030449e-02" style="stop-color:#E780B4"/>
		<stop  offset="1" style="stop-color:#E7CB9F"/>
	</linearGradient>
	<path class="st17" d="M376.8,245.5c-4.7-6.2-17.6-3-23.3-1.3c-0.3-14.1-1.3-23.7-1.3-23.7c-51.8,36.7-102.1,8-102.1,8
		c9.6,95.7,39.1,110.8,39.1,110.8c34.7,11.6,51-8,51-8c4.4-9.7,7.4-20.7,9.4-32c3.9,4.2,9.4,7.3,16,2.3
		C378.6,291.8,384.8,256.2,376.8,245.5z M361.1,290.9c-3.8,2.7-7.1,0.3-9.7-3.4c1-8.2,1.6-16.4,1.9-24c2.2-1.7,5.7-3.5,10.6-3.7
		C373.2,259.5,369.9,284.6,361.1,290.9z"/>
	<linearGradient id="SVGID_18_" gradientUnits="userSpaceOnUse" x1="301.7538" y1="212.2742" x2="301.7538" y2="256.0593">
		<stop  offset="9.030449e-02" style="stop-color:#E780B4"/>
		<stop  offset="1" style="stop-color:#E7CB9F"/>
	</linearGradient>
	<path class="st18" d="M353.3,235.5c-0.4-10.6-1.1-14.9-1.1-14.9c-51.8,36.7-102.1,8-102.1,8c0.5,5.4,1.1,10.5,1.8,15.4
		c10.9,4.8,29.2,8.1,47.9,8.1C322,252,343,242.8,353.3,235.5z"/>
</g>
<polygon class="st13" points="338.5,286.7 349.7,299.4 344.5,322 "/>
<path class="st13" d="M353.3,263.5c0,0-6.6,2-8,6c-1.7,4.9-1.6,10.4,6.2,18C351.5,287.5,353.8,270.8,353.3,263.5z"/>
</svg>
