<?xml version="1.0" encoding="utf-8"?>
<!-- Generator: Adobe Illustrator 21.0.0, SVG Export Plug-In . SVG Version: 6.00 Build 0)  -->
<svg version="1.1" id="Layer_1" xmlns="http://www.w3.org/2000/svg" xmlns:xlink="http://www.w3.org/1999/xlink" x="0px" y="0px"
	 viewBox="0 0 752.5 387" style="enable-background:new 0 0 752.5 387;" xml:space="preserve">
<style type="text/css">
	.st0{fill:url(#SVGID_1_);}
	.st1{opacity:0.72;fill:url(#SVGID_2_);}
	.st2{opacity:0.95;}
	.st3{fill:#F3FFFD;}
	.st4{fill:url(#SVGID_3_);}
	.st5{fill:url(#SVGID_4_);}
	.st6{fill:url(#SVGID_5_);}
	.st7{fill:url(#SVGID_6_);}
	.st8{fill:url(#SVGID_7_);}
	.st9{opacity:0.53;fill:none;stroke:url(#SVGID_8_);stroke-miterlimit:10;}
	.st10{fill:url(#SVGID_9_);}
	.st11{opacity:0.53;fill:none;stroke:url(#SVGID_10_);stroke-miterlimit:10;}
	.st12{fill:url(#SVGID_11_);}
	.st13{fill:url(#SVGID_12_);}
	.st14{opacity:0.53;fill:none;stroke:url(#SVGID_13_);stroke-miterlimit:10;}
	.st15{fill:url(#SVGID_14_);}
</style>
<g>
	<linearGradient id="SVGID_1_" gradientUnits="userSpaceOnUse" x1="376.6182" y1="-64.1241" x2="376.6182" y2="402.0449">
		<stop  offset="8.064387e-02" style="stop-color:#C8F3F0"/>
		<stop  offset="1" style="stop-color:#329AD6"/>
	</linearGradient>
	<rect x="0.7" class="st0" width="751.8" height="387"/>
	<linearGradient id="SVGID_2_" gradientUnits="userSpaceOnUse" x1="181.0499" y1="379.4209" x2="184.9086" y2="-18.0226">
		<stop  offset="0" style="stop-color:#B8F4D6"/>
		<stop  offset="1" style="stop-color:#BEF3F0"/>
	</linearGradient>
	<path class="st1" d="M368.7,0c0,0-135.8,128-221.4,158.4C75.5,184,0.7,240.6,0.7,240.6V0H368.7z"/>
	<g class="st2">
		<g>
			<path class="st3" d="M0.7,0v221.8c0,0,8.9-8,24.3-20.3c-1.9-3.7-10.5-23.7,17.9-43.1c37.8-25.9,62.9-27.5,70.3-18
				c12.8-7.6,26.3-15.1,40.2-22C215.9,87.3,321.4,0,321.4,0H0.7z M147.3,102.5c-9.9,0-17.9-7.2-17.9-16.2s8-16.2,17.9-16.2
				s17.9,7.2,17.9,16.2S157.2,102.5,147.3,102.5z"/>
		</g>
	</g>
	<g>
		<linearGradient id="SVGID_3_" gradientUnits="userSpaceOnUse" x1="544.4412" y1="165.3149" x2="944.4228" y2="612.1948">
			<stop  offset="0" style="stop-color:#6881CF"/>
			<stop  offset="1" style="stop-color:#E0C6C6"/>
		</linearGradient>
		<polygon class="st4" points="479.1,387 520.9,303.6 584.8,264.1 641.2,146.3 752.5,103 752.5,387 		"/>
		<linearGradient id="SVGID_4_" gradientUnits="userSpaceOnUse" x1="574.0194" y1="161.6566" x2="839.0788" y2="457.7944">
			<stop  offset="0" style="stop-color:#5C58CA"/>
			<stop  offset="0.8962" style="stop-color:#2265C8;stop-opacity:0"/>
		</linearGradient>
		<polygon class="st5" points="641.2,146.3 727.9,294.2 584.8,264.1 		"/>
		<linearGradient id="SVGID_5_" gradientUnits="userSpaceOnUse" x1="533.5516" y1="234.5037" x2="875.2464" y2="616.2625">
			<stop  offset="0" style="stop-color:#5C58CA"/>
			<stop  offset="0.8962" style="stop-color:#2265C8;stop-opacity:0"/>
		</linearGradient>
		<polygon class="st6" points="727.9,294.2 520.9,303.6 479.1,387 752.5,387 752.5,265.7 		"/>
	</g>
	<linearGradient id="SVGID_6_" gradientUnits="userSpaceOnUse" x1="132.3698" y1="12.2057" x2="-74.4842" y2="483.1288">
		<stop  offset="0" style="stop-color:#E8667C"/>
		<stop  offset="1" style="stop-color:#FE967D"/>
	</linearGradient>
	<path class="st7" d="M274.7,0c0,0-48.1,42.7-86,65.6s-188,92.9-188,92.9V0H274.7z"/>
	<g>
		
			<linearGradient id="SVGID_7_" gradientUnits="userSpaceOnUse" x1="674.0764" y1="214.4718" x2="640.5035" y2="300.9647" gradientTransform="matrix(-0.9564 -0.2922 -0.2922 0.9564 921.6219 132.7009)">
			<stop  offset="0" style="stop-color:#5C58CA"/>
			<stop  offset="0.8962" style="stop-color:#2265C8;stop-opacity:0"/>
		</linearGradient>
		<path class="st8" d="M129.7,127.1l150.7,3.2c0,0,21.5,66.5,21.8,68.2c7.2,47.1-125.4,32-125.4,32S134.4,152.6,129.7,127.1z"/>
		
			<linearGradient id="SVGID_8_" gradientUnits="userSpaceOnUse" x1="603.8682" y1="206.7964" x2="769.9161" y2="206.7964" gradientTransform="matrix(-0.9564 -0.2922 -0.2922 0.9564 921.6219 132.7009)">
			<stop  offset="0" style="stop-color:#FFFEFD"/>
			<stop  offset="1" style="stop-color:#F1D2D5"/>
		</linearGradient>
		
			<ellipse transform="matrix(0.1178 -0.993 0.993 0.1178 51.3364 317.3403)" class="st9" cx="204.3" cy="129.8" rx="34.8" ry="83.6"/>
		
			<linearGradient id="SVGID_9_" gradientUnits="userSpaceOnUse" x1="762.3016" y1="249.4707" x2="735.437" y2="310.6305" gradientTransform="matrix(-0.9564 -0.2922 -0.2922 0.9564 921.6219 132.7009)">
			<stop  offset="0" style="stop-color:#5C58CA"/>
			<stop  offset="0.8962" style="stop-color:#2265C8;stop-opacity:0"/>
		</linearGradient>
		<path class="st10" d="M138.4,152.6c0,0-12.7,15-24.8-12.2c0,0-4.5,10.9-16.8,6c0,0,16.1,40.8,47.5,19.5L138.4,152.6z"/>
		
			<linearGradient id="SVGID_10_" gradientUnits="userSpaceOnUse" x1="521.4097" y1="480.2856" x2="687.4576" y2="480.2856" gradientTransform="matrix(-1.1387 -0.3448 -0.3458 1.1217 1058.6288 -200.5638)">
			<stop  offset="0" style="stop-color:#FFFEFD"/>
			<stop  offset="1" style="stop-color:#F1D2D5"/>
		</linearGradient>
		
			<ellipse transform="matrix(0.1178 -0.993 0.993 0.1178 51.3364 317.3403)" class="st11" cx="204.3" cy="129.8" rx="40.8" ry="99.5"/>
		
			<linearGradient id="SVGID_11_" gradientUnits="userSpaceOnUse" x1="1385.9282" y1="398.5553" x2="1476.8441" y2="658.2112" gradientTransform="matrix(-0.7714 -0.6364 -0.6364 0.7714 1583.7321 612.149)">
			<stop  offset="7.131410e-03" style="stop-color:#C38DE6"/>
			<stop  offset="1" style="stop-color:#2C3DCF"/>
		</linearGradient>
		<path class="st12" d="M282.3,137.6c0,0-15.8-68.7-62.4-107.1c0,0,2.4-12.3-15.1-21c0,0-14.3-0.2-19.4,6.6c0,0-41.5-10.9-60.3-7.7
			s-22,33.2-1.4,71.2s37.3,40.9,33.1,52.2C156.8,131.8,204.1,174.3,282.3,137.6z"/>
		
			<linearGradient id="SVGID_12_" gradientUnits="userSpaceOnUse" x1="721.4322" y1="270.977" x2="757.6125" y2="150.9864" gradientTransform="matrix(-0.9564 -0.2922 -0.2922 0.9564 921.6219 132.7009)">
			<stop  offset="0" style="stop-color:#FC9CA6"/>
			<stop  offset="1" style="stop-color:#FFFFF1"/>
		</linearGradient>
		<path class="st13" d="M113,54.2c0,0-1,49.2,16.6,72.8c0,0,20.6,13.1,62.9,22.1C192.5,149.2,140.6,113,113,54.2z"/>
		
			<linearGradient id="SVGID_13_" gradientUnits="userSpaceOnUse" x1="720.8295" y1="162.395" x2="748.9195" y2="162.395" gradientTransform="matrix(-0.9564 -0.2922 -0.2922 0.9564 921.6219 132.7009)">
			<stop  offset="0" style="stop-color:#FFFEFD"/>
			<stop  offset="1" style="stop-color:#F1D2D5"/>
		</linearGradient>
		<path class="st14" d="M184.9,75.6c0,0-10.6,10.7-20.6,2.9s-2.7-16.8-2.7-16.8"/>
		
			<linearGradient id="SVGID_14_" gradientUnits="userSpaceOnUse" x1="790.6642" y1="221.8977" x2="789.3745" y2="303.1489" gradientTransform="matrix(-0.9564 -0.2922 -0.2922 0.9564 921.6219 132.7009)">
			<stop  offset="7.131410e-03" style="stop-color:#C38DE6"/>
			<stop  offset="1" style="stop-color:#2C3DCF"/>
		</linearGradient>
		<path class="st15" d="M96.9,146.3c0,0-2.8-7-18.9-5.8c0,0-8.9-5.6,0.3-11c9.2-5.5,20.3,2.4,20.3,2.4s-13.6-5.4-9.6-14.3
			s20.4,7.7,24.7,22.7C113.7,140.3,109.3,152.1,96.9,146.3z"/>
	</g>
</g>
</svg>
