<?xml version="1.0" encoding="utf-8"?>
<!-- Generator: Adobe Illustrator 21.0.0, SVG Export Plug-In . SVG Version: 6.00 Build 0)  -->
<svg version="1.1" id="Layer_1" xmlns="http://www.w3.org/2000/svg" xmlns:xlink="http://www.w3.org/1999/xlink" x="0px" y="0px"
	 viewBox="0 0 752.5 387" enable-background="new 0 0 752.5 387" xml:space="preserve">
<g>
	
		<linearGradient id="SVGID_1_" gradientUnits="userSpaceOnUse" x1="376.35" y1="298.3002" x2="376.35" y2="-129.6954" gradientTransform="matrix(1 0 0 -1 0 388)">
		<stop  offset="0" style="stop-color:#7ED1D6"/>
		<stop  offset="1" style="stop-color:#F8F3F0"/>
	</linearGradient>
	<rect x="0.2" fill="url(#SVGID_1_)" width="752.3" height="387"/>
	<linearGradient id="SVGID_2_" gradientUnits="userSpaceOnUse" x1="620.8279" y1="237" x2="620.828" y2="106">
		<stop  offset="0" style="stop-color:#AC99E0"/>
		<stop  offset="3.114984e-02" style="stop-color:#9B7FD5"/>
		<stop  offset="1" style="stop-color:#3351B6"/>
	</linearGradient>
	<polygon fill="url(#SVGID_2_)" points="505.8,173.6 489.2,198.6 752.5,198.6 752.5,0 520.9,0 	"/>
	<linearGradient id="SVGID_3_" gradientUnits="userSpaceOnUse" x1="568.7123" y1="-12" x2="568.7123" y2="142">
		<stop  offset="0" style="stop-color:#FC9CA6"/>
		<stop  offset="0.6546" style="stop-color:#FFFFF1"/>
		<stop  offset="1" style="stop-color:#FFFFF1;stop-opacity:0"/>
	</linearGradient>
	<path fill="url(#SVGID_3_)" d="M679.6,0c0,1.7,0,3.4,0,5.1c0,62.8-19.8,59.3-19.8,59.3c-9.5,3.5-15.5-8.7-11.2-62.9
		c0-0.5,0.1-1,0.1-1.5h-19c-2.4,8.7-5.9,15.6-9.5,20.8c-6.9,9.9-8.6,74.4-23.6,75.3s-17.8-16-17.8-16v3.5c-3-28.4-8.1-58-12.1-83.6
		h-23.4l-5.7,141l-10.1,16.6c0,0-43.7,39.6-34.3-136.5c0.4-7.8,1.4-14.9,2.1-21.1h-21.8c0.5,7.6,1.2,15.3,0.6,21.1
		c-1.2,10.5-18.5,85.4-31.8,141.9h226.3l26.5-9V0H679.6z"/>
	
		<linearGradient id="SVGID_4_" gradientUnits="userSpaceOnUse" x1="310.4501" y1="71.0355" x2="727.1148" y2="58.1656" gradientTransform="matrix(1 0 0 -1 0 388)">
		<stop  offset="0" style="stop-color:#E8667C"/>
		<stop  offset="1" style="stop-color:#FE967D"/>
	</linearGradient>
	<path fill="url(#SVGID_4_)" d="M0.2,387h752.3V251c0,0-222,68.8-296,68c-62.4-0.7-211.7,45.6-368.3,62.3
		C58.9,384.4,29.5,386.4,0.2,387z"/>
	
		<linearGradient id="SVGID_5_" gradientUnits="userSpaceOnUse" x1="732.8085" y1="179.0168" x2="-94.4012" y2="93.6048" gradientTransform="matrix(1 0 0 -1 0 388)">
		<stop  offset="0" style="stop-color:#E8667C"/>
		<stop  offset="1" style="stop-color:#FE967D"/>
	</linearGradient>
	<path fill="url(#SVGID_5_)" d="M752.5,26.9L475.7,168.3c0,0-145.6,108.5-332.4,138.3c-42.2,6.7-100.1,11.2-143.1,20.2V387h752.3
		V139.5"/>
	
		<linearGradient id="SVGID_6_" gradientUnits="userSpaceOnUse" x1="476.4687" y1="155.8995" x2="476.4687" y2="-23.916" gradientTransform="matrix(1 0 0 -1 0 388)">
		<stop  offset="0" style="stop-color:#FC9CA6"/>
		<stop  offset="1" style="stop-color:#FFFFF1"/>
	</linearGradient>
	<path fill="url(#SVGID_6_)" d="M453.7,387c0,0,6.9-12.9,0-33.6c-6.9-20.6-18.1-67.1-6-60.2c12,6.9,13.8,49,23.2,65.4
		c9.5,16.3,11.2,18.1,17.2,17.2s-5.2-45.6-5.2-59.4s12-71.4,18.1-61.9c6,9.5,10.3,22.4,9.5,36.1c-0.9,13.8-11.2,23.2-9.5,43
		s9.6,53.3,9.6,53.3h-56.9V387z"/>
	
		<linearGradient id="SVGID_7_" gradientUnits="userSpaceOnUse" x1="713.2687" y1="155.8995" x2="713.2687" y2="-23.916" gradientTransform="matrix(1 0 0 -1 0 388)">
		<stop  offset="0" style="stop-color:#FC9CA6"/>
		<stop  offset="1" style="stop-color:#FFFFF1"/>
	</linearGradient>
	<path fill="url(#SVGID_7_)" d="M690.5,387c0,0,6.9-12.9,0-33.6c-6.9-20.6-18.1-67.1-6-60.2c12,6.9,13.8,49,23.2,65.4
		c9.5,16.3,11.2,18.1,17.2,17.2s-5.2-45.6-5.2-59.4s12-71.4,18.1-61.9c6,9.5,10.3,22.4,9.5,36.1c-0.9,13.8-11.2,23.2-9.5,43
		s9.6,53.3,9.6,53.3h-56.9V387z"/>
	
		<linearGradient id="SVGID_8_" gradientUnits="userSpaceOnUse" x1="604.3807" y1="304.0761" x2="615.6876" y2="-14.1314" gradientTransform="matrix(1 0 0 -1 0 388)">
		<stop  offset="0" style="stop-color:#FC9CA6"/>
		<stop  offset="1" style="stop-color:#FFFFF1"/>
	</linearGradient>
	<path fill="url(#SVGID_8_)" d="M556.1,387c0,0,11.5-32.8,6.9-52.5c-4.6-19.7-1.3-63.8,1.1-73.2c2.4-9.4,16.1-32.8,18.4-23.5
		c2.3,9.4,2.3,30,0,43.2c-2.3,13.1,1.4,41.8,8.9,38.1c7.5-3.8,5.8,3,17.5-19.3c0,0-3.8-25.7,8.6-41.3c9.2-11.5,2.2-67,1-88.6
		s9.2-68.6,9.8-87.3c0.6-18.8,11.5-20.6,11.5-8.4s-7.8,99.6-3.3,118.3c4.6,18.8,14.9,123.9,13.6,146.5c-2.9,50.9,24.1,48,24.1,48
		L556.1,387L556.1,387z"/>
	<g>
		<g>
			
				<linearGradient id="SVGID_9_" gradientUnits="userSpaceOnUse" x1="355.2853" y1="246.8114" x2="644.5074" y2="264.9634" gradientTransform="matrix(1 0 0 -1 0 388)">
				<stop  offset="7.131410e-03" style="stop-color:#4E61D4"/>
				<stop  offset="1" style="stop-color:#18135D"/>
			</linearGradient>
			<path fill="url(#SVGID_9_)" d="M402,119.8c0,0,17-14.8,32.9-11.3c9.4,2,6.2,11.3,14.8,11.3c8.5,0,5.7-26.7,11.3-29.5
				s19.9-13.6,37.4-7.9c17.6,5.7,27.8-5.7,36.3-5.7s11.3,2.3,20.4-4c9.1-6.2,4.6,21.4-12.4,30.5s-21.6,17.8-17.1,24.6
				s9.8,37.6-18.7,52.8c-34,18.2-44.9,4.4-77.2,9.5s1.7-36.2,1.7-36.2L402,119.8z"/>
			
				<linearGradient id="SVGID_10_" gradientUnits="userSpaceOnUse" x1="253.4868" y1="231.1877" x2="660.2951" y2="256.7196" gradientTransform="matrix(1 0 0 -1 0 388)">
				<stop  offset="7.131410e-03" style="stop-color:#C38DE6"/>
				<stop  offset="1" style="stop-color:#2C3DCF"/>
			</linearGradient>
			<path fill="url(#SVGID_10_)" d="M329.8,170.5c0,0-9.8,14.4-6.1,15.1c3.8,0.8,10.6,4.5,10.6,4.5l-4,8.1l9.3,1.7
				c0,0,56.7,12.1,111.2-20.4c0,0,59-13.3,59-30.1s-25.5-30.4-8.2-38s47.5-16.6,40-23.5C534,81.1,531,97,521.2,97
				c-9.8,0-46.9,5.3-40.9,24.2c6.1,18.9-17.4,23.2-34,22.9c0,0-32.4-61.4-91.5-27.5C354.7,116.7,319.2,137.8,329.8,170.5z"/>
			
				<linearGradient id="SVGID_11_" gradientUnits="userSpaceOnUse" x1="354.7061" y1="259.2581" x2="398.2715" y2="283.3098" gradientTransform="matrix(1 0 0 -1 0 388)">
				<stop  offset="0" style="stop-color:#FC9CA6"/>
				<stop  offset="0.6546" style="stop-color:#FFFFF1"/>
				<stop  offset="1" style="stop-color:#FFFFF1;stop-opacity:0"/>
			</linearGradient>
			<path opacity="0.43" fill="url(#SVGID_11_)" enable-background="new    " d="M363.1,120.3c0,0-11.3,3-10,9c1,4.5,12.7-0.5,13.9-5
				C367.9,121,366.5,120.3,363.1,120.3z"/>
			
				<linearGradient id="SVGID_12_" gradientUnits="userSpaceOnUse" x1="352.5647" y1="213.1592" x2="367.1726" y2="213.1592" gradientTransform="matrix(1 0 0 -1 0 388)">
				<stop  offset="0" style="stop-color:#FFFEFD"/>
				<stop  offset="1" style="stop-color:#F1D2D5"/>
			</linearGradient>
			<path opacity="0.53" fill="none" stroke="url(#SVGID_12_)" stroke-miterlimit="10" enable-background="new    " d="M353.1,170.4
				c0,0-0.4,9.1,7.9,8.3c0,0,4.2-0.5,5.7-5.8"/>
		</g>
		
			<linearGradient id="SVGID_13_" gradientUnits="userSpaceOnUse" x1="271.4186" y1="277.5437" x2="344.7697" y2="282.1473" gradientTransform="matrix(1 0 0 -1 0 388)">
			<stop  offset="0" style="stop-color:#B8F4D6"/>
			<stop  offset="1" style="stop-color:#BEF3F0"/>
		</linearGradient>
		<path opacity="0.72" fill="url(#SVGID_13_)" enable-background="new    " d="M306.2,86.3c0,0-18.9-3.8-21.7,13.3
			c-2.8,17.1-0.2,36,24.5,30.6C333.7,124.8,325.3,89.8,306.2,86.3z"/>
		
			<linearGradient id="SVGID_14_" gradientUnits="userSpaceOnUse" x1="320.6961" y1="306.1252" x2="354.4407" y2="308.243" gradientTransform="matrix(1 0 0 -1 0 388)">
			<stop  offset="0" style="stop-color:#B8F4D6"/>
			<stop  offset="1" style="stop-color:#BEF3F0"/>
		</linearGradient>
		<path opacity="0.72" fill="url(#SVGID_14_)" enable-background="new    " d="M336.7,71.3c0,0-8.7-1.6-10,5.8s-0.1,15.6,11.3,13.3
			C349.4,88,345.5,72.9,336.7,71.3z"/>
		
			<linearGradient id="SVGID_15_" gradientUnits="userSpaceOnUse" x1="302.7262" y1="345.0094" x2="318.0113" y2="345.9687" gradientTransform="matrix(1 0 0 -1 0 388)">
			<stop  offset="0" style="stop-color:#B8F4D6"/>
			<stop  offset="1" style="stop-color:#BEF3F0"/>
		</linearGradient>
		<path opacity="0.72" fill="url(#SVGID_15_)" enable-background="new    " d="M310,38.2c0,0-3.9-0.7-4.5,2.6c-0.6,3.3,0,7.1,5.1,6
			C315.7,45.7,313.9,38.9,310,38.2z"/>
	</g>
</g>
</svg>
