<?xml version="1.0" encoding="utf-8"?>
<!-- Generator: Adobe Illustrator 21.0.0, SVG Export Plug-In . SVG Version: 6.00 Build 0)  -->
<svg version="1.1" id="Layer_1" xmlns="http://www.w3.org/2000/svg" xmlns:xlink="http://www.w3.org/1999/xlink" x="0px" y="0px"
	 viewBox="0 0 752.5 387" style="enable-background:new 0 0 752.5 387;" xml:space="preserve">
<style type="text/css">
	.st0{fill:url(#SVGID_1_);}
	.st1{fill:url(#SVGID_2_);}
	.st2{opacity:0.72;fill:url(#SVGID_3_);}
	.st3{opacity:0.95;}
	.st4{fill:#F3FFFD;}
	.st5{fill:url(#SVGID_4_);}
	.st6{fill:url(#SVGID_5_);}
	.st7{fill:url(#SVGID_6_);}
	.st8{fill:url(#SVGID_7_);}
	.st9{fill:url(#SVGID_8_);}
	.st10{opacity:0.43;fill:url(#SVGID_9_);}
	.st11{opacity:0.53;fill:none;stroke:url(#SVGID_10_);stroke-miterlimit:10;}
</style>
<g>
	<linearGradient id="SVGID_1_" gradientUnits="userSpaceOnUse" x1="376.2416" y1="38.4837" x2="376.2416" y2="504.4546">
		<stop  offset="0" style="stop-color:#7ED1D6"/>
		<stop  offset="1" style="stop-color:#F8F3F0"/>
	</linearGradient>
	<rect x="0" y="0.1" class="st0" width="752.5" height="386.8"/>
	<linearGradient id="SVGID_2_" gradientUnits="userSpaceOnUse" x1="388.8139" y1="236.5838" x2="561.5434" y2="510.2937">
		<stop  offset="0" style="stop-color:#E8667C"/>
		<stop  offset="1" style="stop-color:#FE967D"/>
	</linearGradient>
	<path class="st1" d="M552.8,92.7l-101,11.8l-85.3,16.9l-24.9,36.4c0,0-73.5-9-126.7,7.4c-16.3,5.1-84.1,37.3-113,55l0,0L0,256
		v130.9h91.4h661.1V46.4L552.8,92.7z"/>
	<linearGradient id="SVGID_3_" gradientUnits="userSpaceOnUse" x1="81.1555" y1="200.4447" x2="83.1916" y2="-9.2786">
		<stop  offset="0" style="stop-color:#B8F4D6"/>
		<stop  offset="1" style="stop-color:#BEF3F0"/>
	</linearGradient>
	<path class="st2" d="M166.2,0.1c0,0-67.4,46-99.3,78.3c-33.5,33.9-67,48.9-67,48.9V0.1H166.2z"/>
	<g class="st3">
		<g>
			<path class="st4" d="M0,0.1v92.6c0,0,4.6-4.6,12.4-11.6c0,0-10.6-23.4,4.3-34.7c18-13.6,34-2.8,37.5,2.3l0,0
				c6.1-4,12.5-8,19.1-11.6c29.7-16.4,48.3-37,48.3-37H0z M70.3,29.7c-6.3,0-11.4-5.1-11.4-11.4S64.1,7,70.3,7s11.4,5.1,11.4,11.4
				S76.6,29.7,70.3,29.7z"/>
		</g>
	</g>
	<linearGradient id="SVGID_4_" gradientUnits="userSpaceOnUse" x1="197.6039" y1="134.7992" x2="62.0816" y2="-82.5038">
		<stop  offset="0" style="stop-color:#B8F4D6;stop-opacity:0"/>
		<stop  offset="1" style="stop-color:#E6F3F0"/>
	</linearGradient>
	<path class="st5" d="M398.1,0.1c0,0-121.2,176.7-181.4,207.7S0,274.2,0,274.2V0.1H398.1z"/>
	<linearGradient id="SVGID_5_" gradientUnits="userSpaceOnUse" x1="696.9745" y1="113.5512" x2="698.1283" y2="-5.2872">
		<stop  offset="0" style="stop-color:#AC99E0"/>
		<stop  offset="3.114984e-02" style="stop-color:#9B7FD5"/>
		<stop  offset="1" style="stop-color:#3351B6"/>
	</linearGradient>
	<polygon class="st6" points="642.5,72 666,45.9 683.2,34.2 683.2,0.1 752.5,0.1 752.5,48 	"/>
	<linearGradient id="SVGID_6_" gradientUnits="userSpaceOnUse" x1="710.2654" y1="127.5711" x2="719.9191" y2="399.2536">
		<stop  offset="0" style="stop-color:#FC9CA6"/>
		<stop  offset="1" style="stop-color:#FFFFF1"/>
	</linearGradient>
	<path class="st7" d="M739.1,172.7c1.1,21.6,8.2,77.1-1,88.6c-12.4,15.6-8.6,41.3-8.6,41.3c0,54.4-14.9,78.3-24.7,76
		c-8.1-1.9-7.5-30-5.2-43.2c2.3-13.1,2.3-33.8,0-43.2c-2.3-9.4-11.5,15.1-13.9,24.4c-2.4,9.4-2.4,9.4-2.2,20.6
		c0.3,20.2-6.9,49.6-6.9,49.6h75.8V112C748.4,130.6,738.1,155,739.1,172.7z"/>
	<g>
		<g>
			<linearGradient id="SVGID_7_" gradientUnits="userSpaceOnUse" x1="179.8218" y1="92.2236" x2="543.8995" y2="217.9312">
				<stop  offset="7.131410e-03" style="stop-color:#4E61D4"/>
				<stop  offset="1" style="stop-color:#18135D"/>
			</linearGradient>
			<path class="st8" d="M257.4,117.4c0,0,45.7-31.4,109.1,4s88.8-22,151.5,11.3c42.5,22.6,53.5,16.6,59.7,26.8
				c6.2,10.1-16,11.4-51.6,13.6c-47.6,2.9-62,34.4-102.7,45.6c-35.4,9.7-66.6,7.7-92.1-5.2c-36.7-18.6-57.5-29.2-104.7-29.4
				S257.4,117.4,257.4,117.4"/>
			<g>
				<g>
					<linearGradient id="SVGID_8_" gradientUnits="userSpaceOnUse" x1="-6.3702" y1="65.2681" x2="501.792" y2="240.7248">
						<stop  offset="7.131410e-03" style="stop-color:#C38DE6"/>
						<stop  offset="1" style="stop-color:#2C3DCF"/>
					</linearGradient>
					<path class="st9" d="M551.1,154.2c-16.1-6.3-42.3-11.8-79.3-4.5c0,0-65,20.9-137.3-6.1c0,0-38-16.2-75.6-9.2
						c0.6-11.6-2.4-21.9-5.2-28.7c3.2-5.4,5.8-11.9,6.1-19.2c0,0,12.8,34.1,22.6,29.9s-2.2-33.1,7.2-25.5s17.4,14.3,18.2,6.8
						s-18.9-24.9-25-21.2l-7.7,8c0,0-10-26.8-44.4-1.7c-18.8-10.2-43.5-17.6-43.5-17.6c5.6-23.3,28.9-23.3,28.9-23.3
						s-8.4,15.9,8.4,18.7c16.8,2.8,11.2-9.3,11.2-9.3c-10.3-2.8,2.8-14,2.8-14c20.4,4.2,31.7-7.5-5.6-13.1
						c-37.3-5.6-59.7,34.5-59.7,34.5C84.6,33.4,65,81.9,65,107.1c0,25.2,37.6,47.1,37.6,47.1c5.6,4.8,14.6,9.7,21,12.9
						c-6.1,11.8-14.3,35.3,0.5,57.6c20.9,31.4,27.3,13.5,14.9-3.1c0,0,2.1-10.4,9-2.3c0,0,13.4,3.1,3.7-10.9
						c-9.7-14-21.2,2.9-21.2,2.9s-7.8-22.8,5.7-38.1c21.2,9.7,38.2,14.2,51.4,16c-10.4,43.2,18.9,41.7,18.9,41.7l-4.2,10.3
						c-0.9,7,22.9,18.2,29.4,14.5c6.5-3.7-2.8-8.4-13.5-14c-10.7-5.6,20.5-6.1,20.5-16.8c0-10.7-36.4-8.9-36.4-8.9
						c18.2-8.9,24.3-31.7,24.3-31.7c7.7-4.9,13.7-10.1,18.3-15.4c15.1-4.3,55.2-11.3,111.6,10.8c65.7,25.7,127.5-30.6,193.3-20.1
						C552.8,159.9,554.1,155.4,551.1,154.2z"/>
				</g>
			</g>
		</g>
		
			<linearGradient id="SVGID_9_" gradientUnits="userSpaceOnUse" x1="-447.5228" y1="333.607" x2="-403.9422" y2="309.5469" gradientTransform="matrix(0.921 0.3896 -0.3896 0.921 657.0345 -67.3132)">
			<stop  offset="0" style="stop-color:#FC9CA6"/>
			<stop  offset="0.6546" style="stop-color:#FFFFF1"/>
			<stop  offset="1" style="stop-color:#FFFFF1;stop-opacity:0"/>
		</linearGradient>
		<path class="st10" d="M125.9,61.1c0,0-11.5-1.6-12.7,4.4c-0.9,4.5,11.9,4.5,14.7,0.8C130.1,63.6,129,62.4,125.9,61.1z"/>
		<linearGradient id="SVGID_10_" gradientUnits="userSpaceOnUse" x1="101.3537" y1="125.2314" x2="117.5651" y2="125.2314">
			<stop  offset="0" style="stop-color:#FFFEFD"/>
			<stop  offset="1" style="stop-color:#F1D2D5"/>
		</linearGradient>
		<path class="st11" d="M102.2,117.4c0,0-2.9,14.5,7.2,15.3c0,0,5.5,0.7,7.7-6.1"/>
	</g>
</g>
</svg>
