<?xml version="1.0" encoding="utf-8"?>
<!-- Generator: Adobe Illustrator 21.0.0, SVG Export Plug-In . SVG Version: 6.00 Build 0)  -->
<svg version="1.1" id="Layer_1" xmlns="http://www.w3.org/2000/svg" xmlns:xlink="http://www.w3.org/1999/xlink" x="0px" y="0px"
	 viewBox="0 0 752.5 387" enable-background="new 0 0 752.5 387" xml:space="preserve">
<linearGradient id="SVGID_1_" gradientUnits="userSpaceOnUse" x1="362.9112" y1="383.4669" x2="387.8252" y2="30.5178" gradientTransform="matrix(1 0 0 -1 0 388)">
	<stop  offset="7.131410e-03" style="stop-color:#AF87D8"/>
	<stop  offset="1" style="stop-color:#3F3FCF"/>
</linearGradient>
<rect fill="url(#SVGID_1_)" width="752.5" height="387"/>
<linearGradient id="SVGID_2_" gradientUnits="userSpaceOnUse" x1="370.7364" y1="320.5181" x2="383.0628" y2="-26.3827" gradientTransform="matrix(1 0 0 -1 0 388)">
	<stop  offset="7.131410e-03" style="stop-color:#4E61D4"/>
	<stop  offset="1" style="stop-color:#182A88"/>
</linearGradient>
<polygon fill="url(#SVGID_2_)" points="0,159.2 123.9,58.3 752.5,58.3 752.5,387 0,387 "/>
<linearGradient id="SVGID_3_" gradientUnits="userSpaceOnUse" x1="754.2192" y1="107.2" x2="714.4732" y2="107.2" gradientTransform="matrix(1 0 0 -1 0 388)">
	<stop  offset="0.1902" style="stop-color:#182A88"/>
	<stop  offset="0.2753" style="stop-color:#182A88"/>
	<stop  offset="1" style="stop-color:#182A88"/>
</linearGradient>
<polygon fill="url(#SVGID_3_)" points="730.6,174.5 752.3,191 741.1,387 701,387.1 "/>
<linearGradient id="SVGID_4_" gradientUnits="userSpaceOnUse" x1="107.7019" y1="98.6" x2="68.5939" y2="98.6" gradientTransform="matrix(1 0 0 -1 0 388)">
	<stop  offset="7.131410e-03" style="stop-color:#3352D4"/>
	<stop  offset="1" style="stop-color:#182A88"/>
</linearGradient>
<polygon fill="url(#SVGID_4_)" points="62.3,387.4 55.3,202.5 101.5,191.4 105.8,387.1 "/>
<linearGradient id="SVGID_5_" gradientUnits="userSpaceOnUse" x1="124.9504" y1="68.6856" x2="122.9504" y2="134.0189">
	<stop  offset="0" style="stop-color:#FFFEFD"/>
	<stop  offset="1" style="stop-color:#F1D2D5"/>
</linearGradient>
<path fill="url(#SVGID_5_)" d="M154.7,387.2l-30.8-273.5L93.1,141c0,0,0.7,11.3,1.7,29L82,181.4c0,0,8.1,133.5,11.3,206h44.8l0-0.2
	H154.7z"/>
<linearGradient id="SVGID_6_" gradientUnits="userSpaceOnUse" x1="252.1633" y1="288.5949" x2="296.9239" y2="-96.0662" gradientTransform="matrix(1 0 0 -1 0 388)">
	<stop  offset="0" style="stop-color:#FFFEFD"/>
	<stop  offset="1" style="stop-color:#F1D2D5"/>
</linearGradient>
<path fill="url(#SVGID_6_)" d="M131.7,387.4L118.4,95.2c0,0,67.9-37.2,201.1-18.4c0,0,55.6,12.9,85.3,11.1l10.8,299.2L131.7,387.4z"
	/>
<linearGradient id="SVGID_7_" gradientUnits="userSpaceOnUse" x1="152.7" y1="260.8527" x2="370.8" y2="260.8527" gradientTransform="matrix(1 0 0 -1 0 388)">
	<stop  offset="9.030449e-02" style="stop-color:#C0769B"/>
	<stop  offset="1" style="stop-color:#DDA09F"/>
</linearGradient>
<path opacity="0.21" fill="none" stroke="url(#SVGID_7_)" stroke-width="4" stroke-linecap="round" stroke-miterlimit="10" enable-background="new    " d="
	M368.8,135.3c0,0-115.3-32.2-214.1-6.1"/>
<linearGradient id="SVGID_8_" gradientUnits="userSpaceOnUse" x1="163.7" y1="199.1994" x2="365.9" y2="199.1994" gradientTransform="matrix(1 0 0 -1 0 388)">
	<stop  offset="9.030449e-02" style="stop-color:#C0769B"/>
	<stop  offset="1" style="stop-color:#DDA09F"/>
</linearGradient>
<path opacity="0.21" fill="none" stroke="url(#SVGID_8_)" stroke-width="4" stroke-linecap="round" stroke-miterlimit="10" enable-background="new    " d="
	M363.9,197.8c0,0-99.4-34.3-198.2-8.2"/>
<linearGradient id="SVGID_9_" gradientUnits="userSpaceOnUse" x1="163.7" y1="133.0201" x2="365.9" y2="133.0201" gradientTransform="matrix(1 0 0 -1 0 388)">
	<stop  offset="9.030449e-02" style="stop-color:#C0769B"/>
	<stop  offset="1" style="stop-color:#DDA09F"/>
</linearGradient>
<path opacity="0.21" fill="none" stroke="url(#SVGID_9_)" stroke-width="4" stroke-linecap="round" stroke-miterlimit="10" enable-background="new    " d="
	M363.9,261.5c0,0-100.1-22.7-198.2-8.2"/>
<linearGradient id="SVGID_10_" gradientUnits="userSpaceOnUse" x1="165.2" y1="62.2836" x2="365.9" y2="62.2836" gradientTransform="matrix(1 0 0 -1 0 388)">
	<stop  offset="9.030449e-02" style="stop-color:#C0769B"/>
	<stop  offset="1" style="stop-color:#DDA09F"/>
</linearGradient>
<path opacity="0.21" fill="none" stroke="url(#SVGID_10_)" stroke-width="4" stroke-linecap="round" stroke-miterlimit="10" enable-background="new    " d="
	M363.9,332.3c0,0-98.5-22.9-196.7-8.3"/>
<linearGradient id="SVGID_11_" gradientUnits="userSpaceOnUse" x1="695.4357" y1="86.1494" x2="693.4357" y2="151.4827">
	<stop  offset="0" style="stop-color:#FFFEFD"/>
	<stop  offset="1" style="stop-color:#F1D2D5"/>
</linearGradient>
<path fill="url(#SVGID_11_)" d="M733.7,153.6l-15.1-11.2c1.6-14.8,2.7-23.9,2.7-23.9l-34.1-24.3l-41.3,292.7h30.5l0,0.1l40.7,0.1
	C711.3,299.1,733.7,153.6,733.7,153.6z"/>
<linearGradient id="SVGID_12_" gradientUnits="userSpaceOnUse" x1="554.0601" y1="282.1234" x2="581.9987" y2="-41.9641" gradientTransform="matrix(1 0 0 -1 0 388)">
	<stop  offset="0" style="stop-color:#FFFEFD"/>
	<stop  offset="1" style="stop-color:#F1D2D5"/>
</linearGradient>
<path fill="url(#SVGID_12_)" d="M441.4,87.9c0,0,35.8-1.4,62-16.4c38.2-21.9,127.8-31.2,184.6,0L676.4,387l-235,0.1L441.4,87.9
	L441.4,87.9z"/>
<linearGradient id="SVGID_13_" gradientUnits="userSpaceOnUse" x1="411.4096" y1="14.2009" x2="422.5997" y2="148.4826" gradientTransform="matrix(1 0 0 -1 0 388)">
	<stop  offset="9.030449e-02" style="stop-color:#C0769B"/>
	<stop  offset="1" style="stop-color:#DDA09F"/>
</linearGradient>
<path fill="url(#SVGID_13_)" d="M395.2,387.1c0,0,3.7-282.4,9.6-299.2c0,0,18.4-8.3,36.6,0v299.2H395.2z"/>
<linearGradient id="SVGID_14_" gradientUnits="userSpaceOnUse" x1="462.6277" y1="151.9046" x2="567.2773" y2="169.3462" gradientTransform="matrix(1 0 0 -1 0 388)">
	<stop  offset="0" style="stop-color:#F1D2D5;stop-opacity:0"/>
	<stop  offset="1" style="stop-color:#F1D2D5"/>
</linearGradient>
<path opacity="0.35" fill="url(#SVGID_14_)" enable-background="new    " d="M503.4,387.1V71.5c-26.2,15-62,16.4-62,16.4l6.7,223.7
	L503.4,387.1z"/>
<linearGradient id="SVGID_15_" gradientUnits="userSpaceOnUse" x1="353.8828" y1="308.5089" x2="348.8741" y2="207.8792" gradientTransform="matrix(1 0 0 -1 0 388)">
	<stop  offset="0" style="stop-color:#FFFEFD"/>
	<stop  offset="1" style="stop-color:#F1D2D5"/>
</linearGradient>
<path opacity="0.48" fill="url(#SVGID_15_)" enable-background="new    " d="M355.7,217.6l4.1-1.3c-2.2-15.6,8.7-112.9,10.3-130.4
	c-9.2-1.2-18.3-2.7-26.2-4.1c-2.1,0-3.4,0.1-3.4,0.1c-9,67-8.1,117.4-8.1,117.4L355.7,217.6z"/>
<linearGradient id="SVGID_16_" gradientUnits="userSpaceOnUse" x1="346.1893" y1="311.0005" x2="341.0509" y2="207.7654" gradientTransform="matrix(1 0 0 -1 0 388)">
	<stop  offset="1.802885e-03" style="stop-color:#EFEFD8"/>
	<stop  offset="1" style="stop-color:#FFC4D2"/>
</linearGradient>
<path fill="url(#SVGID_16_)" d="M363.9,85c0,0-10.7,115.4-8.2,132.5L341,206.7l-14.7,10.9c0,0-5.4-71.6,3.5-138.5
	C329.8,79,351.9,79.9,363.9,85z"/>
<linearGradient id="SVGID_17_" gradientUnits="userSpaceOnUse" x1="475" y1="266.8271" x2="656.3" y2="266.8271" gradientTransform="matrix(1 0 0 -1 0 388)">
	<stop  offset="9.030449e-02" style="stop-color:#C0769B"/>
	<stop  offset="1" style="stop-color:#DDA09F"/>
</linearGradient>
<path opacity="0.21" fill="none" stroke="url(#SVGID_17_)" stroke-width="4" stroke-linecap="round" stroke-miterlimit="10" enable-background="new    " d="
	M477,134.9c0,0,5.7,4,46.9-14.1c65.7-28.9,130.4-3.2,130.4-3.2"/>
<linearGradient id="SVGID_18_" gradientUnits="userSpaceOnUse" x1="475" y1="198.3271" x2="653.4" y2="198.3271" gradientTransform="matrix(1 0 0 -1 0 388)">
	<stop  offset="9.030449e-02" style="stop-color:#C0769B"/>
	<stop  offset="1" style="stop-color:#DDA09F"/>
</linearGradient>
<path opacity="0.21" fill="none" stroke="url(#SVGID_18_)" stroke-width="4" stroke-linecap="round" stroke-miterlimit="10" enable-background="new    " d="
	M477,203.4c0,0,2.8,4,44-14.1c65.7-28.9,130.4-3.2,130.4-3.2"/>
<linearGradient id="SVGID_19_" gradientUnits="userSpaceOnUse" x1="475" y1="134.6704" x2="656.3" y2="134.6704" gradientTransform="matrix(1 0 0 -1 0 388)">
	<stop  offset="9.030449e-02" style="stop-color:#C0769B"/>
	<stop  offset="1" style="stop-color:#DDA09F"/>
</linearGradient>
<path opacity="0.21" fill="none" stroke="url(#SVGID_19_)" stroke-width="4" stroke-linecap="round" stroke-miterlimit="10" enable-background="new    " d="
	M477,265.7c0,0,4.7,2.7,46.9-13c67.1-24.8,130.4-3.2,130.4-3.2"/>
<linearGradient id="SVGID_20_" gradientUnits="userSpaceOnUse" x1="470.4" y1="67.0759" x2="653.4" y2="67.0759" gradientTransform="matrix(1 0 0 -1 0 388)">
	<stop  offset="9.030449e-02" style="stop-color:#C0769B"/>
	<stop  offset="1" style="stop-color:#DDA09F"/>
</linearGradient>
<path opacity="0.21" fill="none" stroke="url(#SVGID_20_)" stroke-width="4" stroke-linecap="round" stroke-miterlimit="10" enable-background="new    " d="
	M472.4,330.5c0,0,5.4,2,48.6-10.5c78.4-22.5,130.4,5.4,130.4,5.4"/>
</svg>
