<?xml version="1.0" encoding="utf-8"?>
<!-- Generator: Adobe Illustrator 21.0.0, SVG Export Plug-In . SVG Version: 6.00 Build 0)  -->
<svg version="1.1" id="Layer_1" xmlns="http://www.w3.org/2000/svg" xmlns:xlink="http://www.w3.org/1999/xlink" x="0px" y="0px"
	 viewBox="0 0 752.5 387" style="enable-background:new 0 0 752.5 387;" xml:space="preserve">
<style type="text/css">
	.st0{fill:url(#SVGID_1_);}
	.st1{fill:url(#SVGID_2_);}
	.st2{fill:url(#SVGID_3_);}
	.st3{fill:url(#SVGID_4_);}
	.st4{fill:url(#SVGID_5_);}
	.st5{fill:url(#SVGID_6_);}
	.st6{fill:url(#SVGID_7_);}
	.st7{opacity:0.21;fill:none;stroke:url(#SVGID_8_);stroke-width:4;stroke-linecap:round;stroke-miterlimit:10;}
	.st8{opacity:0.21;fill:none;stroke:url(#SVGID_9_);stroke-width:4;stroke-linecap:round;stroke-miterlimit:10;}
	.st9{opacity:0.21;fill:none;stroke:url(#SVGID_10_);stroke-width:4;stroke-linecap:round;stroke-miterlimit:10;}
	.st10{opacity:0.21;fill:none;stroke:url(#SVGID_11_);stroke-width:4;stroke-linecap:round;stroke-miterlimit:10;}
	.st11{opacity:0.21;fill:none;stroke:url(#SVGID_12_);stroke-width:4;stroke-linecap:round;stroke-miterlimit:10;}
	.st12{fill:url(#SVGID_13_);}
	.st13{fill:url(#SVGID_14_);}
	.st14{fill:url(#SVGID_15_);}
	.st15{fill:url(#SVGID_16_);}
	.st16{fill:url(#SVGID_17_);}
	.st17{fill:url(#SVGID_18_);}
	.st18{opacity:0.35;fill:url(#SVGID_19_);}
	.st19{opacity:0.48;fill:url(#SVGID_20_);}
	.st20{fill:url(#SVGID_21_);}
	.st21{opacity:0.21;fill:none;stroke:url(#SVGID_22_);stroke-width:4;stroke-linecap:round;stroke-miterlimit:10;}
	.st22{opacity:0.21;fill:none;stroke:url(#SVGID_23_);stroke-width:4;stroke-linecap:round;stroke-miterlimit:10;}
	.st23{opacity:0.21;fill:none;stroke:url(#SVGID_24_);stroke-width:4;stroke-linecap:round;stroke-miterlimit:10;}
	.st24{opacity:0.21;fill:none;stroke:url(#SVGID_25_);stroke-width:4;stroke-linecap:round;stroke-miterlimit:10;}
	.st25{opacity:0.21;fill:none;stroke:url(#SVGID_26_);stroke-width:4;stroke-linecap:round;stroke-miterlimit:10;}
</style>
<linearGradient id="SVGID_1_" gradientUnits="userSpaceOnUse" x1="362.9112" y1="4.5331" x2="387.8252" y2="357.4822">
	<stop  offset="7.131410e-03" style="stop-color:#AF87D8"/>
	<stop  offset="1" style="stop-color:#3F3FCF"/>
</linearGradient>
<rect class="st0" width="752.5" height="387"/>
<linearGradient id="SVGID_2_" gradientUnits="userSpaceOnUse" x1="370.7366" y1="67.4819" x2="383.063" y2="414.3827">
	<stop  offset="7.131410e-03" style="stop-color:#4E61D4"/>
	<stop  offset="1" style="stop-color:#182A88"/>
</linearGradient>
<polygon class="st1" points="0,159.2 123.9,58.3 752.5,58.3 752.5,387 0,387 "/>
<linearGradient id="SVGID_3_" gradientUnits="userSpaceOnUse" x1="754.2192" y1="280.773" x2="714.4732" y2="280.773">
	<stop  offset="0.1902" style="stop-color:#182A88"/>
	<stop  offset="0.2753" style="stop-color:#182A88"/>
	<stop  offset="1" style="stop-color:#182A88"/>
</linearGradient>
<polygon class="st2" points="730.6,174.5 752.3,191 741.1,387 701,387.1 704.6,293.1 "/>
<linearGradient id="SVGID_4_" gradientUnits="userSpaceOnUse" x1="107.7019" y1="289.4397" x2="68.5939" y2="289.4397">
	<stop  offset="7.131410e-03" style="stop-color:#3352D4"/>
	<stop  offset="1" style="stop-color:#182A88"/>
</linearGradient>
<polygon class="st3" points="62.3,387.4 55.3,202.5 101.5,191.4 105.8,387.1 "/>
<linearGradient id="SVGID_5_" gradientUnits="userSpaceOnUse" x1="103.6179" y1="116.7184" x2="108.3751" y2="241.5951">
	<stop  offset="0" style="stop-color:#FFFEFD"/>
	<stop  offset="1" style="stop-color:#E1B9BC"/>
</linearGradient>
<path class="st4" d="M107.3,159l-25.3,22.4c0,0,8.1,133.5,11.3,206l44.8,0L107.3,159z"/>
<linearGradient id="SVGID_6_" gradientUnits="userSpaceOnUse" x1="116.4383" y1="68.7826" x2="122.0334" y2="215.6532">
	<stop  offset="0" style="stop-color:#FFFEFD"/>
	<stop  offset="1" style="stop-color:#F1D2D5"/>
</linearGradient>
<path class="st5" d="M118.4,118.6L93.1,141c0,0,12.7,209.8,12.7,246.2h48.9L118.4,118.6z"/>
<linearGradient id="SVGID_7_" gradientUnits="userSpaceOnUse" x1="252.1755" y1="99.4037" x2="296.9361" y2="484.0648">
	<stop  offset="0" style="stop-color:#FFFEFD"/>
	<stop  offset="1" style="stop-color:#F1D2D5"/>
</linearGradient>
<path class="st6" d="M131.7,387.4L118.4,95.2c0,0,67.9-37.2,201.1-18.4c0,0,55.6,12.9,85.3,11.1l10.8,299.2L131.7,387.4z"/>
<linearGradient id="SVGID_8_" gradientUnits="userSpaceOnUse" x1="152.6494" y1="127.1244" x2="370.7879" y2="127.1244">
	<stop  offset="9.030449e-02" style="stop-color:#C0769B"/>
	<stop  offset="1" style="stop-color:#DDA09F"/>
</linearGradient>
<path class="st7" d="M368.8,135.3c0,0-115.3-32.2-214.1-6.1"/>
<linearGradient id="SVGID_9_" gradientUnits="userSpaceOnUse" x1="163.7" y1="168.7987" x2="365.8987" y2="168.7987">
	<stop  offset="9.030449e-02" style="stop-color:#C0769B"/>
	<stop  offset="1" style="stop-color:#DDA09F"/>
</linearGradient>
<path class="st8" d="M363.9,177.8c0,0-99.4-34.3-198.2-8.2"/>
<linearGradient id="SVGID_10_" gradientUnits="userSpaceOnUse" x1="163.7" y1="224.93" x2="365.8987" y2="224.93">
	<stop  offset="9.030449e-02" style="stop-color:#C0769B"/>
	<stop  offset="1" style="stop-color:#DDA09F"/>
</linearGradient>
<path class="st9" d="M363.9,231.5c0,0-100.1-22.7-198.2-8.2"/>
<linearGradient id="SVGID_11_" gradientUnits="userSpaceOnUse" x1="165.2384" y1="285.6849" x2="365.8987" y2="285.6849">
	<stop  offset="9.030449e-02" style="stop-color:#C0769B"/>
	<stop  offset="1" style="stop-color:#DDA09F"/>
</linearGradient>
<path class="st10" d="M363.9,292.3c0,0-98.5-22.9-196.7-8.3"/>
<linearGradient id="SVGID_12_" gradientUnits="userSpaceOnUse" x1="165.2384" y1="340.5006" x2="365.8987" y2="340.5006">
	<stop  offset="9.030449e-02" style="stop-color:#C0769B"/>
	<stop  offset="1" style="stop-color:#DDA09F"/>
</linearGradient>
<path class="st11" d="M363.9,346c0,0-98.5-20.2-196.7-5.7"/>
<linearGradient id="SVGID_13_" gradientUnits="userSpaceOnUse" x1="710.889" y1="97.4919" x2="715.9582" y2="230.5603">
	<stop  offset="0" style="stop-color:#FFFEFD"/>
	<stop  offset="1" style="stop-color:#E1B9BC"/>
</linearGradient>
<path class="st12" d="M718.6,142.4l15.1,11.2c0,0-22.4,145.5-16.6,233.5l-14.3,0C702.8,387,684.9,205.4,718.6,142.4z"/>
<linearGradient id="SVGID_14_" gradientUnits="userSpaceOnUse" x1="683.5668" y1="27.1415" x2="683.5668" y2="152.8324">
	<stop  offset="0" style="stop-color:#FFFEFD"/>
	<stop  offset="1" style="stop-color:#F1D2D5"/>
</linearGradient>
<path class="st13" d="M687.2,94.2l34.1,24.3c0,0-26.2,223.5-16.9,268.4h-58.5L687.2,94.2z"/>
<linearGradient id="SVGID_15_" gradientUnits="userSpaceOnUse" x1="554.0834" y1="105.8746" x2="582.022" y2="429.9621">
	<stop  offset="0" style="stop-color:#FFFEFD"/>
	<stop  offset="1" style="stop-color:#F1D2D5"/>
</linearGradient>
<path class="st14" d="M441.4,87.9c0,0,35.8-1.4,62-16.4c38.2-21.9,127.8-31.2,184.6,0L676.4,387l-235,0.1V87.9z"/>
<linearGradient id="SVGID_16_" gradientUnits="userSpaceOnUse" x1="443.4558" y1="54.22" x2="441.5908" y2="220.207">
	<stop  offset="0" style="stop-color:#FFFEFD"/>
	<stop  offset="1" style="stop-color:#F1D2D5"/>
</linearGradient>
<path class="st15" d="M448.1,87.9c-0.8-0.4-1.6-0.7-2.4-1c-6.7,0.8-10.9,1-10.9,1v299.2l5,0l8.4,0V87.9z"/>
<linearGradient id="SVGID_17_" gradientUnits="userSpaceOnUse" x1="402.0435" y1="54.1918" x2="400.1799" y2="220.0507">
	<stop  offset="0" style="stop-color:#FFFEFD"/>
	<stop  offset="1" style="stop-color:#F1D2D5"/>
</linearGradient>
<path class="st16" d="M411.4,87.9c-0.8-0.4-1.6-0.7-2.4-1c-6.7,0.8-14,1-14,1l-6.4,298.9l5,0l8.4,0L411.4,87.9z"/>
<linearGradient id="SVGID_18_" gradientUnits="userSpaceOnUse" x1="411.4141" y1="373.7995" x2="422.6042" y2="239.5178">
	<stop  offset="9.030449e-02" style="stop-color:#C0769B"/>
	<stop  offset="1" style="stop-color:#DDA09F"/>
</linearGradient>
<path class="st17" d="M395.2,387.1c0,0,3.7-282.4,9.6-299.2c0,0,18.4-8.3,36.6,0v299.2L395.2,387.1z"/>
<linearGradient id="SVGID_19_" gradientUnits="userSpaceOnUse" x1="462.6274" y1="236.0933" x2="567.277" y2="218.6517">
	<stop  offset="0" style="stop-color:#F1D2D5;stop-opacity:0"/>
	<stop  offset="1" style="stop-color:#F1D2D5"/>
</linearGradient>
<path class="st18" d="M503.4,387.1V71.5c-26.2,15-62,16.4-62,16.4l6.7,223.7L503.4,387.1z"/>
<linearGradient id="SVGID_20_" gradientUnits="userSpaceOnUse" x1="353.8758" y1="79.4908" x2="348.8671" y2="180.1205">
	<stop  offset="0" style="stop-color:#FFFEFD"/>
	<stop  offset="1" style="stop-color:#F1D2D5"/>
</linearGradient>
<path class="st19" d="M355.7,217.6l4.1-1.3c-2.2-15.6,8.7-112.9,10.3-130.4c-9.2-1.2-18.3-2.7-26.2-4.1c-2.1,0-3.4,0.1-3.4,0.1
	c-9,67-8.1,117.4-8.1,117.4L355.7,217.6z"/>
<linearGradient id="SVGID_21_" gradientUnits="userSpaceOnUse" x1="346.1665" y1="76.9984" x2="341.0281" y2="180.2335">
	<stop  offset="1.802885e-03" style="stop-color:#EFEFD8"/>
	<stop  offset="1" style="stop-color:#FFC4D2"/>
</linearGradient>
<path class="st20" d="M363.9,85c0,0-10.7,115.4-8.2,132.5L341,206.7l-14.7,10.9c0,0-5.4-71.6,3.5-138.5
	C329.8,79,351.9,79.9,363.9,85z"/>
<linearGradient id="SVGID_22_" gradientUnits="userSpaceOnUse" x1="475.0063" y1="121.1742" x2="656.3024" y2="121.1742">
	<stop  offset="9.030449e-02" style="stop-color:#C0769B"/>
	<stop  offset="1" style="stop-color:#DDA09F"/>
</linearGradient>
<path class="st21" d="M477,134.9c0,0,5.7,4,46.9-14.1c65.7-28.9,130.4-3.2,130.4-3.2"/>
<linearGradient id="SVGID_23_" gradientUnits="userSpaceOnUse" x1="475.0063" y1="169.6234" x2="653.426" y2="169.6234">
	<stop  offset="9.030449e-02" style="stop-color:#C0769B"/>
	<stop  offset="1" style="stop-color:#DDA09F"/>
</linearGradient>
<path class="st22" d="M477,183.4c0,0,2.8,4,44-14.1c65.7-28.9,130.4-3.2,130.4-3.2"/>
<linearGradient id="SVGID_24_" gradientUnits="userSpaceOnUse" x1="475.0063" y1="223.2892" x2="656.3024" y2="223.2892">
	<stop  offset="9.030449e-02" style="stop-color:#C0769B"/>
	<stop  offset="1" style="stop-color:#DDA09F"/>
</linearGradient>
<path class="st23" d="M477,235.7c0,0,4.7,2.7,46.9-13c67.1-24.8,130.4-3.2,130.4-3.2"/>
<linearGradient id="SVGID_25_" gradientUnits="userSpaceOnUse" x1="470.4028" y1="280.9592" x2="653.426" y2="280.9592">
	<stop  offset="9.030449e-02" style="stop-color:#C0769B"/>
	<stop  offset="1" style="stop-color:#DDA09F"/>
</linearGradient>
<path class="st24" d="M472.4,290.5c0,0,5.4,2,48.6-10.5c78.4-22.5,130.4,5.4,130.4,5.4"/>
<linearGradient id="SVGID_26_" gradientUnits="userSpaceOnUse" x1="473.2098" y1="334.668" x2="656.233" y2="334.668">
	<stop  offset="9.030449e-02" style="stop-color:#C0769B"/>
	<stop  offset="1" style="stop-color:#DDA09F"/>
</linearGradient>
<path class="st25" d="M475.2,336.9c0,0,4.3,5.8,48.6-2.1c88.7-15.8,130.4,5.4,130.4,5.4"/>
</svg>
