<?xml version="1.0" encoding="utf-8"?>
<!-- Generator: Adobe Illustrator 21.0.0, SVG Export Plug-In . SVG Version: 6.00 Build 0)  -->
<svg version="1.1" id="Layer_1" xmlns="http://www.w3.org/2000/svg" xmlns:xlink="http://www.w3.org/1999/xlink" x="0px" y="0px"
	 viewBox="0 0 615.9 689.9" enable-background="new 0 0 615.9 689.9" xml:space="preserve">
<g>
	<g>
		<linearGradient id="SVGID_1_" gradientUnits="userSpaceOnUse" x1="256.1034" y1="97.0048" x2="300.1034" y2="339.0048">
			<stop  offset="7.131410e-03" style="stop-color:#AF87D8"/>
			<stop  offset="1" style="stop-color:#7A64CF"/>
		</linearGradient>
		<circle fill="url(#SVGID_1_)" cx="307.9" cy="382" r="307.9"/>
		<linearGradient id="SVGID_2_" gradientUnits="userSpaceOnUse" x1="384.0418" y1="349.6376" x2="384.0418" y2="563.6376">
			<stop  offset="0" style="stop-color:#FC9CA6"/>
			<stop  offset="1" style="stop-color:#FFFFF1"/>
		</linearGradient>
		<path fill="url(#SVGID_2_)" d="M615.8,382c0-13.3,0-3.3,0-13.3l-170.6,0.5l-293,80.2L256,685.5c16.9,2.9,34.2,4.4,51.9,4.4
			C478,689.9,615.8,552,615.8,382z"/>
		<linearGradient id="SVGID_4_" gradientUnits="userSpaceOnUse" x1="380.0824" y1="337.5154" x2="392.3453" y2="559.7801">
			<stop  offset="0" style="stop-color:#CF97F8"/>
			<stop  offset="1" style="stop-color:#E6A5B3"/>
		</linearGradient>
		<path fill="url(#SVGID_4_)" d="M445.3,399l170.1-0.5c0.3-5.5,0.4-11,0.4-16.5c0-13.3,0.1-4.5,0-13.3l-170.6,0.5l-293,80.2
			l16.1,36.5L445.3,399z"/>
		<g>
			<defs>
				<circle id="SVGID_3_" cx="307.9" cy="382" r="307.9"/>
			</defs>
			<clipPath id="SVGID_5_">
				<use xlink:href="#SVGID_3_"  overflow="visible"/>
			</clipPath>
			<g clip-path="url(#SVGID_5_)">
				<linearGradient id="SVGID_6_" gradientUnits="userSpaceOnUse" x1="167.5537" y1="480.6465" x2="447.5536" y2="420.6465">
					<stop  offset="7.131410e-03" style="stop-color:#4E61D4"/>
					<stop  offset="1" style="stop-color:#182A88"/>
				</linearGradient>
				<path fill="url(#SVGID_6_)" d="M47.9,72.9L356,13.4l173.2,815.7l-385.1,90C144.2,919.1-18.6,330.6,47.9,72.9z"/>
				<linearGradient id="SVGID_7_" gradientUnits="userSpaceOnUse" x1="66.4892" y1="57.2577" x2="400.4892" y2="929.2578">
					<stop  offset="0" style="stop-color:#AC99E0"/>
					<stop  offset="1" style="stop-color:#3A6CFA"/>
				</linearGradient>
				<path fill="url(#SVGID_7_)" d="M-71.9,114.4l400.2-53.1l157.4,722.6l-351.3,88.8C134.4,872.6-134,355-71.9,114.4z"/>
				
					<linearGradient id="SVGID_8_" gradientUnits="userSpaceOnUse" x1="-185.0373" y1="1064.5934" x2="-79.0373" y2="936.5934" gradientTransform="matrix(0.8788 0.2182 -0.234 0.9427 550.7825 -387.4254)">
					<stop  offset="0.2099" style="stop-color:#CCC6F8"/>
					<stop  offset="1" style="stop-color:#D5EEF8"/>
				</linearGradient>
				<polygon opacity="0.67" fill="url(#SVGID_8_)" points="350.6,292.7 67.6,703.8 78,739.6 358.1,326.6 				"/>
				
					<linearGradient id="SVGID_9_" gradientUnits="userSpaceOnUse" x1="-283.6249" y1="988.0477" x2="-177.6249" y2="860.0477" gradientTransform="matrix(0.8765 0.2176 -0.2343 0.9437 547.7847 -389.9375)">
					<stop  offset="0.2099" style="stop-color:#CCC6F8"/>
					<stop  offset="1" style="stop-color:#D5EEF8"/>
				</linearGradient>
				<polygon opacity="0.67" fill="url(#SVGID_9_)" points="311,105.5 0,558.5 50.9,675.9 334.2,228.6 				"/>
				<linearGradient id="SVGID_10_" gradientUnits="userSpaceOnUse" x1="191.3781" y1="141.55" x2="296.3729" y2="633.5254">
					<stop  offset="0" style="stop-color:#5C58CA"/>
					<stop  offset="0.8962" style="stop-color:#2265C8;stop-opacity:0"/>
				</linearGradient>
				<path fill="url(#SVGID_10_)" d="M307.9,94.8l107.8,524.5l78.7,204.8L383.2,308.4L328.3,61.3L37.2,115.9
					c-1.7,6.4-3.2,13-4.5,19.7L307.9,94.8z"/>
			</g>
		</g>
	</g>
	<g>
		<linearGradient id="SVGID_11_" gradientUnits="userSpaceOnUse" x1="26.2968" y1="357.0682" x2="195.2968" y2="228.0682">
			<stop  offset="9.030449e-02" style="stop-color:#CE83B4;stop-opacity:0"/>
			<stop  offset="0.7232" style="stop-color:#DFBD9F"/>
			<stop  offset="1" style="stop-color:#DFBD9F;stop-opacity:0"/>
		</linearGradient>
		<path fill="url(#SVGID_11_)" d="M187.3,227c0,0-39.4,14.4-68.8,73c-18.4,36.6-105.6,3.3-105.6,3.3l11.5,91
			c0,0,100.3-14.5,108.9-81.3S134,209.7,171,186L187.3,227z"/>
		<linearGradient id="SVGID_12_" gradientUnits="userSpaceOnUse" x1="7.5399" y1="376.8068" x2="213.751" y2="219.4031">
			<stop  offset="9.030449e-02" style="stop-color:#CE83B4;stop-opacity:0"/>
			<stop  offset="0.7232" style="stop-color:#DFBD9F"/>
			<stop  offset="1" style="stop-color:#DFBD9F;stop-opacity:0"/>
		</linearGradient>
		<path fill="url(#SVGID_12_)" d="M196.5,213.8c0,0-44.3,18.9-77.5,95.5c-20.7,47.9-119,4.4-119,4.4l12.9,119
			c0,0,113-19,122.7-106.3s0.8-135.1,42.5-166L196.5,213.8z"/>
	</g>
	<g>
		<path fill="#FFFFFF" d="M153.6,52.4c0,0-8.2,129.8,118.3,163.8s109.5,147.5,109.5,147.5s-81.4,60.9-171.6,15.8
			c0,0-20.5-81.4,62.1-163.3c0,0,84.3-53.9,79.1-183C351,33.2,246.1,69.1,153.6,52.4z"/>
		<linearGradient id="SVGID_13_" gradientUnits="userSpaceOnUse" x1="293.0381" y1="323.306" x2="296.0381" y2="375.306">
			<stop  offset="1.802885e-03" style="stop-color:#EFEFD8"/>
			<stop  offset="1" style="stop-color:#FFC4D2"/>
		</linearGradient>
		<path fill="url(#SVGID_13_)" d="M382.2,350.2c-0.1,0-79-16-93.6-16c-14.7,0-81,22.1-81,22.1c0.1,14.5,2.3,23.2,2.3,23.2
			c2.9,1.5,5.8,2.8,8.7,4l96,6.1l27.1-5.2c24.5-9.3,39.8-20.7,39.8-20.7S382.2,358.6,382.2,350.2z"/>
		<linearGradient id="SVGID_14_" gradientUnits="userSpaceOnUse" x1="256.2362" y1="221.6376" x2="256.2362" y2="150.6376">
			<stop  offset="1.802885e-03" style="stop-color:#EFEFD8"/>
			<stop  offset="1" style="stop-color:#FFC4D2"/>
		</linearGradient>
		<path fill="url(#SVGID_14_)" d="M271.9,216.1c-44.9-12-72.9-36.2-90.2-62.3c0.3,0.1,36.2,14.1,68.8,7.8c27.7-5.4,51.3-6,80.3-19.1
			C330.8,142.5,313.2,192.9,271.9,216.1z"/>
		<linearGradient id="SVGID_15_" gradientUnits="userSpaceOnUse" x1="318.6623" y1="13.9871" x2="178.6622" y2="28.4871">
			<stop  offset="7.131410e-03" style="stop-color:#6B80D4"/>
			<stop  offset="1" style="stop-color:#454DCF"/>
		</linearGradient>
		<path fill="url(#SVGID_15_)" d="M153.5,27.6c0,0,56.9-26.3,197.5-16.3l-54.5,16.3L176.5,40.2L153.5,27.6z"/>
		<linearGradient id="SVGID_16_" gradientUnits="userSpaceOnUse" x1="199.7672" y1="43.5176" x2="333.2605" y2="21.0187">
			<stop  offset="9.030449e-02" style="stop-color:#E780B4"/>
			<stop  offset="1" style="stop-color:#DDA09F"/>
		</linearGradient>
		<path fill="url(#SVGID_16_)" d="M153.6,52.4c0,0,106.8,21.7,197.4-19.2V11.2c0,0-114.5,31.3-197.5,16.3
			C153.5,27.6,153,32.5,153.6,52.4z"/>
		<path fill="#8F7ECE" d="M153.5,54.9c0,1,0.1,2,0.1,3c0,0,106.8,21.7,197.4-19.2v-5.5c0,0-104.8,35.9-197.4,19.2
			C153.6,52.4,153.5,53.3,153.5,54.9z"/>
		<g>
			<path fill="none" stroke="#FFFFFF" stroke-width="3" stroke-miterlimit="10" d="M338.7,143.3
				C338.7,143.3,338.7,143.3,338.7,143.3c14.4-29.5,24.8-67.8,22.7-116.1V3.9C203.2-6.7,139.1,21.3,139.1,21.3s-0.6,5.3,0.1,26.4
				c0,0-3.8,57.3,31.6,107.7h0c0,0,0,0,0,0c1.1,1.6,2.3,3.2,3.5,4.8c0.1,0.2,0.2,0.3,0.4,0.5c0.6,0.7,1.1,1.5,1.7,2.2
				c0.2,0.3,0.4,0.5,0.6,0.8c1.8,2.2,3.6,4.4,5.6,6.5c0.3,0.3,0.6,0.7,0.9,1c0.6,0.6,1.2,1.2,1.7,1.9c0.3,0.4,0.7,0.7,1,1.1
				c1,1,2,2,3,3c0.4,0.4,0.9,0.9,1.3,1.3c0.6,0.5,1.1,1.1,1.7,1.6c0.5,0.5,1,0.9,1.5,1.4c0.7,0.6,1.4,1.3,2.2,1.9
				c0.8,0.7,1.6,1.4,2.4,2c0.5,0.4,1.1,0.9,1.6,1.3c0.6,0.5,1.3,1,1.9,1.5c0.5,0.4,1.1,0.8,1.6,1.3c1.1,0.8,2.2,1.7,3.3,2.5
				c0.4,0.3,0.9,0.6,1.4,1c0.8,0.6,1.7,1.2,2.5,1.7c0.5,0.4,1.1,0.7,1.6,1.1c0.9,0.6,1.9,1.2,2.8,1.9c0.4,0.2,0.8,0.5,1.1,0.7
				c1.3,0.8,2.6,1.6,3.9,2.4c0.5,0.3,1,0.6,1.5,0.9c1,0.6,2,1.1,3.1,1.7c0.5,0.3,0.9,0.5,1.4,0.8c1.4,0.8,2.9,1.5,4.4,2.3
				c0.4,0.2,0.8,0.4,1.2,0.6c1.2,0.6,2.4,1.2,3.6,1.7c0.5,0.2,1,0.5,1.5,0.7c1.4,0.6,2.9,1.3,4.3,1.9c0.2,0.1,0.4,0.2,0.6,0.2
				c1.6,0.7,3.3,1.4,5,2c0.5,0.2,1,0.4,1.5,0.6c1.4,0.5,2.7,1,4.1,1.5c0.4,0.2,0.9,0.3,1.3,0.5c1.8,0.6,3.6,1.2,5.4,1.8
				c0.4,0.1,0.8,0.2,1.2,0.4c1.5,0.5,3,0.9,4.6,1.4c0.5,0.2,1.1,0.3,1.6,0.5c1.9,0.5,3.9,1.1,5.9,1.6
				C318.9,196.9,338.7,143.3,338.7,143.3z"/>
			<path fill="none" stroke="#FFFFFF" stroke-width="3" stroke-miterlimit="10" d="M396.3,371.1L396.3,371.1
				c1.4-26.6-2.6-118.8-123.9-149.4c-71.3,66.8-74.3,133.2-71.9,160.5c0,0-2.9,11-2.2,32.1c0,0,104.3,32.1,198.2-11.4L396.3,371.1z"
				/>
		</g>
		<g>
			<linearGradient id="SVGID_17_" gradientUnits="userSpaceOnUse" x1="137.4309" y1="68.4827" x2="363.1666" y2="68.4827">
				<stop  offset="1.802885e-03" style="stop-color:#EFD8D8"/>
				<stop  offset="1" style="stop-color:#EEC7D2"/>
			</linearGradient>
			<path fill="none" stroke="url(#SVGID_17_)" stroke-width="3" stroke-miterlimit="10" d="M355.3,96.3c4.7-20.3,7.2-43.3,6.1-69.1
				V3.9C203.2-6.7,139.1,21.3,139.1,21.3s-0.6,5.3,0.1,26.4c0,0-2.9,43.9,20.1,88.6"/>
		</g>
		<linearGradient id="SVGID_18_" gradientUnits="userSpaceOnUse" x1="360.4625" y1="422.1077" x2="160.7544" y2="405.8976">
			<stop  offset="7.131410e-03" style="stop-color:#6B80D4"/>
			<stop  offset="1" style="stop-color:#454DCF"/>
		</linearGradient>
		<ellipse fill="url(#SVGID_18_)" cx="297.1" cy="417" rx="85.7" ry="15.1"/>
		<linearGradient id="SVGID_19_" gradientUnits="userSpaceOnUse" x1="257.7406" y1="387.4934" x2="391.2339" y2="364.9946">
			<stop  offset="9.030449e-02" style="stop-color:#E780B4"/>
			<stop  offset="1" style="stop-color:#DDA09F"/>
		</linearGradient>
		<path fill="url(#SVGID_19_)" d="M206.1,397.4c0,0,92.7,30.2,176.1-10.7l-0.2-29.9c0,0-82,43.4-174,10.4
			C208,367.2,205.5,377.6,206.1,397.4z"/>
		<linearGradient id="SVGID_20_" gradientUnits="userSpaceOnUse" x1="266.4623" y1="206.6807" x2="305.4603" y2="397.1712">
			<stop  offset="1.802885e-03" style="stop-color:#EFEFD8"/>
			<stop  offset="1" style="stop-color:#FFC4D2"/>
		</linearGradient>
		<circle fill="url(#SVGID_20_)" cx="279.2" cy="268.9" r="9.3"/>
		<linearGradient id="SVGID_21_" gradientUnits="userSpaceOnUse" x1="264.738" y1="207.0337" x2="303.736" y2="397.5242">
			<stop  offset="1.802885e-03" style="stop-color:#EFEFD8"/>
			<stop  offset="1" style="stop-color:#FFC4D2"/>
		</linearGradient>
		<circle fill="url(#SVGID_21_)" cx="286" cy="310.9" r="6.5"/>
	</g>
	<linearGradient id="SVGID_22_" gradientUnits="userSpaceOnUse" x1="419.3275" y1="163.7962" x2="424.6609" y2="229.7962">
		<stop  offset="1.802885e-03" style="stop-color:#EFEFD8"/>
		<stop  offset="1" style="stop-color:#FFC4D2"/>
	</linearGradient>
	<polygon fill="url(#SVGID_22_)" points="460.3,207.2 456.2,192 430.4,195.6 425.1,168.1 407.7,170.5 413.1,198 385,201.9 
		388.2,219.8 416.8,214.3 423.3,243.7 440.8,238.3 434.2,211 	"/>
</g>
</svg>
